{"glyphs":{"0":{"ha":1129,"x_min":0,"x_max":0,"o":"m 99 572 b 565 -21 99 147 319 -21 b 1031 572 811 -21 1031 147 b 565 1167 1031 969 811 1167 b 99 572 319 1167 99 969 z m 363 572 b 565 938 363 803 439 938 b 767 572 690 938 767 804 b 565 208 767 325 690 208 b 363 572 439 208 363 325 z "},"1":{"ha":574,"x_min":0,"x_max":0,"o":"m 40 676 l 229 799 l 229 0 l 490 0 l 490 1146 l 367 1146 l 40 935 z "},"2":{"ha":1046,"x_min":0,"x_max":0,"o":"m 504 946 b 667 764 657 946 667 806 b 76 65 667 553 76 65 l 76 0 l 969 0 l 969 229 l 544 229 b 949 764 544 229 949 496 b 504 1167 949 908 897 1167 b 82 833 193 1167 82 833 l 300 728 b 504 946 300 728 379 946 z "},"3":{"ha":924,"x_min":0,"x_max":0,"o":"m 285 815 b 456 957 285 815 311 957 b 597 831 529 957 597 904 b 460 686 597 747 529 686 l 403 686 l 403 515 b 453 524 403 515 425 524 b 618 356 544 524 618 454 b 453 204 618 258 549 204 b 265 379 281 204 265 379 l 24 261 b 454 -21 24 261 101 -21 b 879 356 700 -21 879 136 b 733 618 879 476 822 564 b 835 833 796 667 835 739 b 458 1167 835 1028 676 1167 b 79 915 138 1167 79 915 z "},"4":{"ha":1128,"x_min":0,"x_max":0,"o":"m 897 1146 l 554 1146 l 97 319 l 97 242 l 653 242 l 653 0 l 897 0 l 897 242 l 1031 242 l 1031 471 l 897 471 z m 653 797 l 653 471 l 446 471 l 597 797 z "},"5":{"ha":890,"x_min":0,"x_max":0,"o":"m 25 228 b 433 -21 68 111 189 -21 b 858 356 679 -21 858 136 b 431 758 858 674 647 757 b 399 757 419 758 408 757 l 424 917 l 785 917 l 785 1146 l 200 1146 l 104 529 b 300 565 139 544 204 565 b 597 364 449 565 597 515 b 433 197 597 267 528 197 b 232 328 314 197 253 257 z "},"6":{"ha":957,"x_min":0,"x_max":0,"o":"m 806 1146 l 483 1146 l 214 825 b 33 368 94 663 33 569 b 490 -21 33 149 233 -21 b 915 368 697 -21 915 97 b 550 769 915 635 707 769 b 468 753 497 769 468 753 z m 304 368 b 478 546 304 471 382 546 b 654 368 576 546 654 471 b 478 194 654 268 579 194 b 304 368 376 194 304 268 z "},"7":{"ha":1063,"x_min":0,"x_max":0,"o":"m 988 1146 l 109 1146 l 109 917 l 602 917 b 74 0 332 637 217 315 l 383 0 b 988 1069 504 356 730 713 z "},"8":{"ha":954,"x_min":0,"x_max":0,"o":"m 851 878 b 476 1167 851 1047 672 1167 b 97 878 288 1167 97 1047 b 249 618 97 751 161 668 b 49 308 133 565 49 465 b 478 -21 49 115 256 -21 b 906 308 693 -21 906 115 b 704 618 906 465 819 565 b 851 878 790 668 851 751 z m 604 840 b 478 713 604 764 551 713 b 349 840 407 713 349 764 b 478 969 349 914 404 969 b 604 840 553 969 604 914 z m 332 350 b 476 496 332 436 394 496 b 622 350 557 496 622 436 b 476 204 622 265 560 204 b 332 350 390 204 332 265 z "},"9":{"ha":957,"x_min":0,"x_max":0,"o":"m 151 0 l 474 0 l 743 321 b 924 778 863 483 924 576 b 467 1167 924 997 724 1167 b 42 778 260 1167 42 1049 b 407 376 42 511 250 376 b 489 393 460 376 489 393 z m 653 778 b 479 600 653 675 575 600 b 303 778 381 600 303 675 b 479 951 303 878 378 951 b 653 778 581 951 653 878 z "}," ":{"ha":379,"x_min":0,"x_max":0,"o":""},"!":{"ha":440,"x_min":0,"x_max":0,"o":"m 105 122 b 223 0 105 56 159 0 b 341 122 287 0 341 56 b 223 244 341 189 287 244 b 105 122 159 244 105 189 z m 128 326 l 311 326 l 343 1146 l 97 1146 z "},"\"":{"ha":621,"x_min":0,"x_max":0,"o":"m 338 1194 l 366 807 l 495 807 l 523 1194 z m 98 1194 l 126 807 l 255 807 l 282 1194 z "},"#":{"ha":1157,"x_min":0,"x_max":0,"o":"m 408 304 l 558 304 l 479 0 l 651 0 l 731 304 l 879 304 l 924 472 l 775 472 l 828 675 l 969 675 l 1014 843 l 872 843 l 951 1146 l 779 1146 l 700 843 l 550 843 l 629 1146 l 457 1146 l 378 843 l 229 843 l 185 675 l 333 675 l 281 472 l 139 472 l 94 304 l 236 304 l 157 0 l 329 0 z m 603 472 l 453 472 l 506 675 l 656 675 z "},"$":{"ha":1001,"x_min":0,"x_max":0,"o":"m 463 1294 l 463 1158 b 169 817 307 1125 169 999 b 388 522 169 697 250 590 b 646 333 524 454 646 417 b 481 221 646 226 538 221 b 200 350 353 221 200 350 l 69 131 b 463 -20 69 131 217 -7 l 463 -108 l 629 -151 l 629 -9 b 932 349 798 24 932 129 b 664 661 932 499 792 607 b 425 826 533 717 425 763 b 561 929 425 889 472 929 b 793 850 679 929 793 850 l 899 1058 b 629 1161 899 1058 791 1138 l 629 1236 z "},"%":{"ha":1363,"x_min":0,"x_max":0,"o":"m 32 893 b 342 619 32 735 154 619 b 646 893 519 619 646 735 b 342 1167 646 1054 511 1167 b 32 893 167 1167 32 1054 z m 1099 1146 l 935 1146 l 268 0 l 432 0 z m 211 893 b 339 1022 211 968 268 1022 b 464 893 408 1022 464 968 b 339 767 464 818 410 767 b 211 893 264 767 211 818 z m 717 253 b 1026 -21 717 92 851 -21 b 1331 253 1196 -21 1331 92 b 1026 526 1331 411 1204 526 b 717 253 839 526 717 411 z m 896 253 b 1024 379 896 328 949 379 b 1149 253 1094 379 1149 328 b 1024 124 1149 178 1093 124 b 896 253 953 124 896 178 z "},"&":{"ha":1351,"x_min":0,"x_max":0,"o":"m 1196 522 l 867 428 l 714 586 b 940 868 714 586 940 696 b 600 1167 940 1011 829 1167 b 235 868 363 1167 235 1046 b 350 614 235 778 283 697 b 71 301 215 543 71 444 b 469 -21 71 47 300 -21 b 838 118 646 -21 738 47 l 951 0 l 1281 0 l 1033 257 b 1196 522 1118 333 1196 522 z m 600 982 b 711 868 685 982 711 929 b 583 728 711 807 642 760 b 500 868 583 728 500 801 b 600 982 500 929 529 982 z m 668 292 b 496 226 668 292 590 226 b 367 322 435 226 367 256 b 486 471 367 428 486 471 z "},"'":{"ha":383,"x_min":0,"x_max":0,"o":"m 100 1194 l 127 807 l 256 807 l 284 1194 z "},"(":{"ha":560,"x_min":0,"x_max":0,"o":"m 479 -293 b 303 413 479 -293 303 -57 b 499 1147 303 910 499 1147 l 339 1215 b 76 413 339 1215 76 907 b 319 -361 76 -68 319 -361 z "},")":{"ha":560,"x_min":0,"x_max":0,"o":"m 240 -361 b 483 413 240 -361 483 -68 b 221 1215 483 907 221 1215 l 61 1147 b 257 413 61 1147 257 910 b 81 -293 257 -57 81 -293 z "},"*":{"ha":678,"x_min":0,"x_max":0,"o":"m 558 1081 l 400 1032 l 399 1194 l 279 1194 l 278 1032 l 119 1081 l 83 969 l 242 913 l 150 775 l 242 713 l 339 839 l 436 713 l 528 775 l 436 913 l 594 969 z "},"+":{"ha":879,"x_min":0,"x_max":0,"o":"m 546 219 l 546 469 l 796 469 l 796 682 l 546 682 l 546 932 l 333 932 l 333 682 l 83 682 l 83 469 l 333 469 l 333 219 z "},",":{"ha":436,"x_min":0,"x_max":0,"o":"m 218 230 b 99 110 152 230 99 177 b 188 1 99 55 137 14 b 109 -145 172 -85 109 -145 l 162 -189 b 337 110 248 -118 337 -16 b 218 230 337 177 284 230 z "},"-":{"ha":614,"x_min":0,"x_max":0,"o":"m 83 508 l 83 296 l 531 296 l 531 508 z "},".":{"ha":436,"x_min":0,"x_max":0,"o":"m 100 122 b 218 0 100 56 154 0 b 336 122 282 0 336 56 b 218 244 336 189 282 244 b 100 122 154 244 100 189 z "},"/":{"ha":849,"x_min":0,"x_max":0,"o":"m 817 1194 l 604 1194 l 32 -167 l 244 -167 z "},":":{"ha":436,"x_min":0,"x_max":0,"o":"m 100 536 b 218 414 100 469 154 414 b 336 536 282 414 336 469 b 218 658 336 603 282 658 b 100 536 154 658 100 603 z m 100 122 b 218 0 100 56 154 0 b 336 122 282 0 336 56 b 218 244 336 189 282 244 b 100 122 154 244 100 189 z "},";":{"ha":436,"x_min":0,"x_max":0,"o":"m 218 230 b 100 110 153 230 100 177 b 189 1 100 55 138 14 b 110 -145 172 -85 110 -145 l 163 -189 b 338 110 249 -118 338 -16 b 218 230 338 177 285 230 z m 98 536 b 216 414 98 469 152 414 b 334 536 280 414 334 469 b 216 658 334 603 280 658 b 98 536 152 658 98 603 z "},"<":{"ha":919,"x_min":0,"x_max":0,"o":"m 83 660 l 83 496 l 843 188 l 843 385 l 346 576 l 843 771 l 843 968 z "},"=":{"ha":879,"x_min":0,"x_max":0,"o":"m 83 849 l 83 636 l 796 636 l 796 849 z m 83 515 l 83 303 l 796 303 l 796 515 z "},">":{"ha":919,"x_min":0,"x_max":0,"o":"m 76 385 l 76 188 l 836 496 l 836 660 l 76 968 l 76 771 l 574 576 z "},"?":{"ha":931,"x_min":0,"x_max":0,"o":"m 335 122 b 453 0 335 56 389 0 b 571 122 517 0 571 56 b 453 244 571 189 517 244 b 335 122 389 244 335 189 z m 288 750 b 451 893 303 810 351 893 b 564 779 514 893 564 846 b 400 622 564 681 485 676 b 335 471 338 582 335 532 l 335 319 l 564 319 l 564 397 b 613 503 564 443 565 482 b 847 779 746 560 847 643 b 453 1111 847 975 661 1111 b 83 849 143 1111 83 856 z "},"@":{"ha":1279,"x_min":0,"x_max":0,"o":"m 997 478 b 926 536 931 478 926 536 l 926 826 l 761 826 l 761 775 b 586 842 718 817 658 842 b 324 560 433 842 324 717 b 586 281 324 404 433 281 b 761 356 660 281 722 313 l 774 374 b 967 310 819 335 892 310 b 1249 614 1103 310 1249 397 b 657 1167 1249 942 982 1167 b 32 574 318 1167 32 926 b 657 -21 32 221 318 -21 b 1078 164 957 -21 1078 164 l 917 271 b 657 176 917 271 840 176 b 235 574 425 176 235 347 b 657 985 235 800 421 985 b 1083 614 899 985 1083 832 b 997 478 1083 511 1057 478 z m 539 563 b 651 676 539 628 589 676 b 761 563 711 676 761 628 b 651 451 761 499 714 451 b 539 563 585 451 539 499 z "},"A":{"ha":1089,"x_min":0,"x_max":0,"o":"m 665 1146 l 424 1146 l -39 0 l 242 0 l 326 229 l 763 229 l 847 0 l 1128 0 z m 674 458 l 415 458 l 543 792 z "},"B":{"ha":925,"x_min":0,"x_max":0,"o":"m 83 1146 l 83 0 l 518 0 b 893 319 756 0 893 131 b 649 608 893 504 792 583 b 792 854 746 658 792 749 b 439 1146 792 1072 636 1146 z m 344 697 l 344 944 l 365 944 b 539 828 479 944 539 910 b 365 697 539 732 478 697 z m 344 201 l 344 472 l 426 472 b 618 329 550 472 618 435 b 426 201 618 239 550 201 z "},"C":{"ha":1046,"x_min":0,"x_max":0,"o":"m 693 236 b 315 574 431 236 315 419 b 693 910 315 726 431 910 b 918 839 826 910 918 839 l 1029 1061 b 653 1167 1029 1061 901 1167 b 32 571 328 1167 32 900 b 653 -21 32 243 329 -21 b 1029 85 901 -21 1029 85 l 918 307 b 693 236 918 307 826 236 z "},"D":{"ha":1042,"x_min":0,"x_max":0,"o":"m 83 1146 l 83 0 l 415 0 b 993 574 731 0 993 239 b 415 1146 993 907 729 1146 z m 344 233 l 344 913 l 385 913 b 711 572 579 913 711 764 b 385 233 710 381 578 233 z "},"E":{"ha":806,"x_min":0,"x_max":0,"o":"m 739 1146 l 83 1146 l 83 0 l 739 0 l 739 229 l 344 229 l 344 460 l 722 460 l 722 689 l 344 689 l 344 917 l 739 917 z "},"F":{"ha":788,"x_min":0,"x_max":0,"o":"m 746 1146 l 83 1146 l 83 0 l 344 0 l 344 460 l 715 460 l 715 689 l 344 689 l 344 917 l 746 917 z "},"G":{"ha":1286,"x_min":0,"x_max":0,"o":"m 1058 130 l 1052 47 l 1141 0 l 1187 440 l 1187 642 l 638 642 l 685 440 l 922 440 b 673 219 922 300 798 219 b 381 572 512 219 381 378 b 673 931 381 771 512 931 b 928 783 774 931 862 890 l 1099 971 b 658 1167 999 1092 859 1167 b 99 572 335 1167 99 901 b 658 -21 99 244 349 -21 b 1058 130 824 -21 963 25 z "},"H":{"ha":1058,"x_min":0,"x_max":0,"o":"m 344 460 l 714 460 l 714 0 l 975 0 l 975 1146 l 714 1146 l 714 689 l 344 689 l 344 1146 l 83 1146 l 83 0 l 344 0 z "},"I":{"ha":428,"x_min":0,"x_max":0,"o":"m 344 1146 l 83 1146 l 83 0 l 344 0 z "},"J":{"ha":651,"x_min":0,"x_max":0,"o":"m 582 1146 l 321 1146 l 321 390 b 189 229 321 275 264 229 b 40 307 122 229 40 307 l -43 89 b 225 -21 -43 89 61 -21 b 582 324 454 -21 582 99 z "},"K":{"ha":1093,"x_min":0,"x_max":0,"o":"m 1126 0 l 593 603 l 1054 1146 l 738 1146 l 344 678 l 344 1146 l 83 1146 l 83 0 l 344 0 l 344 486 l 767 0 z "},"L":{"ha":785,"x_min":0,"x_max":0,"o":"m 344 1146 l 83 1146 l 83 0 l 739 0 l 739 229 l 344 229 z "},"M":{"ha":1456,"x_min":0,"x_max":0,"o":"m 796 7 l 1089 726 l 1092 0 l 1351 0 l 1351 1146 l 982 1146 l 728 485 l 474 1146 l 104 1146 l 104 0 l 364 0 l 367 726 l 660 7 z "},"N":{"ha":1147,"x_min":0,"x_max":0,"o":"m 344 711 l 347 711 l 803 0 l 1064 0 l 1064 1146 l 803 1146 l 803 435 l 800 435 l 344 1146 l 83 1146 l 83 0 l 344 0 z "},"O":{"ha":1218,"x_min":0,"x_max":0,"o":"m 32 574 b 610 -21 32 239 271 -21 b 1186 574 939 -21 1186 239 b 610 1167 1186 908 928 1167 b 32 574 294 1167 32 908 z m 314 574 b 610 915 314 744 408 915 b 904 574 813 915 904 744 b 610 232 904 403 818 232 b 314 574 396 232 314 403 z "},"P":{"ha":925,"x_min":0,"x_max":0,"o":"m 83 1146 l 83 0 l 344 0 l 344 425 l 501 425 b 893 793 725 425 893 557 b 501 1146 893 1031 725 1146 z m 344 633 l 344 938 l 418 938 b 618 785 521 938 618 903 b 418 633 618 668 521 633 z "},"Q":{"ha":1353,"x_min":0,"x_max":0,"o":"m 635 904 b 924 574 849 904 924 744 b 635 243 924 403 837 243 b 352 574 428 243 352 403 b 635 904 352 744 441 904 z m 1283 160 b 1126 253 1215 203 1163 235 b 1210 574 1180 344 1210 454 b 641 1167 1210 908 959 1167 b 70 574 326 1167 70 908 b 641 -21 70 239 302 -21 b 958 74 760 -21 869 13 b 1167 -36 1009 47 1083 10 z "},"R":{"ha":994,"x_min":0,"x_max":0,"o":"m 83 1146 l 83 0 l 344 0 l 344 453 l 694 0 l 1026 0 l 632 474 b 867 806 772 518 867 633 b 493 1146 867 1031 706 1146 z m 344 638 l 344 938 l 375 938 b 592 788 474 938 592 931 b 375 638 592 644 474 638 z "},"S":{"ha":933,"x_min":0,"x_max":0,"o":"m 506 1167 b 132 817 321 1167 132 1031 b 350 522 132 697 213 590 b 608 333 486 454 608 417 b 443 221 608 226 500 221 b 163 350 315 221 163 350 l 32 131 b 463 -21 32 131 194 -21 b 894 349 686 -21 894 75 b 626 661 894 499 754 607 b 388 826 496 717 388 763 b 524 929 388 889 435 929 b 756 850 642 929 756 850 l 861 1058 b 506 1167 861 1058 714 1167 z "},"T":{"ha":828,"x_min":0,"x_max":0,"o":"m 11 917 l 283 917 l 283 0 l 544 0 l 544 917 l 817 917 l 817 1146 l 11 1146 z "},"U":{"ha":1101,"x_min":0,"x_max":0,"o":"m 998 1146 l 737 1146 l 737 483 b 551 236 737 292 678 236 b 365 483 423 236 365 292 l 365 1146 l 103 1146 l 103 407 b 551 -21 103 124 259 -21 b 998 407 842 -21 998 124 z "},"V":{"ha":1089,"x_min":0,"x_max":0,"o":"m 442 0 l 647 0 l 1128 1146 l 833 1146 l 544 393 l 256 1146 l -39 1146 z "},"W":{"ha":1557,"x_min":0,"x_max":0,"o":"m 963 0 l 1251 0 l 1578 1146 l 1289 1146 l 1093 360 l 1086 360 l 878 1146 l 681 1146 l 472 360 l 465 360 l 269 1146 l -21 1146 l 306 0 l 596 0 l 779 643 z "},"X":{"ha":1108,"x_min":0,"x_max":0,"o":"m 1156 0 l 708 617 l 1083 1146 l 758 1146 l 547 833 l 336 1146 l 25 1146 l 386 617 l -47 0 l 276 0 l 547 390 l 818 0 z "},"Y":{"ha":1022,"x_min":0,"x_max":0,"o":"m -42 1146 l 381 514 l 381 0 l 642 0 l 642 514 l 1064 1146 l 750 1146 l 511 779 l 272 1146 z "},"Z":{"ha":1164,"x_min":0,"x_max":0,"o":"m 1094 1146 l 151 1146 l 219 917 l 637 917 l 70 0 l 1056 0 l 988 229 l 526 229 z "},"[":{"ha":614,"x_min":0,"x_max":0,"o":"m 83 1194 l 83 -361 l 531 -361 l 531 -199 l 296 -199 l 296 1032 l 531 1032 l 531 1194 z "},"\\":{"ha":924,"x_min":0,"x_max":0,"o":"m 69 1194 l 282 1194 l 854 -167 l 642 -167 z "},"]":{"ha":614,"x_min":0,"x_max":0,"o":"m 83 -199 l 83 -361 l 531 -361 l 531 1194 l 83 1194 l 83 1032 l 318 1032 l 318 -199 z "},"^":{"ha":689,"x_min":0,"x_max":0,"o":"m 472 840 l 696 840 l 408 1167 l 281 1167 l -7 840 l 217 840 l 344 992 z "},"_":{"ha":713,"x_min":0,"x_max":0,"o":"m 0 -21 l 0 -139 l 713 -139 l 713 -21 z "},"`":{"ha":539,"x_min":0,"x_max":0,"o":"m 192 1167 l 65 1007 l 396 815 l 474 922 z "},"a":{"ha":1032,"x_min":0,"x_max":0,"o":"m 99 356 b 453 -21 99 147 245 -21 b 687 81 551 -21 634 22 l 690 81 l 690 0 l 933 0 l 933 713 l 687 713 l 687 644 b 453 733 628 701 549 733 b 99 356 245 733 99 564 z m 360 356 b 527 524 360 454 434 524 b 692 356 619 524 692 454 b 527 189 692 258 623 189 b 360 356 427 189 360 258 z "},"b":{"ha":949,"x_min":0,"x_max":0,"o":"m 917 356 b 563 733 917 564 771 733 b 329 644 467 733 388 701 l 329 1194 l 83 1194 l 83 0 l 326 0 l 326 81 l 329 81 b 563 -21 382 22 465 -21 b 917 356 771 -21 917 147 z m 656 356 b 489 189 656 258 589 189 b 324 356 393 189 324 258 b 489 524 324 454 397 524 b 656 356 582 524 656 454 z "},"c":{"ha":682,"x_min":0,"x_max":0,"o":"m 463 532 b 582 499 536 532 582 499 l 665 667 b 426 733 665 667 585 733 b 32 354 219 733 32 564 b 426 -21 32 146 221 -21 b 665 43 585 -21 665 43 l 582 214 b 463 181 582 214 536 181 b 293 357 369 181 293 258 b 463 532 293 454 369 532 z "},"d":{"ha":949,"x_min":0,"x_max":0,"o":"m 32 356 b 386 -21 32 147 178 -21 b 619 81 483 -21 567 22 l 622 81 l 622 0 l 865 0 l 865 1194 l 619 1194 l 619 644 b 386 733 561 701 482 733 b 32 356 178 733 32 564 z m 293 356 b 460 524 293 454 367 524 b 625 356 551 524 625 454 b 460 189 625 258 556 189 b 293 356 360 189 293 258 z "},"e":{"ha":838,"x_min":0,"x_max":0,"o":"m 804 322 b 806 356 806 331 806 346 b 424 733 806 606 640 733 b 32 356 208 733 32 564 b 424 -21 32 149 208 -21 b 793 165 582 -21 713 31 l 615 254 b 442 175 556 190 521 175 b 288 322 379 175 288 213 z m 294 458 b 431 574 299 524 346 574 b 565 458 503 574 554 533 z "},"f":{"ha":726,"x_min":0,"x_max":0,"o":"m 174 813 l 71 813 l 71 625 l 174 625 l 174 0 l 419 0 l 419 625 l 583 625 l 583 813 l 419 813 l 419 857 b 496 997 419 956 433 997 b 569 978 536 997 569 978 l 656 1151 b 453 1215 656 1151 578 1215 b 174 864 275 1215 174 1072 z "},"g":{"ha":949,"x_min":0,"x_max":0,"o":"m 51 -175 b 446 -382 126 -349 297 -382 b 865 -19 689 -382 865 -258 l 865 713 l 619 713 l 619 649 l 615 649 b 386 733 557 703 481 733 b 32 356 178 733 32 564 b 386 -21 32 147 178 -21 b 619 51 483 -21 567 -7 l 619 -1 b 446 -168 619 -128 514 -168 b 253 -76 339 -168 279 -119 z m 293 356 b 460 524 293 454 367 524 b 625 356 551 524 625 454 b 460 189 625 258 556 189 b 293 356 360 189 293 258 z "},"h":{"ha":918,"x_min":0,"x_max":0,"o":"m 83 0 l 329 0 l 329 403 b 475 542 329 474 401 542 b 603 403 554 542 603 474 l 603 0 l 849 0 l 849 469 b 536 733 849 668 667 733 b 332 638 458 733 388 693 l 329 638 l 329 1194 l 83 1194 z "},"i":{"ha":456,"x_min":0,"x_max":0,"o":"m 103 0 l 353 0 l 353 731 l 103 731 z m 113 958 b 231 836 113 892 167 836 b 349 958 294 836 349 892 b 231 1081 349 1025 294 1081 b 113 958 167 1081 113 1025 z "},"j":{"ha":593,"x_min":0,"x_max":0,"o":"m 277 713 l 277 -62 b 209 -160 277 -129 251 -160 b 147 -139 178 -160 147 -139 l 70 -337 b 266 -382 105 -353 149 -382 b 523 -110 462 -382 523 -236 l 523 713 z m 285 947 b 403 825 285 881 340 825 b 522 947 467 825 522 881 b 403 1069 522 1014 467 1069 b 285 947 340 1069 285 1014 z "},"k":{"ha":897,"x_min":0,"x_max":0,"o":"m 897 713 l 578 713 l 329 464 l 329 1194 l 83 1194 l 83 0 l 329 0 l 329 285 l 614 0 l 931 0 l 558 372 z "},"l":{"ha":611,"x_min":0,"x_max":0,"o":"m 140 1146 l 144 333 b 313 4 143 215 198 58 b 434 0 328 -3 389 0 b 538 160 514 0 538 160 b 471 201 542 186 551 178 b 391 333 391 215 391 333 l 386 1146 z "},"m":{"ha":1368,"x_min":0,"x_max":0,"o":"m 83 0 l 329 0 l 329 417 b 443 536 329 474 361 536 b 568 403 531 536 568 474 l 568 0 l 814 0 l 814 425 b 928 536 817 479 850 536 b 1053 403 1015 536 1053 474 l 1053 0 l 1299 0 l 1299 469 b 1021 733 1299 668 1151 733 b 785 603 943 733 860 693 b 536 733 735 699 631 733 b 332 638 458 733 388 693 l 329 638 l 329 713 l 83 713 z "},"n":{"ha":918,"x_min":0,"x_max":0,"o":"m 83 0 l 329 0 l 329 403 b 475 542 329 474 401 542 b 603 403 554 542 603 474 l 603 0 l 849 0 l 849 469 b 536 733 849 668 667 733 b 332 638 458 733 388 693 l 329 638 l 329 713 l 83 713 z "},"o":{"ha":918,"x_min":0,"x_max":0,"o":"m 32 356 b 461 -21 32 136 204 -21 b 886 356 707 -21 886 136 b 461 733 886 578 697 733 b 32 356 221 733 32 578 z m 293 356 b 460 524 293 454 367 524 b 625 356 551 524 625 454 b 460 189 625 258 556 189 b 293 356 360 189 293 258 z "},"p":{"ha":949,"x_min":0,"x_max":0,"o":"m 917 357 b 563 733 917 565 771 733 b 329 632 465 733 382 690 l 326 632 l 326 713 l 83 713 l 83 -361 l 329 -361 l 329 68 b 563 -21 388 11 467 -21 b 917 357 771 -21 917 149 z m 656 357 b 489 189 656 258 582 189 b 324 357 397 189 324 258 b 489 524 324 454 393 524 b 656 357 589 524 656 454 z "},"q":{"ha":949,"x_min":0,"x_max":0,"o":"m 32 357 b 386 -21 32 149 178 -21 b 619 68 482 -21 561 11 l 619 -361 l 865 -361 l 865 713 l 622 713 l 622 632 l 619 632 b 386 733 567 690 483 733 b 32 357 178 733 32 565 z m 293 357 b 460 524 293 454 360 524 b 625 357 556 524 625 454 b 460 189 625 258 551 189 b 293 357 367 189 293 258 z "},"r":{"ha":692,"x_min":0,"x_max":0,"o":"m 83 0 l 329 0 l 329 375 b 475 519 329 393 347 519 b 603 481 557 519 603 481 l 706 689 b 550 733 706 689 642 733 b 332 610 410 733 332 610 l 329 610 l 329 713 l 83 713 z "},"s":{"ha":683,"x_min":0,"x_max":0,"o":"m 393 733 b 82 504 206 733 82 650 b 226 310 82 397 154 347 b 385 213 307 268 385 264 b 308 161 385 165 343 161 b 132 243 229 161 132 243 l 32 75 b 307 -21 32 75 135 -21 b 644 222 453 -21 644 13 b 428 450 644 368 522 421 b 317 518 367 469 317 481 b 393 561 317 551 339 561 b 551 517 468 561 551 517 l 632 678 b 393 733 632 678 531 733 z "},"t":{"ha":549,"x_min":0,"x_max":0,"o":"m 125 713 l 22 713 l 22 525 l 125 525 l 125 251 b 368 -21 125 125 172 -21 b 549 24 469 -21 549 24 l 488 222 b 426 200 488 222 458 200 b 371 299 388 200 371 232 l 371 525 l 521 525 l 521 713 l 371 713 l 371 978 l 125 978 z "},"u":{"ha":911,"x_min":0,"x_max":0,"o":"m 315 713 l 69 713 l 69 314 b 456 -21 69 75 189 -21 b 842 314 722 -21 842 75 l 842 713 l 596 713 l 596 374 b 456 179 596 233 558 179 b 315 374 353 179 315 233 z "},"v":{"ha":875,"x_min":0,"x_max":0,"o":"m 264 713 l -28 713 l 354 0 l 521 0 l 903 713 l 611 713 l 438 325 z "},"w":{"ha":1369,"x_min":0,"x_max":0,"o":"m 521 0 l 685 368 l 849 0 l 1015 0 l 1397 713 l 1114 713 l 940 328 l 769 713 l 600 713 l 429 328 l 256 713 l -28 713 l 354 0 z "},"x":{"ha":908,"x_min":0,"x_max":0,"o":"m 908 0 l 604 372 l 865 713 l 578 713 l 454 547 l 331 713 l 43 713 l 304 372 l 0 0 l 297 0 l 454 201 l 611 0 z "},"y":{"ha":879,"x_min":0,"x_max":0,"o":"m 624 713 l 454 347 l 256 713 l -28 713 l 310 111 l 64 -361 l 347 -361 l 907 713 z "},"z":{"ha":779,"x_min":0,"x_max":0,"o":"m 772 713 l 65 713 l 65 525 l 360 525 l 7 0 l 744 0 l 744 188 l 419 188 z "},"{":{"ha":619,"x_min":0,"x_max":0,"o":"m 83 351 b 181 261 143 351 181 325 l 181 -110 b 401 -361 181 -225 224 -361 l 536 -361 l 536 -183 l 481 -183 b 393 -89 432 -183 393 -144 l 393 268 b 308 417 393 346 356 392 b 393 565 356 442 393 486 l 393 922 b 481 1017 393 978 432 1017 l 536 1017 l 536 1194 l 401 1194 b 181 943 224 1194 181 1058 l 181 572 b 83 482 181 508 143 482 z "},"|":{"ha":379,"x_min":0,"x_max":0,"o":"m 83 0 l 296 0 l 296 1194 l 83 1194 z "},"}":{"ha":619,"x_min":0,"x_max":0,"o":"m 536 482 b 439 572 476 482 439 508 l 439 943 b 218 1194 439 1058 396 1194 l 83 1194 l 83 1017 l 139 1017 b 226 922 188 1017 226 978 l 226 565 b 311 417 226 486 264 442 b 226 268 264 392 226 346 l 226 -89 b 139 -183 226 -144 188 -183 l 83 -183 l 83 -361 l 218 -361 b 439 -110 396 -361 439 -225 l 439 261 b 536 351 439 325 476 351 z "},"~":{"ha":964,"x_min":0,"x_max":0,"o":"m 751 724 b 635 615 751 724 715 615 b 536 658 604 615 569 636 b 329 733 479 694 422 733 b 83 543 174 733 83 543 l 213 431 b 329 539 213 431 249 539 b 431 494 363 539 397 517 b 635 421 488 457 546 421 b 881 611 790 421 881 611 z "},"¡":{"ha":440,"x_min":0,"x_max":0,"o":"m 106 650 b 224 528 106 583 160 528 b 342 650 288 528 342 583 b 224 772 342 717 288 772 b 106 650 160 772 106 717 z m 97 -361 l 343 -361 l 310 458 l 131 458 z "},"¢":{"ha":682,"x_min":0,"x_max":0,"o":"m 344 -179 l 494 -179 l 494 -17 b 665 43 606 -1 665 43 l 582 214 b 463 181 582 214 536 181 b 293 357 369 181 293 258 b 463 532 293 454 369 532 b 582 499 536 532 582 499 l 665 667 b 453 732 665 667 593 725 l 453 883 l 303 883 l 303 713 b 32 354 150 663 32 521 b 344 -11 32 174 174 25 z "},"£":{"ha":1040,"x_min":0,"x_max":0,"o":"m 76 538 l 76 401 l 285 401 b 301 328 294 378 301 354 b 279 247 301 296 297 274 b 76 0 154 247 76 75 l 236 0 b 301 60 236 0 244 60 b 733 -21 432 60 561 -21 b 988 185 956 -21 988 185 l 797 279 b 704 179 797 279 783 179 b 486 225 601 179 508 225 b 525 338 486 225 525 272 b 521 401 525 361 524 382 l 711 401 l 711 538 l 471 538 b 404 775 440 606 404 661 b 536 957 404 881 450 957 b 697 797 671 957 697 797 l 917 904 b 536 1168 917 904 861 1168 b 146 775 279 1168 146 992 b 218 538 146 671 179 599 z "},"¤":{"ha":1243,"x_min":0,"x_max":0,"o":"m 1168 168 l 1039 288 b 1120 572 1090 368 1120 466 b 1038 854 1120 678 1090 774 l 1169 995 l 1034 1113 l 915 984 b 630 1077 835 1043 736 1077 b 329 971 517 1077 412 1038 l 192 1098 l 74 963 l 211 837 b 139 572 165 760 139 670 b 229 271 139 458 171 354 l 104 136 l 239 19 l 357 146 b 630 67 433 96 526 67 b 916 158 739 67 837 101 l 1051 34 z m 378 572 b 630 863 378 718 459 863 b 880 572 802 863 880 718 b 630 282 880 427 807 282 b 378 572 454 282 378 431 z "},"¥":{"ha":1061,"x_min":0,"x_max":0,"o":"m 104 153 l 400 153 l 400 0 l 661 0 l 661 153 l 956 153 l 956 338 l 661 338 l 661 421 l 956 421 l 956 606 l 722 606 l 1083 1146 l 769 1146 l 531 779 l 292 1146 l -22 1146 l 339 606 l 104 606 l 104 421 l 400 421 l 400 338 l 104 338 z "},"¦":{"ha":379,"x_min":0,"x_max":0,"o":"m 83 733 l 296 733 l 296 1194 l 83 1194 z m 83 0 l 296 0 l 296 461 l 83 461 z "},"§":{"ha":889,"x_min":0,"x_max":0,"o":"m 400 -382 b 788 -92 706 -382 788 -211 b 664 151 788 21 746 90 b 850 401 779 203 844 297 b 576 732 850 560 744 653 b 365 885 456 788 365 829 b 453 961 365 928 394 961 b 565 871 558 961 565 871 l 788 918 b 453 1167 788 918 749 1167 b 94 876 203 1167 94 1026 b 218 633 94 763 135 693 b 32 383 103 582 38 488 b 306 53 32 225 138 132 b 514 -100 426 -3 514 -43 b 400 -176 514 -140 485 -176 b 254 -69 286 -176 254 -69 l 32 -117 b 400 -382 32 -117 76 -382 z m 415 525 b 439 514 422 521 431 518 b 622 361 522 475 618 429 b 499 244 618 293 558 260 l 467 260 b 443 271 460 264 451 267 b 260 424 360 310 264 356 b 382 540 264 490 324 524 z "},"¨":{"ha":783,"x_min":0,"x_max":0,"o":"m 227 1099 b 99 971 156 1099 99 1042 b 227 843 99 900 156 843 b 355 971 298 843 355 900 b 227 1099 355 1042 298 1099 z m 556 1099 b 428 971 485 1099 428 1042 b 556 843 428 900 485 843 b 684 971 627 843 684 900 b 556 1099 684 1042 627 1099 z "},"©":{"ha":1251,"x_min":0,"x_max":0,"o":"m 32 572 b 625 -21 32 246 299 -21 b 1219 572 953 -21 1219 246 b 625 1167 1219 900 953 1167 b 32 572 299 1167 32 900 z m 190 572 b 625 1008 190 813 386 1008 b 1061 572 865 1008 1061 813 b 625 138 1061 333 865 138 b 190 572 386 138 190 333 z m 681 717 b 774 694 726 717 774 694 l 833 818 b 651 867 829 822 769 867 b 349 574 494 867 349 736 b 651 286 349 414 494 286 b 833 332 758 286 833 332 b 772 457 813 376 793 413 b 681 435 765 453 733 435 b 544 576 606 435 544 496 b 681 717 544 654 606 717 z "},"ª":{"ha":711,"x_min":0,"x_max":0,"o":"m 97 932 b 317 700 97 804 188 700 b 463 763 378 700 429 726 l 464 763 l 464 713 l 614 713 l 614 1153 l 463 1153 l 463 1111 b 317 1167 425 1146 376 1167 b 97 932 188 1167 97 1061 z m 260 932 b 363 1036 260 993 306 1036 b 465 932 419 1036 465 993 b 363 829 465 872 422 829 b 260 932 301 829 260 872 z "},"«":{"ha":868,"x_min":0,"x_max":0,"o":"m 317 39 l 446 140 l 254 386 l 446 632 l 317 733 l 46 386 z m 664 39 l 793 140 l 601 386 l 793 632 l 664 733 l 393 386 z "},"¬":{"ha":919,"x_min":0,"x_max":0,"o":"m 710 400 l 710 274 l 816 274 l 816 400 l 816 518 l 710 518 l 103 518 l 103 400 z "},"­":{"ha":567,"x_min":0,"x_max":0,"o":"m 104 535 l 104 322 l 462 322 l 462 535 z "},"®":{"ha":686,"x_min":0,"x_max":0,"o":"m 32 854 b 342 544 32 683 172 544 b 654 854 515 544 654 683 b 342 1167 654 1026 515 1167 b 32 854 172 1167 32 1026 z m 115 854 b 342 1083 115 981 218 1083 b 571 854 469 1083 571 981 b 342 628 571 729 469 628 b 115 854 218 628 115 729 z m 247 1000 l 247 713 l 313 713 l 313 826 l 400 713 l 486 713 l 385 832 b 443 915 419 844 443 871 b 349 1000 443 971 403 1000 z m 313 872 l 313 949 l 321 949 b 372 910 344 949 372 946 b 321 872 372 875 344 872 z "},"¯":{"ha":761,"x_min":0,"x_max":0,"o":"m 97 1047 l 97 881 l 664 881 l 664 1047 z "},"°":{"ha":517,"x_min":0,"x_max":0,"o":"m 97 1072 b 258 929 97 989 163 929 b 419 1072 353 929 419 989 b 258 1215 419 1157 349 1215 b 97 1072 168 1215 97 1157 z m 199 1072 b 258 1135 199 1108 225 1135 b 319 1072 293 1135 319 1108 b 258 1008 319 1038 293 1008 b 199 1072 222 1008 199 1038 z "},"±":{"ha":879,"x_min":0,"x_max":0,"o":"m 546 289 l 546 504 l 796 504 l 796 717 l 546 717 l 546 932 l 333 932 l 333 717 l 83 717 l 83 504 l 333 504 l 333 289 z m 83 213 l 83 0 l 796 0 l 796 213 z "},"²":{"ha":371,"x_min":0,"x_max":0,"o":"m 211 1081 b 275 1010 271 1081 275 1026 b 44 738 275 928 44 738 l 44 713 l 393 713 l 393 801 l 228 801 b 385 1010 228 801 385 906 b 211 1167 385 1067 365 1167 b 47 1038 90 1167 47 1038 l 132 996 b 211 1081 132 996 163 1081 z "},"³":{"ha":351,"x_min":0,"x_max":0,"o":"m 113 1033 b 178 1088 113 1033 122 1088 b 232 1039 206 1088 232 1067 b 179 983 232 1007 206 983 l 158 983 l 158 918 b 176 921 158 918 167 921 b 240 857 213 921 240 894 b 176 799 240 819 214 799 b 106 865 111 799 106 865 l 13 821 b 178 713 13 821 43 713 b 339 857 271 713 339 772 b 283 957 339 903 318 936 b 322 1039 308 976 322 1003 b 179 1167 322 1114 263 1167 b 35 1071 57 1167 35 1071 z "},"´":{"ha":786,"x_min":0,"x_max":0,"o":"m 189 922 l 267 815 l 597 1007 l 471 1167 z "},"µ":{"ha":979,"x_min":0,"x_max":0,"o":"m 349 374 l 349 713 l 103 713 l 103 314 l 103 -185 l 349 -185 l 349 -9 b 490 -21 391 -17 437 -21 b 876 314 756 -21 876 75 l 876 713 l 630 713 l 630 374 b 490 179 630 233 592 179 b 349 374 387 179 349 233 z "},"¶":{"ha":983,"x_min":0,"x_max":0,"o":"m 757 0 l 900 0 l 900 1146 l 396 1146 b 32 793 172 1146 32 989 b 396 425 32 599 172 425 l 529 425 l 529 0 l 672 0 l 672 1001 l 757 1001 z "},"·":{"ha":436,"x_min":0,"x_max":0,"o":"m 100 471 b 218 349 100 404 154 349 b 336 471 282 349 336 404 b 218 593 336 538 282 593 b 100 471 154 593 100 538 z "},"¸":{"ha":619,"x_min":0,"x_max":0,"o":"m 374 6 l 276 36 l 210 -168 l 224 -179 b 294 -167 224 -179 244 -167 b 381 -229 333 -167 381 -186 b 311 -283 381 -256 363 -283 b 197 -218 247 -283 197 -218 l 97 -293 b 311 -408 97 -293 186 -408 b 522 -229 465 -408 522 -317 b 343 -87 522 -133 419 -87 z "},"¹":{"ha":194,"x_min":0,"x_max":0,"o":"m 13 968 l 83 1014 l 83 713 l 182 713 l 182 1146 l 135 1146 l 13 1067 z "},"º":{"ha":724,"x_min":0,"x_max":0,"o":"m 97 932 b 364 700 97 797 204 700 b 626 932 515 700 626 797 b 364 1167 626 1069 510 1167 b 97 932 215 1167 97 1069 z m 260 932 b 363 1036 260 993 306 1036 b 465 932 419 1036 465 993 b 363 829 465 872 422 829 b 260 932 300 829 260 872 z "},"»":{"ha":868,"x_min":0,"x_max":0,"o":"m 204 733 l 75 632 l 267 386 l 75 140 l 204 39 l 475 386 z m 422 140 l 551 39 l 822 386 l 551 733 l 422 632 l 614 386 z "},"¼":{"ha":1217,"x_min":0,"x_max":0,"o":"m 83 872 l 193 944 l 193 479 l 344 479 l 344 1146 l 272 1146 l 83 1024 z m 971 1146 l 807 1146 l 140 0 l 304 0 z m 1093 274 l 1093 667 l 943 667 l 622 186 l 622 140 l 950 140 l 950 0 l 1093 0 l 1093 140 l 1169 140 l 1169 274 z m 950 464 l 950 274 l 831 274 l 949 464 z "},"½":{"ha":1313,"x_min":0,"x_max":0,"o":"m 83 872 l 193 944 l 193 479 l 344 479 l 344 1146 l 272 1146 l 83 1024 z m 971 1146 l 807 1146 l 140 0 l 304 0 z m 986 543 b 1081 439 1075 543 1081 463 b 742 38 1081 317 742 38 l 742 0 l 1254 0 l 1254 132 l 1010 132 b 1242 439 1010 132 1242 285 b 986 669 1242 521 1213 669 b 744 478 808 669 744 478 l 869 418 b 986 543 869 418 915 543 z "},"¾":{"ha":1357,"x_min":0,"x_max":0,"o":"m 197 951 b 294 1032 197 951 213 1032 b 375 960 336 1032 375 1001 b 297 878 375 913 336 878 l 265 878 l 265 781 b 293 785 265 781 278 785 b 388 690 346 785 388 746 b 293 604 388 635 347 604 b 188 703 196 604 188 703 l 50 636 b 294 475 50 636 93 475 b 536 690 433 475 536 565 b 453 839 536 758 503 808 b 510 961 489 867 510 907 b 297 1150 510 1072 421 1150 b 81 1008 114 1150 81 1008 z m 1111 1146 l 947 1146 l 281 0 l 444 0 z m 1233 274 l 1233 667 l 1083 667 l 763 186 l 763 140 l 1090 140 l 1090 0 l 1233 0 l 1233 140 l 1310 140 l 1310 274 z m 1090 464 l 1090 274 l 971 274 l 1089 464 z "},"¿":{"ha":933,"x_min":0,"x_max":0,"o":"m 368 593 b 486 471 368 526 422 471 b 604 593 550 471 604 526 b 486 715 604 660 550 715 b 368 593 422 715 368 660 z m 849 -119 l 644 -21 b 481 -164 629 -81 581 -164 b 368 -50 418 -164 368 -117 b 532 107 368 49 447 53 b 597 258 594 147 597 197 l 597 410 l 368 410 l 368 332 b 319 226 368 286 367 247 b 85 -50 186 169 85 86 b 479 -382 85 -246 271 -382 b 849 -119 789 -382 849 -126 z "},"À":{"ha":1089,"x_min":0,"x_max":0,"o":"m 343 1600 l 217 1440 l 547 1249 l 625 1356 z m 665 1146 l 424 1146 l -39 0 l 242 0 l 326 229 l 763 229 l 847 0 l 1128 0 z m 674 458 l 415 458 l 543 792 l 546 792 z "},"Á":{"ha":1089,"x_min":0,"x_max":0,"o":"m 463 1356 l 540 1249 l 871 1440 l 744 1600 z m 665 1146 l 424 1146 l -39 0 l 242 0 l 326 229 l 763 229 l 847 0 l 1128 0 z m 674 458 l 415 458 l 543 792 l 546 792 z "},"Â":{"ha":1089,"x_min":0,"x_max":0,"o":"m 238 1375 l 332 1249 l 544 1404 l 757 1249 l 851 1375 l 544 1600 z m 665 1146 l 424 1146 l -39 0 l 242 0 l 326 229 l 763 229 l 847 0 l 1128 0 z m 674 458 l 415 458 l 543 792 l 546 792 z "},"Ã":{"ha":1089,"x_min":0,"x_max":0,"o":"m 532 1325 b 676 1288 532 1325 622 1288 b 865 1526 829 1288 865 1526 l 725 1526 b 663 1463 725 1526 707 1463 b 557 1489 613 1463 557 1489 b 413 1526 557 1489 467 1526 b 224 1288 260 1526 224 1288 l 364 1288 b 426 1351 364 1288 382 1351 b 532 1325 476 1351 532 1325 z m 665 1146 l 424 1146 l -39 0 l 242 0 l 326 229 l 763 229 l 847 0 l 1128 0 z m 674 458 l 415 458 l 543 792 l 546 792 z "},"Ä":{"ha":1089,"x_min":0,"x_max":0,"o":"m 379 1532 b 251 1404 308 1532 251 1475 b 379 1276 251 1333 308 1276 b 507 1404 450 1276 507 1333 b 379 1532 507 1475 450 1532 z m 708 1532 b 581 1404 638 1532 581 1475 b 708 1276 581 1333 638 1276 b 836 1404 779 1276 836 1333 b 708 1532 836 1475 779 1532 z m 665 1146 l 424 1146 l -39 0 l 242 0 l 326 229 l 763 229 l 847 0 l 1128 0 z m 674 458 l 415 458 l 543 792 l 546 792 z "},"Å":{"ha":1089,"x_min":0,"x_max":0,"o":"m 321 1451 b 544 1253 321 1335 411 1253 b 768 1451 675 1253 768 1335 b 544 1649 768 1567 671 1649 b 321 1451 419 1649 321 1567 z m 460 1451 b 544 1538 460 1499 499 1538 b 629 1451 592 1538 629 1499 b 544 1363 629 1403 593 1363 b 460 1451 494 1363 460 1403 z m 665 1146 l 424 1146 l -39 0 l 242 0 l 326 229 l 763 229 l 847 0 l 1128 0 z m 674 458 l 415 458 l 543 792 l 546 792 z "},"Æ":{"ha":1800,"x_min":0,"x_max":0,"o":"m 559 229 l 894 229 l 894 0 l 1713 0 l 1713 229 l 1220 229 l 1220 460 l 1693 460 l 1693 689 l 1220 689 l 1220 917 l 1713 917 l 1713 1146 l 741 1146 l 87 0 l 437 0 z m 894 458 l 673 458 l 890 878 l 894 878 z "},"Ç":{"ha":1046,"x_min":0,"x_max":0,"o":"m 693 236 b 315 574 431 236 315 419 b 693 910 315 726 431 910 b 918 839 826 910 918 839 l 1029 1061 b 653 1167 1029 1061 901 1167 b 32 571 328 1167 32 900 b 469 7 32 306 225 83 l 413 -168 l 426 -179 b 497 -167 426 -179 447 -167 b 583 -229 536 -167 583 -186 b 514 -283 583 -256 565 -283 b 400 -218 450 -283 400 -218 l 300 -293 b 514 -408 300 -293 389 -408 b 725 -229 668 -408 725 -317 b 546 -87 725 -133 622 -87 l 569 -15 b 653 -21 597 -19 625 -21 b 1029 85 901 -21 1029 85 l 918 307 b 693 236 918 307 826 236 z "},"È":{"ha":806,"x_min":0,"x_max":0,"o":"m 201 1600 l 75 1440 l 406 1249 l 483 1356 z m 739 1146 l 83 1146 l 83 0 l 739 0 l 739 229 l 344 229 l 344 460 l 722 460 l 722 689 l 344 689 l 344 917 l 739 917 z "},"É":{"ha":806,"x_min":0,"x_max":0,"o":"m 239 1356 l 317 1249 l 647 1440 l 521 1600 z m 739 1146 l 83 1146 l 83 0 l 739 0 l 739 229 l 344 229 l 344 460 l 722 460 l 722 689 l 344 689 l 344 917 l 739 917 z "},"Ê":{"ha":806,"x_min":0,"x_max":0,"o":"m 96 1375 l 190 1249 l 403 1404 l 615 1249 l 710 1375 l 403 1600 z m 739 1146 l 83 1146 l 83 0 l 739 0 l 739 229 l 344 229 l 344 460 l 722 460 l 722 689 l 344 689 l 344 917 l 739 917 z "},"Ë":{"ha":806,"x_min":0,"x_max":0,"o":"m 238 1532 b 110 1404 167 1532 110 1475 b 238 1276 110 1333 167 1276 b 365 1404 308 1276 365 1333 b 238 1532 365 1475 308 1532 z m 567 1532 b 439 1404 496 1532 439 1475 b 567 1276 439 1333 496 1276 b 694 1404 638 1276 694 1333 b 567 1532 694 1475 638 1532 z m 739 1146 l 83 1146 l 83 0 l 739 0 l 739 229 l 344 229 l 344 460 l 722 460 l 722 689 l 344 689 l 344 917 l 739 917 z "},"Ì":{"ha":428,"x_min":0,"x_max":0,"o":"m 13 1600 l -114 1440 l 217 1249 l 294 1356 z m 344 1146 l 83 1146 l 83 0 l 344 0 z "},"Í":{"ha":428,"x_min":0,"x_max":0,"o":"m 78 1356 l 156 1249 l 486 1440 l 360 1600 z m 344 1146 l 83 1146 l 83 0 l 344 0 z "},"Î":{"ha":428,"x_min":0,"x_max":0,"o":"m -93 1375 l 1 1249 l 214 1404 l 426 1249 l 521 1375 l 214 1600 z m 344 1146 l 83 1146 l 83 0 l 344 0 z "},"Ï":{"ha":428,"x_min":0,"x_max":0,"o":"m 50 1532 b -78 1404 -21 1532 -78 1475 b 50 1276 -78 1333 -21 1276 b 178 1404 121 1276 178 1333 b 50 1532 178 1475 121 1532 z m 379 1532 b 251 1404 308 1532 251 1475 b 379 1276 251 1333 308 1276 b 507 1404 450 1276 507 1333 b 379 1532 507 1475 450 1532 z m 344 1146 l 83 1146 l 83 0 l 344 0 z "},"Ð":{"ha":1217,"x_min":0,"x_max":0,"o":"m 210 679 l 97 641 l 97 516 l 210 467 l 210 0 l 542 0 b 1120 574 858 0 1120 239 b 542 1146 1120 907 856 1146 l 210 1146 z m 472 679 l 472 913 l 512 913 b 838 572 706 913 838 764 b 512 233 837 381 705 233 l 472 233 l 472 467 l 631 516 l 631 641 z "},"Ñ":{"ha":1147,"x_min":0,"x_max":0,"o":"m 561 1325 b 706 1288 561 1325 651 1288 b 894 1526 858 1288 894 1526 l 754 1526 b 692 1463 754 1526 736 1463 b 586 1489 642 1463 586 1489 b 442 1526 586 1489 496 1526 b 253 1288 289 1526 253 1288 l 393 1288 b 456 1351 393 1288 411 1351 b 561 1325 506 1351 561 1325 z m 344 711 l 347 711 l 803 0 l 1064 0 l 1064 1146 l 803 1146 l 803 435 l 800 435 l 344 1146 l 83 1146 l 83 0 l 344 0 z "},"Ò":{"ha":1218,"x_min":0,"x_max":0,"o":"m 407 1600 l 281 1440 l 611 1249 l 689 1356 z m 32 574 b 610 -21 32 239 271 -21 b 1186 574 939 -21 1186 239 b 610 1167 1186 908 928 1167 b 32 574 294 1167 32 908 z m 314 574 b 610 915 314 744 408 915 b 904 574 813 915 904 744 b 610 232 904 403 818 232 b 314 574 396 232 314 403 z "},"Ó":{"ha":1218,"x_min":0,"x_max":0,"o":"m 472 1356 l 550 1249 l 881 1440 l 754 1600 z m 32 574 b 610 -21 32 239 271 -21 b 1186 574 939 -21 1186 239 b 610 1167 1186 908 928 1167 b 32 574 294 1167 32 908 z m 314 574 b 610 915 314 744 408 915 b 904 574 813 915 904 744 b 610 232 904 403 818 232 b 314 574 396 232 314 403 z "},"Ô":{"ha":1218,"x_min":0,"x_max":0,"o":"m 301 1375 l 396 1249 l 608 1404 l 821 1249 l 915 1375 l 608 1600 z m 32 574 b 610 -21 32 239 271 -21 b 1186 574 939 -21 1186 239 b 610 1167 1186 908 928 1167 b 32 574 294 1167 32 908 z m 314 574 b 610 915 314 744 408 915 b 904 574 813 915 904 744 b 610 232 904 403 818 232 b 314 574 396 232 314 403 z "},"Õ":{"ha":1218,"x_min":0,"x_max":0,"o":"m 596 1325 b 740 1288 596 1325 686 1288 b 929 1526 893 1288 929 1526 l 789 1526 b 726 1463 789 1526 771 1463 b 621 1489 676 1463 621 1489 b 476 1526 621 1489 531 1526 b 288 1288 324 1526 288 1288 l 428 1288 b 490 1351 428 1288 446 1351 b 596 1325 540 1351 596 1325 z m 32 574 b 610 -21 32 239 271 -21 b 1186 574 939 -21 1186 239 b 610 1167 1186 908 928 1167 b 32 574 294 1167 32 908 z m 314 574 b 610 915 314 744 408 915 b 904 574 813 915 904 744 b 610 232 904 403 818 232 b 314 574 396 232 314 403 z "},"Ö":{"ha":1218,"x_min":0,"x_max":0,"o":"m 444 1532 b 317 1404 374 1532 317 1475 b 444 1276 317 1333 374 1276 b 572 1404 515 1276 572 1333 b 444 1532 572 1475 515 1532 z m 774 1532 b 646 1404 703 1532 646 1475 b 774 1276 646 1333 703 1276 b 901 1404 844 1276 901 1333 b 774 1532 901 1475 844 1532 z m 32 574 b 610 -21 32 239 271 -21 b 1186 574 939 -21 1186 239 b 610 1167 1186 908 928 1167 b 32 574 294 1167 32 908 z m 314 574 b 610 915 314 744 408 915 b 904 574 813 915 904 744 b 610 232 904 403 818 232 b 314 574 396 232 314 403 z "},"×":{"ha":879,"x_min":0,"x_max":0,"o":"m 801 364 l 589 575 l 801 788 l 651 938 l 439 726 l 228 938 l 78 789 l 289 576 l 78 365 l 228 214 l 440 426 l 653 214 z "},"Ø":{"ha":1218,"x_min":0,"x_max":0,"o":"m 93 82 l 249 -37 l 319 53 b 610 -21 403 6 501 -21 b 1186 574 939 -21 1186 239 b 1044 964 1186 725 1132 861 l 1125 1065 l 969 1185 l 894 1090 b 610 1167 810 1139 713 1167 b 32 574 294 1167 32 908 b 169 178 32 419 82 282 z m 314 574 b 610 915 314 744 408 915 b 733 889 657 915 699 906 l 346 400 b 314 574 324 453 314 514 z m 904 574 b 610 232 904 403 818 232 b 482 257 560 232 518 240 l 869 744 b 904 574 893 692 904 632 z "},"Ù":{"ha":1033,"x_min":0,"x_max":0,"o":"m 315 1600 l 189 1440 l 519 1249 l 597 1356 z m 703 1146 l 964 1146 l 964 407 b 517 -21 964 124 808 -21 b 69 407 225 -21 69 124 l 69 1146 l 331 1146 l 331 483 b 517 236 331 292 389 236 b 703 483 644 236 703 292 z "},"Ú":{"ha":1033,"x_min":0,"x_max":0,"o":"m 353 1356 l 431 1249 l 761 1440 l 635 1600 z m 703 1146 l 964 1146 l 964 407 b 517 -21 964 124 808 -21 b 69 407 225 -21 69 124 l 69 1146 l 331 1146 l 331 483 b 517 236 331 292 389 236 b 703 483 644 236 703 292 z "},"Û":{"ha":1033,"x_min":0,"x_max":0,"o":"m 210 1375 l 304 1249 l 517 1404 l 729 1249 l 824 1375 l 517 1600 z m 703 1146 l 964 1146 l 964 407 b 517 -21 964 124 808 -21 b 69 407 225 -21 69 124 l 69 1146 l 331 1146 l 331 483 b 517 236 331 292 389 236 b 703 483 644 236 703 292 z "},"Ü":{"ha":1033,"x_min":0,"x_max":0,"o":"m 351 1532 b 224 1404 281 1532 224 1475 b 351 1276 224 1333 281 1276 b 479 1404 422 1276 479 1333 b 351 1532 479 1475 422 1532 z m 681 1532 b 553 1404 610 1532 553 1475 b 681 1276 553 1333 610 1276 b 808 1404 751 1276 808 1333 b 681 1532 808 1475 751 1532 z m 703 1146 l 964 1146 l 964 407 b 517 -21 964 124 808 -21 b 69 407 225 -21 69 124 l 69 1146 l 331 1146 l 331 483 b 517 236 331 292 389 236 b 703 483 644 236 703 292 z "},"Ý":{"ha":1022,"x_min":0,"x_max":0,"o":"m 349 1356 l 426 1249 l 757 1440 l 631 1600 z m -42 1146 l 381 514 l 381 0 l 642 0 l 642 514 l 1064 1146 l 750 1146 l 511 779 l 272 1146 z "},"Þ":{"ha":925,"x_min":0,"x_max":0,"o":"m 344 1146 l 83 1146 l 83 0 l 344 0 l 344 213 l 501 213 b 893 581 725 213 893 344 b 501 933 893 818 725 933 l 344 933 z m 344 421 l 344 725 l 418 725 b 611 572 521 725 611 689 b 418 421 611 457 521 421 z "},"ß":{"ha":911,"x_min":0,"x_max":0,"o":"m 453 -21 b 879 354 700 -21 879 135 b 696 639 879 494 807 588 b 835 875 781 686 835 765 b 476 1215 835 1067 690 1211 b 125 864 290 1215 125 1072 l 125 639 l 125 451 l 125 0 l 371 0 l 371 883 b 476 1008 371 965 429 1008 b 603 875 557 1008 603 958 b 453 728 603 788 533 728 l 453 540 b 618 367 558 540 618 469 b 453 204 618 269 549 204 z "},"à":{"ha":949,"x_min":0,"x_max":0,"o":"m 272 1167 l 146 1007 l 476 815 l 554 922 z m 32 356 b 386 733 32 564 178 733 b 619 644 482 733 561 701 l 619 713 l 865 713 l 865 0 l 622 0 l 622 81 l 619 81 b 386 -21 567 22 483 -21 b 32 356 178 -21 32 147 z m 293 356 b 460 189 293 258 360 189 b 625 356 556 189 625 258 b 460 524 625 454 551 524 b 293 356 367 524 293 454 z "},"á":{"ha":949,"x_min":0,"x_max":0,"o":"m 393 922 l 471 815 l 801 1007 l 675 1167 z m 32 356 b 386 733 32 564 178 733 b 619 644 482 733 561 701 l 619 713 l 865 713 l 865 0 l 622 0 l 622 81 l 619 81 b 386 -21 567 22 483 -21 b 32 356 178 -21 32 147 z m 293 356 b 460 189 293 258 360 189 b 625 356 556 189 625 258 b 460 524 625 454 551 524 b 293 356 367 524 293 454 z "},"â":{"ha":949,"x_min":0,"x_max":0,"o":"m 167 942 l 261 815 l 474 971 l 686 815 l 781 942 l 474 1167 z m 32 356 b 386 733 32 564 178 733 b 619 644 482 733 561 701 l 619 713 l 865 713 l 865 0 l 622 0 l 622 81 l 619 81 b 386 -21 567 22 483 -21 b 32 356 178 -21 32 147 z m 293 356 b 460 189 293 258 360 189 b 625 356 556 189 625 258 b 460 524 625 454 551 524 b 293 356 367 524 293 454 z "},"ã":{"ha":949,"x_min":0,"x_max":0,"o":"m 461 892 b 606 854 461 892 551 854 b 794 1093 758 854 794 1093 l 654 1093 b 592 1029 654 1093 636 1029 b 486 1056 542 1029 486 1056 b 342 1093 486 1056 396 1093 b 153 854 189 1093 153 854 l 293 854 b 356 918 293 854 311 918 b 461 892 406 918 461 892 z m 32 356 b 386 733 32 564 178 733 b 619 644 482 733 561 701 l 619 713 l 865 713 l 865 0 l 622 0 l 622 81 l 619 81 b 386 -21 567 22 483 -21 b 32 356 178 -21 32 147 z m 293 356 b 460 189 293 258 360 189 b 625 356 556 189 625 258 b 460 524 625 454 551 524 b 293 356 367 524 293 454 z "},"ä":{"ha":949,"x_min":0,"x_max":0,"o":"m 310 1099 b 182 971 239 1099 182 1042 b 310 843 182 900 239 843 b 438 971 381 843 438 900 b 310 1099 438 1042 381 1099 z m 639 1099 b 511 971 568 1099 511 1042 b 639 843 511 900 568 843 b 767 971 710 843 767 900 b 639 1099 767 1042 710 1099 z m 32 356 b 386 733 32 564 178 733 b 619 644 482 733 561 701 l 619 713 l 865 713 l 865 0 l 622 0 l 622 81 l 619 81 b 386 -21 567 22 483 -21 b 32 356 178 -21 32 147 z m 293 356 b 460 189 293 258 360 189 b 625 356 556 189 625 258 b 460 524 625 454 551 524 b 293 356 367 524 293 454 z "},"å":{"ha":949,"x_min":0,"x_max":0,"o":"m 250 1018 b 474 819 250 901 340 819 b 697 1018 604 819 697 901 b 474 1215 697 1133 600 1215 b 250 1018 349 1215 250 1133 z m 389 1018 b 474 1104 389 1065 428 1104 b 558 1018 521 1104 558 1065 b 474 929 558 969 522 929 b 389 1018 424 929 389 969 z m 32 356 b 386 -21 32 147 178 -21 b 619 81 483 -21 567 22 l 622 81 l 622 0 l 865 0 l 865 713 l 619 713 l 619 644 b 386 733 561 701 482 733 b 32 356 178 733 32 564 z m 293 356 b 460 524 293 454 367 524 b 625 356 551 524 625 454 b 460 189 625 258 556 189 b 293 356 360 189 293 258 z "},"æ":{"ha":1407,"x_min":0,"x_max":0,"o":"m 204 496 b 397 538 204 496 269 538 b 553 415 468 538 553 493 l 553 364 b 335 418 521 386 453 418 b 81 189 174 418 81 317 b 344 -21 81 60 196 -21 b 649 110 563 -21 649 110 b 944 -21 721 29 826 -21 b 1314 165 1103 -21 1233 31 l 1136 254 b 963 175 1076 190 1042 175 b 808 322 900 175 808 213 l 1325 322 b 1326 356 1326 331 1326 346 b 944 733 1326 606 1161 733 b 692 644 849 733 760 700 b 397 733 606 713 483 733 b 126 664 215 733 126 664 z m 815 458 b 951 574 819 524 867 574 b 1086 458 1024 574 1075 533 z m 325 210 b 435 288 325 260 369 288 b 553 210 500 288 553 251 b 435 126 553 168 500 126 b 325 210 369 126 325 160 z "},"ç":{"ha":682,"x_min":0,"x_max":0,"o":"m 246 -168 l 260 -179 b 331 -167 260 -179 281 -167 b 417 -229 369 -167 417 -186 b 347 -283 417 -256 399 -283 b 233 -218 283 -283 233 -218 l 133 -293 b 347 -408 133 -293 222 -408 b 558 -229 501 -408 558 -317 b 379 -87 558 -133 456 -87 l 401 -19 b 426 -21 410 -21 418 -21 b 665 43 585 -21 665 43 l 582 214 b 463 181 582 214 536 181 b 293 357 369 181 293 258 b 463 532 293 454 369 532 b 582 499 536 532 582 499 l 665 667 b 426 733 665 667 585 733 b 32 354 219 733 32 564 b 300 0 32 189 150 50 z "},"è":{"ha":838,"x_min":0,"x_max":0,"o":"m 217 1167 l 90 1007 l 421 815 l 499 922 z m 804 322 b 806 356 806 331 806 346 b 424 733 806 606 640 733 b 32 356 208 733 32 564 b 424 -21 32 149 208 -21 b 793 165 582 -21 713 31 l 615 254 b 442 175 556 190 521 175 b 288 322 379 175 288 213 z m 294 458 b 431 574 299 524 346 574 b 565 458 503 574 554 533 z "},"é":{"ha":838,"x_min":0,"x_max":0,"o":"m 338 922 l 415 815 l 746 1007 l 619 1167 z m 804 322 b 806 356 806 331 806 346 b 424 733 806 606 640 733 b 32 356 208 733 32 564 b 424 -21 32 149 208 -21 b 793 165 582 -21 713 31 l 615 254 b 442 175 556 190 521 175 b 288 322 379 175 288 213 z m 294 458 b 431 574 299 524 346 574 b 565 458 503 574 554 533 z "},"ê":{"ha":838,"x_min":0,"x_max":0,"o":"m 111 942 l 206 815 l 418 971 l 631 815 l 725 942 l 418 1167 z m 804 322 b 806 356 806 331 806 346 b 424 733 806 606 640 733 b 32 356 208 733 32 564 b 424 -21 32 149 208 -21 b 793 165 582 -21 713 31 l 615 254 b 442 175 556 190 521 175 b 288 322 379 175 288 213 z m 294 458 b 431 574 299 524 346 574 b 565 458 503 574 554 533 z "},"ë":{"ha":838,"x_min":0,"x_max":0,"o":"m 254 1099 b 126 971 183 1099 126 1042 b 254 843 126 900 183 843 b 382 971 325 843 382 900 b 254 1099 382 1042 325 1099 z m 583 1099 b 456 971 513 1099 456 1042 b 583 843 456 900 513 843 b 711 971 654 843 711 900 b 583 1099 711 1042 654 1099 z m 804 322 b 806 356 806 331 806 346 b 424 733 806 606 640 733 b 32 356 208 733 32 564 b 424 -21 32 149 208 -21 b 793 165 582 -21 713 31 l 615 254 b 442 175 556 190 521 175 b 288 322 379 175 288 213 z m 294 458 b 431 574 299 524 346 574 b 565 458 503 574 554 533 z "},"ì":{"ha":413,"x_min":0,"x_max":0,"o":"m 6 1167 l -121 1007 l 210 815 l 288 922 z m 83 713 l 329 713 l 329 0 l 83 0 z "},"í":{"ha":413,"x_min":0,"x_max":0,"o":"m 125 922 l 203 815 l 533 1007 l 407 1167 z m 83 713 l 329 713 l 329 0 l 83 0 z "},"î":{"ha":413,"x_min":0,"x_max":0,"o":"m -100 942 l -6 815 l 207 971 l 419 815 l 514 942 l 207 1167 z m 83 713 l 329 713 l 329 0 l 83 0 z "},"ï":{"ha":413,"x_min":0,"x_max":0,"o":"m 42 1099 b -86 971 -29 1099 -86 1042 b 42 843 -86 900 -29 843 b 169 971 113 843 169 900 b 42 1099 169 1042 113 1099 z m 371 1099 b 243 971 300 1099 243 1042 b 371 843 243 900 300 843 b 499 971 442 843 499 900 b 371 1099 499 1042 442 1099 z m 83 713 l 329 713 l 329 0 l 83 0 z "},"ð":{"ha":950,"x_min":0,"x_max":0,"o":"m 57 356 b 486 -21 57 136 229 -21 b 911 356 732 -21 911 136 b 542 1035 911 692 728 904 l 614 1107 l 508 1215 l 407 1115 b 146 1215 264 1189 146 1215 l 88 1007 b 242 950 88 1007 154 992 l 156 864 l 263 757 l 378 871 b 540 711 436 829 494 776 b 415 733 500 733 435 733 b 57 356 263 733 57 589 z m 318 356 b 485 524 318 454 392 524 b 650 363 574 524 646 457 l 650 356 b 485 189 650 258 581 189 b 318 356 385 189 318 258 z "},"ñ":{"ha":918,"x_min":0,"x_max":0,"o":"m 446 892 b 590 854 446 892 536 854 b 779 1093 743 854 779 1093 l 639 1093 b 576 1029 639 1093 621 1029 b 471 1056 526 1029 471 1056 b 326 1093 471 1056 381 1093 b 138 854 174 1093 138 854 l 278 854 b 340 918 278 854 296 918 b 446 892 390 918 446 892 z m 329 0 l 83 0 l 83 713 l 329 713 l 329 638 l 332 638 b 536 733 388 693 458 733 b 849 469 667 733 849 668 l 849 0 l 603 0 l 603 403 b 475 542 603 474 554 542 b 329 403 401 542 329 474 z "},"ò":{"ha":918,"x_min":0,"x_max":0,"o":"m 257 1167 l 131 1007 l 461 815 l 539 922 z m 32 356 b 461 733 32 578 221 733 b 886 356 697 733 886 578 b 461 -21 886 136 707 -21 b 32 356 204 -21 32 136 z m 293 356 b 460 189 293 258 360 189 b 625 356 556 189 625 258 b 460 524 625 454 551 524 b 293 356 367 524 293 454 z "},"ó":{"ha":918,"x_min":0,"x_max":0,"o":"m 322 922 l 400 815 l 731 1007 l 604 1167 z m 32 356 b 461 733 32 578 221 733 b 886 356 697 733 886 578 b 461 -21 886 136 707 -21 b 32 356 204 -21 32 136 z m 293 356 b 460 189 293 258 360 189 b 625 356 556 189 625 258 b 460 524 625 454 551 524 b 293 356 367 524 293 454 z "},"ô":{"ha":918,"x_min":0,"x_max":0,"o":"m 151 942 l 246 815 l 458 971 l 671 815 l 765 942 l 458 1167 z m 32 356 b 461 733 32 578 221 733 b 886 356 697 733 886 578 b 461 -21 886 136 707 -21 b 32 356 204 -21 32 136 z m 293 356 b 460 189 293 258 360 189 b 625 356 556 189 625 258 b 460 524 625 454 551 524 b 293 356 367 524 293 454 z "},"õ":{"ha":918,"x_min":0,"x_max":0,"o":"m 446 892 b 590 854 446 892 536 854 b 779 1093 743 854 779 1093 l 639 1093 b 576 1029 639 1093 621 1029 b 471 1056 526 1029 471 1056 b 326 1093 471 1056 381 1093 b 138 854 174 1093 138 854 l 278 854 b 340 918 278 854 296 918 b 446 892 390 918 446 892 z m 32 356 b 461 733 32 578 221 733 b 886 356 697 733 886 578 b 461 -21 886 136 707 -21 b 32 356 204 -21 32 136 z m 293 356 b 460 189 293 258 360 189 b 625 356 556 189 625 258 b 460 524 625 454 551 524 b 293 356 367 524 293 454 z "},"ö":{"ha":918,"x_min":0,"x_max":0,"o":"m 294 1099 b 167 971 224 1099 167 1042 b 294 843 167 900 224 843 b 422 971 365 843 422 900 b 294 1099 422 1042 365 1099 z m 624 1099 b 496 971 553 1099 496 1042 b 624 843 496 900 553 843 b 751 971 694 843 751 900 b 624 1099 751 1042 694 1099 z m 32 356 b 461 733 32 578 221 733 b 886 356 697 733 886 578 b 461 -21 886 136 707 -21 b 32 356 204 -21 32 136 z m 293 356 b 460 189 293 258 360 189 b 625 356 556 189 625 258 b 460 524 625 454 551 524 b 293 356 367 524 293 454 z "},"÷":{"ha":879,"x_min":0,"x_max":0,"o":"m 438 1000 b 326 886 376 1000 326 950 b 438 775 326 825 376 775 b 551 886 501 775 551 825 b 438 1000 551 950 501 1000 z m 83 682 l 83 469 l 796 469 l 796 682 z m 438 376 b 326 263 376 376 326 326 b 438 151 326 201 376 151 b 551 263 501 151 551 201 b 438 376 551 326 501 376 z "},"ø":{"ha":918,"x_min":0,"x_max":0,"o":"m 928 672 l 865 747 l 740 646 b 461 733 665 701 568 733 b 32 356 221 733 32 578 b 106 132 32 269 58 193 l -10 39 l 53 -36 l 176 64 b 461 -21 249 10 347 -21 b 886 356 707 -21 886 136 b 810 576 886 440 858 517 z m 293 356 b 460 524 293 454 367 524 b 554 494 494 524 528 513 l 303 292 b 293 356 296 311 293 332 z m 460 189 b 364 215 422 189 390 199 l 614 418 b 625 356 621 399 625 378 b 460 189 625 258 556 189 z "},"ù":{"ha":911,"x_min":0,"x_max":0,"o":"m 254 1167 l 128 1007 l 458 815 l 536 922 z m 69 713 l 315 713 l 315 374 b 456 179 315 233 353 179 b 596 374 558 179 596 233 l 596 713 l 842 713 l 842 314 b 456 -21 842 75 722 -21 b 69 314 189 -21 69 75 z "},"ú":{"ha":911,"x_min":0,"x_max":0,"o":"m 374 922 l 451 815 l 782 1007 l 656 1167 z m 69 713 l 315 713 l 315 374 b 456 179 315 233 353 179 b 596 374 558 179 596 233 l 596 713 l 842 713 l 842 314 b 456 -21 842 75 722 -21 b 69 314 189 -21 69 75 z "},"û":{"ha":911,"x_min":0,"x_max":0,"o":"m 149 942 l 243 815 l 456 971 l 668 815 l 763 942 l 456 1167 z m 69 713 l 315 713 l 315 374 b 456 179 315 233 353 179 b 596 374 558 179 596 233 l 596 713 l 842 713 l 842 314 b 456 -21 842 75 722 -21 b 69 314 189 -21 69 75 z "},"ü":{"ha":911,"x_min":0,"x_max":0,"o":"m 290 1099 b 163 971 219 1099 163 1042 b 290 843 163 900 219 843 b 418 971 361 843 418 900 b 290 1099 418 1042 361 1099 z m 619 1099 b 492 971 549 1099 492 1042 b 619 843 492 900 549 843 b 747 971 690 843 747 900 b 619 1099 747 1042 690 1099 z m 69 713 l 315 713 l 315 374 b 456 179 315 233 353 179 b 596 374 558 179 596 233 l 596 713 l 842 713 l 842 314 b 456 -21 842 75 722 -21 b 69 314 189 -21 69 75 z "},"ý":{"ha":879,"x_min":0,"x_max":0,"o":"m 304 922 l 382 815 l 713 1007 l 586 1167 z m 624 713 l 454 347 l 256 713 l -28 713 l 310 111 l 64 -361 l 347 -361 l 907 713 z "},"þ":{"ha":949,"x_min":0,"x_max":0,"o":"m 917 356 b 563 733 917 564 771 733 b 329 644 467 733 388 701 l 329 1194 l 83 1194 l 83 -361 l 326 -361 l 326 81 l 329 81 b 563 -21 382 22 465 -21 b 917 356 771 -21 917 147 z m 656 356 b 489 189 656 258 589 189 b 324 356 393 189 324 258 b 489 524 324 454 397 524 b 656 356 582 524 656 454 z "},"ÿ":{"ha":879,"x_min":0,"x_max":0,"o":"m 275 1099 b 147 971 204 1099 147 1042 b 275 843 147 900 204 843 b 403 971 346 843 403 900 b 275 1099 403 1042 346 1099 z m 604 1099 b 476 971 533 1099 476 1042 b 604 843 476 900 533 843 b 732 971 675 843 732 900 b 604 1099 732 1042 675 1099 z m 624 713 l 454 347 l 256 713 l -28 713 l 310 111 l 64 -361 l 347 -361 l 907 713 z "},"Ā":{"ha":1089,"x_min":0,"x_max":0,"o":"m 261 1481 l 261 1314 l 828 1314 l 828 1481 z m 665 1146 l 424 1146 l -39 0 l 242 0 l 326 229 l 763 229 l 847 0 l 1128 0 z m 674 458 l 415 458 l 543 792 l 546 792 z "},"ā":{"ha":949,"x_min":0,"x_max":0,"o":"m 190 1047 l 190 881 l 757 881 l 757 1047 z m 32 356 b 386 733 32 564 178 733 b 619 644 482 733 561 701 l 619 713 l 865 713 l 865 0 l 622 0 l 622 81 l 619 81 b 386 -21 567 22 483 -21 b 32 356 178 -21 32 147 z m 293 356 b 460 189 293 258 360 189 b 625 356 556 189 625 258 b 460 524 625 454 551 524 b 293 356 367 524 293 454 z "},"Ă":{"ha":1089,"x_min":0,"x_max":0,"o":"m 690 1600 b 544 1457 690 1600 675 1457 b 399 1600 414 1457 399 1600 l 224 1557 b 544 1306 240 1408 365 1306 b 865 1557 724 1306 849 1408 z m 665 1146 l 424 1146 l -39 0 l 242 0 l 326 229 l 763 229 l 847 0 l 1128 0 z m 674 458 l 415 458 l 543 792 l 546 792 z "},"ă":{"ha":949,"x_min":0,"x_max":0,"o":"m 619 1167 b 474 1024 619 1167 604 1024 b 328 1167 343 1024 328 1167 l 153 1124 b 474 872 169 975 294 872 b 794 1124 653 872 778 975 z m 32 356 b 386 -21 32 147 178 -21 b 619 81 483 -21 567 22 l 622 81 l 622 0 l 865 0 l 865 713 l 619 713 l 619 644 b 386 733 561 701 482 733 b 32 356 178 733 32 564 z m 293 356 b 460 524 293 454 367 524 b 625 356 551 524 625 454 b 460 189 625 258 556 189 b 293 356 360 189 293 258 z "},"Ą":{"ha":1089,"x_min":0,"x_max":0,"o":"m 763 -219 b 938 -382 763 -340 865 -382 b 1128 -282 1065 -382 1128 -282 l 1028 -207 b 957 -249 1028 -207 1000 -249 b 906 -194 933 -249 906 -229 b 988 0 906 -97 988 0 l 1128 0 l 665 1146 l 424 1146 l -39 0 l 242 0 l 326 229 l 763 229 l 847 0 l 874 0 b 763 -219 832 -50 763 -143 z m 674 458 l 415 458 l 543 792 l 546 792 z "},"ą":{"ha":949,"x_min":0,"x_max":0,"o":"m 511 -219 b 686 -382 511 -340 614 -382 b 876 -282 814 -382 876 -282 l 776 -207 b 706 -249 776 -207 749 -249 b 654 -194 682 -249 654 -229 b 736 0 654 -97 736 0 l 865 0 l 865 713 l 619 713 l 619 644 b 386 733 561 701 482 733 b 32 356 178 733 32 564 b 386 -21 32 147 178 -21 b 619 81 483 -21 567 22 l 622 81 l 622 0 b 511 -219 581 -49 511 -140 z m 293 356 b 460 524 293 454 367 524 b 625 356 551 524 625 454 b 460 189 625 258 556 189 b 293 356 360 189 293 258 z "},"Ć":{"ha":1046,"x_min":0,"x_max":0,"o":"m 376 1356 l 454 1249 l 785 1440 l 658 1600 z m 693 236 b 918 307 826 236 918 307 l 1029 85 b 653 -21 1029 85 901 -21 b 32 571 329 -21 32 243 b 653 1167 32 900 328 1167 b 1029 1061 901 1167 1029 1061 l 918 839 b 693 910 918 839 826 910 b 315 574 431 910 315 726 b 693 236 315 419 431 236 z "},"ć":{"ha":682,"x_min":0,"x_max":0,"o":"m 265 922 l 343 815 l 674 1007 l 547 1167 z m 463 532 b 582 499 536 532 582 499 l 665 667 b 426 733 665 667 585 733 b 32 354 219 733 32 564 b 426 -21 32 146 221 -21 b 665 43 585 -21 665 43 l 582 214 b 463 181 582 214 536 181 b 293 357 369 181 293 258 b 463 532 293 454 369 532 z "},"Ĉ":{"ha":1126,"x_min":0,"x_max":0,"o":"m 310 1356 l 405 1229 l 617 1385 l 830 1229 l 924 1356 l 617 1581 z m 726 236 b 951 307 859 236 951 307 l 1062 85 b 685 -21 1062 85 934 -21 b 65 571 362 -21 65 243 b 685 1167 65 900 360 1167 b 1062 1061 934 1167 1062 1061 l 951 839 b 726 910 951 839 859 910 b 348 574 463 910 348 726 b 726 236 348 419 463 236 z "},"ĉ":{"ha":768,"x_min":0,"x_max":0,"o":"m 92 914 l 186 788 l 399 943 l 611 788 l 706 914 l 399 1139 z m 493 532 b 613 499 567 532 613 499 l 696 667 b 457 733 696 667 615 733 b 63 354 250 733 63 564 b 457 -21 63 146 251 -21 b 696 43 615 -21 696 43 l 613 214 b 493 181 613 214 567 181 b 324 357 400 181 324 258 b 493 532 324 454 400 532 z "},"Ċ":{"ha":1126,"x_min":0,"x_max":0,"o":"m 613 1532 b 485 1404 542 1532 485 1475 b 613 1276 485 1333 542 1276 b 741 1404 684 1276 741 1333 b 613 1532 741 1475 684 1532 z m 726 236 b 951 307 859 236 951 307 l 1062 85 b 685 -21 1062 85 934 -21 b 65 571 362 -21 65 243 b 685 1167 65 900 360 1167 b 1062 1061 934 1167 1062 1061 l 951 839 b 726 910 951 839 859 910 b 348 574 463 910 348 726 b 726 236 348 419 463 236 z "},"ċ":{"ha":767,"x_min":0,"x_max":0,"o":"m 403 1085 b 275 957 332 1085 275 1028 b 403 829 275 886 332 829 b 531 957 474 829 531 886 b 403 1085 531 1028 474 1085 z m 497 532 b 617 499 571 532 617 499 l 700 667 b 461 733 700 667 619 733 b 67 354 254 733 67 564 b 461 -21 67 146 256 -21 b 700 43 619 -21 700 43 l 617 214 b 497 181 617 214 571 181 b 328 357 404 181 328 258 b 497 532 328 454 404 532 z "},"Č":{"ha":1046,"x_min":0,"x_max":0,"o":"m 400 1600 l 306 1474 l 613 1249 l 919 1474 l 825 1600 l 613 1444 z m 693 236 b 918 307 826 236 918 307 l 1029 85 b 653 -21 1029 85 901 -21 b 32 571 329 -21 32 243 b 653 1167 32 900 328 1167 b 1029 1061 901 1167 1029 1061 l 918 839 b 693 910 918 839 826 910 b 315 574 431 910 315 726 b 693 236 315 419 431 236 z "},"č":{"ha":682,"x_min":0,"x_max":0,"o":"m 144 1167 l 50 1040 l 357 815 l 664 1040 l 569 1167 l 357 1011 z m 463 532 b 582 499 536 532 582 499 l 665 667 b 426 733 665 667 585 733 b 32 354 219 733 32 564 b 426 -21 32 146 221 -21 b 665 43 585 -21 665 43 l 582 214 b 463 181 582 214 536 181 b 293 357 369 181 293 258 b 463 532 293 454 369 532 z "},"Ď":{"ha":1025,"x_min":0,"x_max":0,"o":"m 288 1600 l 193 1474 l 500 1249 l 807 1474 l 713 1600 l 500 1444 z m 83 1146 l 83 0 l 415 0 b 993 574 731 0 993 239 b 415 1146 993 907 729 1146 z m 344 233 l 344 913 l 385 913 b 711 572 579 913 711 764 b 385 233 710 381 578 233 z "},"ď":{"ha":949,"x_min":0,"x_max":0,"o":"m 32 356 b 386 -21 32 147 178 -21 b 619 81 483 -21 567 22 l 622 81 l 622 0 l 865 0 l 865 1194 l 619 1194 l 619 644 b 386 733 561 701 482 733 b 32 356 178 733 32 564 z m 1050 1144 b 928 1019 983 1144 928 1089 b 1021 908 928 964 968 921 b 939 756 1004 818 939 756 l 994 713 b 1175 1019 1082 785 1175 890 b 1050 1144 1175 1089 1119 1144 z m 293 356 b 460 524 293 454 367 524 b 625 356 551 524 625 454 b 460 189 625 258 556 189 b 293 356 360 189 293 258 z "},"Đ":{"ha":1217,"x_min":0,"x_max":0,"o":"m 210 679 l 97 641 l 97 516 l 210 467 l 210 0 l 542 0 b 1120 574 858 0 1120 239 b 542 1146 1120 907 856 1146 l 210 1146 z m 472 679 l 472 913 l 512 913 b 838 572 706 913 838 764 b 512 233 837 381 705 233 l 472 233 l 472 467 l 631 516 l 631 641 z "},"đ":{"ha":949,"x_min":0,"x_max":0,"o":"m 446 1031 l 446 872 l 619 872 l 619 644 b 386 733 561 701 482 733 b 32 356 178 733 32 564 b 386 -21 32 147 178 -21 b 619 81 483 -21 567 22 l 622 81 l 622 0 l 865 0 l 865 872 l 949 872 l 949 1031 l 865 1031 l 865 1194 l 619 1194 l 619 1031 z m 293 356 b 460 524 293 454 367 524 b 625 356 551 524 625 454 b 460 189 625 258 556 189 b 293 356 360 189 293 258 z "},"Ē":{"ha":806,"x_min":0,"x_max":0,"o":"m 119 1481 l 119 1314 l 686 1314 l 686 1481 z m 739 1146 l 83 1146 l 83 0 l 739 0 l 739 229 l 344 229 l 344 460 l 722 460 l 722 689 l 344 689 l 344 917 l 739 917 z "},"ē":{"ha":838,"x_min":0,"x_max":0,"o":"m 135 1047 l 135 881 l 701 881 l 701 1047 z m 804 322 b 806 356 806 331 806 346 b 424 733 806 606 640 733 b 32 356 208 733 32 564 b 424 -21 32 149 208 -21 b 793 165 582 -21 713 31 l 615 254 b 442 175 556 190 521 175 b 288 322 379 175 288 213 z m 294 458 b 431 574 299 524 346 574 b 565 458 503 574 554 533 z "},"Ĕ":{"ha":849,"x_min":0,"x_max":0,"o":"m 578 1563 b 432 1419 578 1563 563 1419 b 286 1563 301 1419 286 1563 l 111 1519 b 432 1268 128 1371 253 1268 b 753 1519 611 1268 736 1371 z m 751 1146 l 96 1146 l 96 0 l 751 0 l 751 229 l 357 229 l 357 460 l 735 460 l 735 689 l 357 689 l 357 917 l 751 917 z "},"ĕ":{"ha":947,"x_min":0,"x_max":0,"o":"m 637 1121 b 491 978 637 1121 622 978 b 345 1121 360 978 345 1121 l 170 1078 b 491 826 187 929 312 826 b 812 1078 670 826 795 929 z m 859 322 b 860 356 860 331 860 346 b 478 733 860 606 695 733 b 87 356 263 733 87 564 b 478 -21 87 149 263 -21 b 848 165 637 -21 767 31 l 670 254 b 497 175 610 190 576 175 b 342 322 434 175 342 213 z m 349 458 b 485 574 353 524 401 574 b 620 458 558 574 609 533 z "},"Ė":{"ha":806,"x_min":0,"x_max":0,"o":"m 403 1532 b 275 1404 332 1532 275 1475 b 403 1276 275 1333 332 1276 b 531 1404 474 1276 531 1333 b 403 1532 531 1475 474 1532 z m 739 1146 l 83 1146 l 83 0 l 739 0 l 739 229 l 344 229 l 344 460 l 722 460 l 722 689 l 344 689 l 344 917 l 739 917 z "},"ė":{"ha":838,"x_min":0,"x_max":0,"o":"m 418 1099 b 290 971 347 1099 290 1042 b 418 843 290 900 347 843 b 546 971 489 843 546 900 b 418 1099 546 1042 489 1099 z m 804 322 b 806 356 806 331 806 346 b 424 733 806 606 640 733 b 32 356 208 733 32 564 b 424 -21 32 149 208 -21 b 793 165 582 -21 713 31 l 615 254 b 442 175 556 190 521 175 b 288 322 379 175 288 213 z m 294 458 b 431 574 299 524 346 574 b 565 458 503 574 554 533 z "},"Ę":{"ha":806,"x_min":0,"x_max":0,"o":"m 739 1146 l 83 1146 l 83 0 l 490 0 b 379 -219 449 -50 379 -143 b 554 -382 379 -340 482 -382 b 744 -282 682 -382 744 -282 l 644 -207 b 574 -249 644 -207 617 -249 b 522 -194 550 -249 522 -229 b 604 0 522 -97 604 0 l 739 0 l 739 229 l 344 229 l 344 460 l 722 460 l 722 689 l 344 689 l 344 917 l 739 917 z "},"ę":{"ha":838,"x_min":0,"x_max":0,"o":"m 804 322 b 806 356 806 331 806 346 b 424 733 806 606 640 733 b 32 356 208 733 32 564 b 424 -21 32 149 208 -21 b 450 -19 432 -21 442 -19 b 356 -219 408 -72 356 -153 b 531 -382 356 -340 458 -382 b 721 -282 658 -382 721 -282 l 621 -207 b 550 -249 621 -207 593 -249 b 499 -194 526 -249 499 -229 b 581 0 499 -97 581 0 b 793 165 668 26 740 78 l 615 254 b 442 175 556 190 521 175 b 288 322 379 175 288 213 z m 294 458 b 431 574 299 524 346 574 b 565 458 503 574 554 533 z "},"Ě":{"ha":806,"x_min":0,"x_max":0,"o":"m 190 1600 l 96 1474 l 403 1249 l 710 1474 l 615 1600 l 403 1444 z m 739 1146 l 83 1146 l 83 0 l 739 0 l 739 229 l 344 229 l 344 460 l 722 460 l 722 689 l 344 689 l 344 917 l 739 917 z "},"ě":{"ha":838,"x_min":0,"x_max":0,"o":"m 206 1167 l 111 1040 l 418 815 l 725 1040 l 631 1167 l 418 1011 z m 804 322 b 806 356 806 331 806 346 b 424 733 806 606 640 733 b 32 356 208 733 32 564 b 424 -21 32 149 208 -21 b 793 165 582 -21 713 31 l 615 254 b 442 175 556 190 521 175 b 288 322 379 175 288 213 z m 294 458 b 431 574 299 524 346 574 b 565 458 503 574 554 533 z "},"Ĝ":{"ha":1285,"x_min":0,"x_max":0,"o":"m 335 1353 l 430 1226 l 642 1382 l 855 1226 l 949 1353 l 642 1578 z m 1186 642 l 657 642 l 657 440 l 921 440 b 672 219 921 300 797 219 b 381 572 511 219 381 378 b 672 931 381 771 511 931 b 928 783 774 931 861 890 l 1099 971 b 657 1167 999 1092 858 1167 b 99 572 335 1167 99 901 b 657 -21 99 244 349 -21 b 1186 393 882 -21 1124 103 z "},"ĝ":{"ha":1031,"x_min":0,"x_max":0,"o":"m 256 956 l 351 829 l 563 985 l 776 829 l 870 956 l 563 1181 z m 118 -175 b 513 -382 193 -349 364 -382 b 932 -19 756 -382 932 -258 l 932 713 l 686 713 l 686 649 l 682 649 b 453 733 624 703 547 733 b 99 356 244 733 99 564 b 453 -21 99 147 244 -21 b 686 51 550 -21 633 -7 l 686 -1 b 513 -168 686 -128 581 -168 b 319 -76 406 -168 346 -119 z m 360 356 b 526 524 360 454 433 524 b 692 356 618 524 692 454 b 526 189 692 258 622 189 b 360 356 426 189 360 258 z "},"Ğ":{"ha":1288,"x_min":0,"x_max":0,"o":"m 804 1560 b 658 1417 804 1560 789 1417 b 513 1560 528 1417 513 1560 l 338 1517 b 658 1265 354 1368 479 1265 b 979 1517 838 1265 963 1368 z m 1188 642 l 658 642 l 658 440 l 922 440 b 674 219 922 300 799 219 b 382 572 513 219 382 378 b 674 931 382 771 513 931 b 929 783 775 931 863 890 l 1100 971 b 658 1167 1000 1092 860 1167 b 100 572 336 1167 100 901 b 658 -21 100 244 350 -21 b 1188 393 883 -21 1125 103 z "},"ğ":{"ha":1032,"x_min":0,"x_max":0,"o":"m 666 1125 b 520 982 666 1125 651 982 b 374 1125 390 982 374 1125 l 199 1082 b 520 831 216 933 341 831 b 841 1082 699 831 824 933 z m 119 -175 b 513 -382 194 -349 365 -382 b 933 -19 756 -382 933 -258 l 933 713 l 687 713 l 687 649 l 683 649 b 453 733 624 703 548 733 b 99 356 245 733 99 564 b 453 -21 99 147 245 -21 b 687 51 551 -21 634 -7 l 687 -1 b 513 -168 687 -128 581 -168 b 320 -76 406 -168 347 -119 z m 360 356 b 527 524 360 454 434 524 b 692 356 619 524 692 454 b 527 189 692 258 623 189 b 360 356 427 189 360 258 z "},"Ġ":{"ha":1288,"x_min":0,"x_max":0,"o":"m 652 1532 b 524 1404 581 1532 524 1475 b 652 1276 524 1333 581 1276 b 780 1404 723 1276 780 1333 b 652 1532 780 1475 723 1532 z m 1188 642 l 658 642 l 658 440 l 922 440 b 674 219 922 300 799 219 b 382 572 513 219 382 378 b 674 931 382 771 513 931 b 929 783 775 931 863 890 l 1100 971 b 658 1167 1000 1092 860 1167 b 100 572 336 1167 100 901 b 658 -21 100 244 350 -21 b 1188 393 883 -21 1125 103 z "},"ġ":{"ha":1032,"x_min":0,"x_max":0,"o":"m 525 1089 b 397 961 454 1089 397 1032 b 525 833 397 890 454 833 b 653 961 596 833 653 890 b 525 1089 653 1032 596 1089 z m 119 -175 b 513 -382 194 -349 365 -382 b 933 -19 756 -382 933 -258 l 933 713 l 687 713 l 687 649 l 683 649 b 453 733 624 703 548 733 b 99 356 245 733 99 564 b 453 -21 99 147 245 -21 b 687 51 551 -21 634 -7 l 687 -1 b 513 -168 687 -128 581 -168 b 320 -76 406 -168 347 -119 z m 360 356 b 527 524 360 454 434 524 b 692 356 619 524 692 454 b 527 189 692 258 623 189 b 360 356 427 189 360 258 z "},"Ģ":{"ha":1286,"x_min":0,"x_max":0,"o":"m 1187 642 l 658 642 l 658 440 l 922 440 b 673 219 922 300 798 219 b 381 572 512 219 381 378 b 673 931 381 771 512 931 b 928 783 774 931 862 890 l 1099 971 b 658 1167 999 1092 859 1167 b 99 572 335 1167 99 901 b 658 -21 99 244 349 -21 b 1187 393 883 -21 1124 103 z m 641 -56 b 766 -181 710 -56 766 -111 b 585 -487 766 -310 673 -415 l 530 -444 b 612 -292 530 -444 595 -382 b 519 -181 559 -279 519 -236 b 641 -56 519 -111 574 -56 z "},"ģ":{"ha":1032,"x_min":0,"x_max":0,"o":"m 542 843 b 665 968 609 843 665 899 b 572 1079 665 1024 624 1067 b 653 1232 588 1169 653 1232 l 598 1275 b 417 968 510 1203 417 1097 b 542 843 417 899 473 843 z m 119 -175 b 513 -382 194 -349 365 -382 b 933 -19 756 -382 933 -258 l 933 713 l 687 713 l 687 649 l 683 649 b 453 733 624 703 548 733 b 99 356 245 733 99 564 b 453 -21 99 147 245 -21 b 687 51 551 -21 634 -7 l 687 -1 b 513 -168 687 -128 581 -168 b 320 -76 406 -168 347 -119 z m 360 356 b 527 524 360 454 434 524 b 692 356 619 524 692 454 b 527 189 692 258 623 189 b 360 356 427 189 360 258 z "},"Ĥ":{"ha":1103,"x_min":0,"x_max":0,"o":"m 252 1356 l 347 1229 l 559 1385 l 772 1229 l 866 1356 l 559 1581 z m 369 460 l 739 460 l 739 0 l 1000 0 l 1000 1146 l 739 1146 l 739 689 l 369 689 l 369 1146 l 108 1146 l 108 0 l 369 0 z "},"ĥ":{"ha":974,"x_min":0,"x_max":0,"o":"m 174 1414 l 269 1288 l 481 1443 l 694 1288 l 788 1414 l 481 1639 z m 104 0 l 350 0 l 350 403 b 496 542 350 474 422 542 b 624 403 575 542 624 474 l 624 0 l 869 0 l 869 469 b 557 733 869 668 688 733 b 353 638 479 733 408 693 l 350 638 l 350 1194 l 104 1194 z "},"Ħ":{"ha":1379,"x_min":0,"x_max":0,"o":"m 517 752 l 886 752 l 886 660 l 517 660 z m 517 431 l 886 431 l 886 0 l 1147 0 l 1147 752 l 1287 752 l 1287 998 l 1147 998 l 1147 1146 l 886 1146 l 886 998 l 517 998 l 517 1146 l 256 1146 l 256 998 l 92 998 l 92 752 l 256 752 l 256 0 l 517 0 z "},"ħ":{"ha":1069,"x_min":0,"x_max":0,"o":"m 232 1056 l 73 1056 l 73 810 l 232 810 l 232 0 l 477 0 l 477 403 b 623 542 477 474 550 542 b 751 403 702 542 751 474 l 751 0 l 997 0 l 997 469 b 684 733 997 668 815 733 b 480 638 607 733 536 693 l 477 638 l 477 810 l 907 810 l 907 1056 l 477 1056 l 477 1194 l 232 1194 z "},"Ĩ":{"ha":779,"x_min":0,"x_max":0,"o":"m 377 1267 b 522 1229 377 1267 467 1229 b 710 1468 674 1229 710 1468 l 570 1468 b 508 1404 570 1468 552 1404 b 402 1431 458 1404 402 1431 b 258 1468 402 1431 312 1468 b 69 1229 105 1468 69 1229 l 209 1229 b 272 1293 209 1229 227 1293 b 377 1267 322 1293 377 1267 z m 519 1146 l 258 1146 l 258 0 l 519 0 z "},"ĩ":{"ha":783,"x_min":0,"x_max":0,"o":"m 379 840 b 524 803 379 840 469 803 b 713 1042 676 803 713 1042 l 572 1042 b 510 978 572 1042 554 978 b 404 1004 460 978 404 1004 b 260 1042 404 1004 314 1042 b 71 803 107 1042 71 803 l 211 803 b 274 867 211 803 229 867 b 379 840 324 867 379 840 z m 269 713 l 515 713 l 515 0 l 269 0 z "},"Ī":{"ha":428,"x_min":0,"x_max":0,"o":"m -69 1481 l -69 1314 l 497 1314 l 497 1481 z m 344 1146 l 83 1146 l 83 0 l 344 0 z "},"ī":{"ha":413,"x_min":0,"x_max":0,"o":"m -76 1047 l -76 881 l 490 881 l 490 1047 z m 83 713 l 329 713 l 329 0 l 83 0 z "},"Ĭ":{"ha":772,"x_min":0,"x_max":0,"o":"m 532 1571 b 386 1428 532 1571 517 1428 b 240 1571 256 1428 240 1571 l 65 1528 b 386 1276 82 1379 207 1276 b 707 1528 565 1276 690 1379 z m 511 1146 l 250 1146 l 250 0 l 511 0 z "},"ĭ":{"ha":800,"x_min":0,"x_max":0,"o":"m 546 1133 b 400 990 546 1133 531 990 b 254 1133 269 990 254 1133 l 79 1090 b 400 839 96 942 221 839 b 721 1090 579 839 704 942 z m 269 713 l 515 713 l 515 0 l 269 0 z "},"Į":{"ha":428,"x_min":0,"x_max":0,"o":"m 344 1146 l 83 1146 l 83 0 l 157 0 b 46 -219 115 -50 46 -143 b 221 -382 46 -340 149 -382 b 411 -282 349 -382 411 -282 l 311 -207 b 240 -249 311 -207 283 -249 b 189 -194 217 -249 189 -229 b 271 0 189 -97 271 0 l 344 0 z "},"į":{"ha":413,"x_min":0,"x_max":0,"o":"m 210 1153 b 64 1007 129 1153 64 1088 b 210 861 64 926 129 861 b 356 1007 290 861 356 926 b 210 1153 356 1088 290 1153 z m 40 -219 b 151 0 40 -140 110 -49 l 83 0 l 83 713 l 329 713 l 329 0 l 265 0 b 183 -194 265 0 183 -97 b 235 -249 183 -229 211 -249 b 306 -207 278 -249 306 -207 l 406 -282 b 215 -382 406 -282 343 -382 b 40 -219 143 -382 40 -340 z "},"İ":{"ha":467,"x_min":0,"x_max":0,"o":"m 233 1549 b 88 1403 153 1549 88 1483 b 233 1257 88 1322 153 1257 b 379 1403 314 1257 379 1322 b 233 1549 379 1483 314 1549 z m 364 1146 l 103 1146 l 103 0 l 364 0 z "},"ı":{"ha":374,"x_min":0,"x_max":0,"o":"m 64 0 l 310 0 l 310 713 l 64 713 z "},"Ĳ":{"ha":1090,"x_min":0,"x_max":0,"o":"m 358 1146 l 97 1146 l 97 -21 l 358 -21 z m 993 1146 l 732 1146 l 732 390 b 600 229 732 275 675 229 b 451 307 533 229 451 307 l 368 89 b 636 -21 368 89 472 -21 b 993 324 865 -21 993 99 z "},"ĳ":{"ha":838,"x_min":0,"x_max":0,"o":"m 93 1007 b 239 861 93 926 158 861 b 385 1007 319 861 385 926 b 239 1153 385 1088 319 1153 b 93 1007 158 1153 93 1088 z m 358 713 l 358 0 l 113 0 l 113 713 z m 599 1153 b 453 1007 518 1153 453 1088 b 599 861 453 926 518 861 b 744 1007 679 861 744 926 b 599 1153 744 1088 679 1153 z m 472 713 l 718 713 l 718 -110 b 461 -382 718 -236 657 -382 b 265 -337 344 -382 300 -353 l 342 -139 b 404 -160 342 -139 374 -160 b 472 -62 446 -160 472 -129 z "},"Ĵ":{"ha":946,"x_min":0,"x_max":0,"o":"m 259 1354 l 353 1228 l 566 1383 l 778 1228 l 873 1354 l 566 1579 z m 698 1146 l 437 1146 l 437 390 b 305 229 437 275 380 229 b 157 307 239 229 157 307 l 73 89 b 341 -21 73 89 177 -21 b 698 324 570 -21 698 99 z "},"ĵ":{"ha":785,"x_min":0,"x_max":0,"o":"m 98 935 l 192 808 l 405 964 l 617 808 l 711 935 l 405 1160 z m 280 713 l 526 713 l 526 -110 b 269 -382 526 -236 465 -382 b 73 -337 152 -382 108 -353 l 150 -139 b 212 -160 150 -139 182 -160 b 280 -62 254 -160 280 -129 z "},"Ķ":{"ha":1093,"x_min":0,"x_max":0,"o":"m 1126 0 l 593 603 l 1054 1146 l 738 1146 l 344 678 l 344 1146 l 83 1146 l 83 0 l 344 0 l 344 486 l 767 0 z m 544 -56 b 669 -181 614 -56 669 -111 b 489 -487 669 -310 576 -415 l 433 -444 b 515 -292 433 -444 499 -382 b 422 -181 463 -279 422 -236 b 544 -56 422 -111 478 -56 z "},"ķ":{"ha":897,"x_min":0,"x_max":0,"o":"m 897 713 l 578 713 l 329 464 l 329 1194 l 83 1194 l 83 0 l 329 0 l 329 285 l 614 0 l 931 0 l 558 372 z m 447 -56 b 325 -181 381 -56 325 -111 b 418 -292 325 -236 365 -279 b 336 -444 401 -382 336 -444 l 392 -487 b 572 -181 479 -415 572 -310 b 447 -56 572 -111 517 -56 z "},"ĸ":{"ha":997,"x_min":0,"x_max":0,"o":"m 916 2 l 489 484 l 858 919 l 605 919 l 290 544 l 290 919 l 81 919 l 81 2 l 290 2 l 290 391 l 628 2 z "},"Ĺ":{"ha":785,"x_min":0,"x_max":0,"o":"m 189 1356 l 267 1249 l 597 1440 l 471 1600 z m 344 1146 l 83 1146 l 83 0 l 739 0 l 739 229 l 344 229 z "},"ĺ":{"ha":413,"x_min":0,"x_max":0,"o":"m 83 1404 l 161 1297 l 492 1489 l 365 1649 z m 83 1194 l 329 1194 l 329 0 l 83 0 z "},"Ļ":{"ha":785,"x_min":0,"x_max":0,"o":"m 344 1146 l 83 1146 l 83 0 l 739 0 l 739 229 l 344 229 z m 390 -56 b 515 -181 460 -56 515 -111 b 335 -487 515 -310 422 -415 l 279 -444 b 361 -292 279 -444 344 -382 b 268 -181 308 -279 268 -236 b 390 -56 268 -111 324 -56 z "},"ļ":{"ha":413,"x_min":0,"x_max":0,"o":"m 83 0 l 329 0 l 329 1194 l 83 1194 z m 204 -56 b 82 -181 138 -56 82 -111 b 175 -292 82 -236 122 -279 b 93 -444 158 -382 93 -444 l 149 -487 b 329 -181 236 -415 329 -310 b 204 -56 329 -111 274 -56 z "},"Ľ":{"ha":785,"x_min":0,"x_max":0,"o":"m 344 1146 l 83 1146 l 83 0 l 739 0 l 739 229 l 344 229 z m 579 1144 b 704 1019 649 1144 704 1089 b 524 713 704 890 611 785 l 468 756 b 550 908 468 756 533 818 b 457 1019 497 921 457 964 b 579 1144 457 1089 513 1144 z "},"ľ":{"ha":413,"x_min":0,"x_max":0,"o":"m 83 0 l 329 0 l 329 1194 l 83 1194 z m 514 1144 b 392 1019 447 1144 392 1089 b 485 908 392 964 432 921 b 403 756 468 818 403 756 l 458 713 b 639 1019 546 785 639 890 b 514 1144 639 1089 583 1144 z "},"Ŀ":{"ha":857,"x_min":0,"x_max":0,"o":"m 604 788 b 476 660 533 788 476 731 b 604 532 476 589 533 532 b 732 660 675 532 732 589 b 604 788 732 731 675 788 z m 362 1146 l 101 1146 l 101 0 l 756 0 l 756 229 l 362 229 z "},"ŀ":{"ha":757,"x_min":0,"x_max":0,"o":"m 534 788 b 406 660 463 788 406 731 b 534 532 406 589 463 532 b 661 660 605 532 661 589 b 534 788 661 731 605 788 z m 95 1194 l 341 1194 l 341 0 l 95 0 z "},"Ł":{"ha":789,"x_min":0,"x_max":0,"o":"m 28 347 l 133 429 l 133 0 l 789 0 l 789 229 l 394 229 l 394 635 l 540 750 l 540 963 l 394 847 l 394 1146 l 133 1146 l 133 642 l 28 560 z "},"ł":{"ha":513,"x_min":0,"x_max":0,"o":"m 133 0 l 379 0 l 379 624 l 485 707 l 485 919 l 379 836 l 379 1194 l 133 1194 l 133 643 l 28 560 l 28 347 l 133 431 z "},"Ń":{"ha":1147,"x_min":0,"x_max":0,"o":"m 369 1356 l 447 1249 l 778 1440 l 651 1600 z m 344 711 l 347 711 l 803 0 l 1064 0 l 1064 1146 l 803 1146 l 803 435 l 800 435 l 344 1146 l 83 1146 l 83 0 l 344 0 z "},"ń":{"ha":918,"x_min":0,"x_max":0,"o":"m 376 922 l 454 815 l 785 1007 l 658 1167 z m 329 0 l 83 0 l 83 713 l 329 713 l 329 638 l 332 638 b 536 733 388 693 458 733 b 849 469 667 733 849 668 l 849 0 l 603 0 l 603 403 b 475 542 603 474 554 542 b 329 403 401 542 329 474 z "},"Ņ":{"ha":1147,"x_min":0,"x_max":0,"o":"m 344 711 l 347 711 l 803 0 l 1064 0 l 1064 1146 l 803 1146 l 803 435 l 800 435 l 344 1146 l 83 1146 l 83 0 l 344 0 z m 572 -56 b 697 -181 642 -56 697 -111 b 517 -487 697 -310 604 -415 l 461 -444 b 543 -292 461 -444 526 -382 b 450 -181 490 -279 450 -236 b 572 -56 450 -111 506 -56 z "},"ņ":{"ha":918,"x_min":0,"x_max":0,"o":"m 83 0 l 329 0 l 329 403 b 475 542 329 474 401 542 b 603 403 554 542 603 474 l 603 0 l 849 0 l 849 469 b 536 733 849 668 667 733 b 332 638 458 733 388 693 l 329 638 l 329 713 l 83 713 z m 457 -56 b 335 -181 390 -56 335 -111 b 428 -292 335 -236 375 -279 b 346 -444 411 -382 346 -444 l 401 -487 b 582 -181 489 -415 582 -310 b 457 -56 582 -111 526 -56 z "},"Ň":{"ha":1147,"x_min":0,"x_max":0,"o":"m 361 1600 l 267 1474 l 574 1249 l 881 1474 l 786 1600 l 574 1444 z m 344 711 l 347 711 l 803 0 l 1064 0 l 1064 1146 l 803 1146 l 803 435 l 800 435 l 344 1146 l 83 1146 l 83 0 l 344 0 z "},"ň":{"ha":918,"x_min":0,"x_max":0,"o":"m 246 1167 l 151 1040 l 458 815 l 765 1040 l 671 1167 l 458 1011 z m 329 0 l 83 0 l 83 713 l 329 713 l 329 638 l 332 638 b 536 733 388 693 458 733 b 849 469 667 733 849 668 l 849 0 l 603 0 l 603 403 b 475 542 603 474 554 542 b 329 403 401 542 329 474 z "},"ŉ":{"ha":1043,"x_min":0,"x_max":0,"o":"m 70 806 l 172 722 l 444 991 l 281 1114 z m 454 0 l 208 0 l 208 713 l 454 713 l 454 638 l 456 638 b 661 733 512 693 583 733 b 973 469 791 733 973 668 l 973 0 l 727 0 l 727 403 b 599 542 727 474 679 542 b 454 403 526 542 454 474 z "},"Ŋ":{"ha":1188,"x_min":0,"x_max":0,"o":"m 365 711 l 367 711 l 823 0 l 823 -161 l 637 -235 l 615 -387 l 1084 -342 l 1084 0 l 1084 1146 l 823 1146 l 823 435 l 820 435 l 365 1146 l 103 1146 l 103 0 l 365 0 z "},"ŋ":{"ha":971,"x_min":0,"x_max":0,"o":"m 103 0 l 349 0 l 349 403 b 494 542 349 474 421 542 b 622 403 574 542 622 474 l 622 0 l 618 -161 l 432 -235 l 410 -387 l 868 -333 l 868 0 l 868 469 b 556 733 868 668 686 733 b 351 638 478 733 407 693 l 349 638 l 349 713 l 103 713 z "},"Ō":{"ha":1218,"x_min":0,"x_max":0,"o":"m 325 1481 l 325 1314 l 892 1314 l 892 1481 z m 32 574 b 610 -21 32 239 271 -21 b 1186 574 939 -21 1186 239 b 610 1167 1186 908 928 1167 b 32 574 294 1167 32 908 z m 314 574 b 610 915 314 744 408 915 b 904 574 813 915 904 744 b 610 232 904 403 818 232 b 314 574 396 232 314 403 z "},"ō":{"ha":918,"x_min":0,"x_max":0,"o":"m 175 1047 l 175 881 l 742 881 l 742 1047 z m 32 356 b 461 733 32 578 221 733 b 886 356 697 733 886 578 b 461 -21 886 136 707 -21 b 32 356 204 -21 32 136 z m 293 356 b 460 189 293 258 360 189 b 625 356 556 189 625 258 b 460 524 625 454 551 524 b 293 356 367 524 293 454 z "},"Ŏ":{"ha":1335,"x_min":0,"x_max":0,"o":"m 813 1550 b 667 1407 813 1550 797 1407 b 521 1550 536 1407 521 1550 l 346 1507 b 667 1256 363 1358 488 1256 b 988 1507 846 1256 971 1358 z m 90 574 b 668 -21 90 239 329 -21 b 1244 574 997 -21 1244 239 b 668 1167 1244 908 986 1167 b 90 574 353 1167 90 908 z m 372 574 b 668 915 372 744 467 915 b 963 574 871 915 963 744 b 668 232 963 403 876 232 b 372 574 454 232 372 403 z "},"ŏ":{"ha":1033,"x_min":0,"x_max":0,"o":"m 665 1119 b 519 976 665 1119 649 976 b 373 1119 388 976 373 1119 l 198 1076 b 519 825 215 928 340 825 b 840 1076 698 825 823 928 z m 90 356 b 519 733 90 578 278 733 b 944 356 755 733 944 578 b 519 -21 944 136 765 -21 b 90 356 262 -21 90 136 z m 351 356 b 517 189 351 258 417 189 b 683 356 613 189 683 258 b 517 524 683 454 609 524 b 351 356 424 524 351 454 z "},"Ő":{"ha":1218,"x_min":0,"x_max":0,"o":"m 321 1356 l 399 1249 l 675 1483 l 561 1628 z m 614 1356 l 692 1249 l 968 1483 l 854 1628 z m 32 574 b 610 -21 32 239 271 -21 b 1186 574 939 -21 1186 239 b 610 1167 1186 908 928 1167 b 32 574 294 1167 32 908 z m 314 574 b 610 915 314 744 408 915 b 904 574 813 915 904 744 b 610 232 904 403 818 232 b 314 574 396 232 314 403 z "},"ő":{"ha":918,"x_min":0,"x_max":0,"o":"m 171 922 l 249 815 l 525 1050 l 411 1194 z m 464 922 l 542 815 l 818 1050 l 704 1194 z m 32 356 b 461 733 32 578 221 733 b 886 356 697 733 886 578 b 461 -21 886 136 707 -21 b 32 356 204 -21 32 136 z m 293 356 b 460 189 293 258 360 189 b 625 356 556 189 625 258 b 460 524 625 454 551 524 b 293 356 367 524 293 454 z "},"Œ":{"ha":1403,"x_min":0,"x_max":0,"o":"m 942 917 l 1336 917 l 1336 1146 l 610 1146 b 32 572 294 1146 32 907 b 610 0 32 238 294 0 l 1336 0 l 1336 229 l 942 229 l 942 460 l 1319 460 l 1319 689 l 942 689 z m 681 913 l 681 233 l 640 233 b 314 574 446 233 314 382 b 640 913 314 764 446 913 z "},"œ":{"ha":1418,"x_min":0,"x_max":0,"o":"m 1385 322 b 1386 356 1386 331 1386 346 b 1004 733 1386 606 1221 733 b 722 619 825 733 722 619 b 453 733 722 619 624 733 b 32 356 213 733 32 578 b 453 -21 32 136 196 -21 b 724 92 629 -21 724 92 b 1004 -21 724 92 838 -21 b 1374 165 1163 -21 1293 31 l 1196 254 b 1022 175 1136 190 1101 175 b 868 322 960 175 868 213 z m 875 458 b 1011 574 879 524 926 574 b 1146 458 1083 574 1135 533 z m 289 356 b 456 524 289 454 363 524 b 621 356 547 524 621 454 b 456 189 621 258 551 189 b 289 356 356 189 289 258 z "},"Ŕ":{"ha":994,"x_min":0,"x_max":0,"o":"m 293 1356 l 371 1249 l 701 1440 l 575 1600 z m 83 1146 l 83 0 l 344 0 l 344 453 l 694 0 l 1026 0 l 632 474 b 867 806 772 518 867 633 b 493 1146 867 1031 706 1146 z m 344 638 l 344 938 l 375 938 b 592 788 474 938 592 931 b 375 638 592 644 474 638 z "},"ŕ":{"ha":692,"x_min":0,"x_max":0,"o":"m 208 922 l 286 815 l 617 1007 l 490 1167 z m 329 0 l 83 0 l 83 713 l 329 713 l 329 610 l 332 610 b 550 733 332 610 410 733 b 706 689 642 733 706 689 l 603 481 b 475 519 603 481 557 519 b 329 375 347 519 329 393 z "},"Ŗ":{"ha":994,"x_min":0,"x_max":0,"o":"m 83 1146 l 83 0 l 344 0 l 344 453 l 694 0 l 1026 0 l 632 474 b 867 806 772 518 867 633 b 493 1146 867 1031 706 1146 z m 344 638 l 344 938 l 375 938 b 592 788 474 938 592 931 b 375 638 592 644 474 638 z m 496 -56 b 621 -181 565 -56 621 -111 b 440 -487 621 -310 528 -415 l 385 -444 b 467 -292 385 -444 450 -382 b 374 -181 414 -279 374 -236 b 496 -56 374 -111 429 -56 z "},"ŗ":{"ha":692,"x_min":0,"x_max":0,"o":"m 83 0 l 329 0 l 329 375 b 475 519 329 393 347 519 b 603 481 557 519 603 481 l 706 689 b 550 733 706 689 642 733 b 332 610 410 733 332 610 l 329 610 l 329 713 l 83 713 z m 206 -56 b 83 -181 139 -56 83 -111 b 176 -292 83 -236 124 -279 b 94 -444 160 -382 94 -444 l 150 -487 b 331 -181 238 -415 331 -310 b 206 -56 331 -111 275 -56 z "},"Ř":{"ha":994,"x_min":0,"x_max":0,"o":"m 238 1600 l 143 1474 l 450 1249 l 757 1474 l 663 1600 l 450 1444 z m 83 1146 l 83 0 l 344 0 l 344 453 l 694 0 l 1026 0 l 632 474 b 867 806 772 518 867 633 b 493 1146 867 1031 706 1146 z m 344 638 l 344 938 l 375 938 b 592 788 474 938 592 931 b 375 638 592 644 474 638 z "},"ř":{"ha":692,"x_min":0,"x_max":0,"o":"m 133 1167 l 39 1040 l 346 815 l 653 1040 l 558 1167 l 346 1011 z m 329 0 l 83 0 l 83 713 l 329 713 l 329 610 l 332 610 b 550 733 332 610 410 733 b 706 689 642 733 706 689 l 603 481 b 475 519 603 481 557 519 b 329 375 347 519 329 393 z "},"Ś":{"ha":933,"x_min":0,"x_max":0,"o":"m 263 1356 l 340 1249 l 671 1440 l 544 1600 z m 506 1167 b 132 817 321 1167 132 1031 b 350 522 132 697 213 590 b 608 333 486 454 608 417 b 443 221 608 226 500 221 b 163 350 315 221 163 350 l 32 131 b 463 -21 32 131 194 -21 b 894 349 686 -21 894 75 b 626 661 894 499 754 607 b 388 826 496 717 388 763 b 524 929 388 889 435 929 b 756 850 642 929 756 850 l 861 1058 b 506 1167 861 1058 714 1167 z "},"ś":{"ha":683,"x_min":0,"x_max":0,"o":"m 193 922 l 271 815 l 601 1007 l 475 1167 z m 393 733 b 82 504 206 733 82 650 b 226 310 82 397 154 347 b 385 213 307 268 385 264 b 308 161 385 165 343 161 b 132 243 229 161 132 243 l 32 75 b 307 -21 32 75 135 -21 b 644 222 453 -21 644 13 b 428 450 644 368 522 421 b 317 518 367 469 317 481 b 393 561 317 551 339 561 b 551 517 468 561 551 517 l 632 678 b 393 733 632 678 531 733 z "},"Ŝ":{"ha":999,"x_min":0,"x_max":0,"o":"m 228 1354 l 322 1228 l 535 1383 l 747 1228 l 842 1354 l 535 1579 z m 542 1167 b 168 817 357 1167 168 1031 b 386 522 168 697 249 590 b 644 333 522 454 644 417 b 479 221 644 226 536 221 b 199 350 351 221 199 350 l 68 131 b 499 -21 68 131 231 -21 b 931 349 722 -21 931 75 b 663 661 931 499 790 607 b 424 826 532 717 424 763 b 560 929 424 889 471 929 b 792 850 678 929 792 850 l 897 1058 b 542 1167 897 1058 750 1167 z "},"ŝ":{"ha":772,"x_min":0,"x_max":0,"o":"m 81 908 l 176 782 l 388 938 l 601 782 l 695 908 l 388 1133 z m 438 733 b 127 504 251 733 127 650 b 272 310 127 397 199 347 b 430 213 352 268 430 264 b 353 161 430 165 388 161 b 177 243 274 161 177 243 l 77 75 b 352 -21 77 75 180 -21 b 690 222 498 -21 690 13 b 473 450 690 368 567 421 b 362 518 412 469 362 481 b 438 561 362 551 384 561 b 597 517 513 561 597 517 l 677 678 b 438 733 677 678 576 733 z "},"Ş":{"ha":1004,"x_min":0,"x_max":0,"o":"m 503 -56 b 628 -181 572 -56 628 -111 b 447 -487 628 -310 535 -415 l 392 -444 b 474 -292 392 -444 457 -382 b 381 -181 421 -279 381 -236 b 503 -56 381 -111 436 -56 z m 544 1167 b 171 817 360 1167 171 1031 b 389 522 171 697 251 590 b 647 333 525 454 647 417 b 482 221 647 226 539 221 b 201 350 354 221 201 350 l 71 131 b 501 -21 71 131 233 -21 b 933 349 725 -21 933 75 b 665 661 933 499 793 607 b 426 826 535 717 426 763 b 563 929 426 889 474 929 b 794 850 681 929 794 850 l 900 1058 b 544 1167 900 1058 753 1167 z "},"ş":{"ha":758,"x_min":0,"x_max":0,"o":"m 381 -56 b 506 -181 450 -56 506 -111 b 325 -487 506 -310 413 -415 l 269 -444 b 351 -292 269 -444 335 -382 b 258 -181 299 -279 258 -236 b 381 -56 258 -111 314 -56 z m 434 733 b 123 504 247 733 123 650 b 267 310 123 397 195 347 b 426 213 348 268 426 264 b 349 161 426 165 384 161 b 173 243 270 161 173 243 l 73 75 b 348 -21 73 75 176 -21 b 685 222 494 -21 685 13 b 469 450 685 368 563 421 b 358 518 408 469 358 481 b 434 561 358 551 380 561 b 592 517 509 561 592 517 l 673 678 b 434 733 673 678 572 733 z "},"Š":{"ha":933,"x_min":0,"x_max":0,"o":"m 254 1600 l 160 1474 l 467 1249 l 774 1474 l 679 1600 l 467 1444 z m 506 1167 b 132 817 321 1167 132 1031 b 350 522 132 697 213 590 b 608 333 486 454 608 417 b 443 221 608 226 500 221 b 163 350 315 221 163 350 l 32 131 b 463 -21 32 131 194 -21 b 894 349 686 -21 894 75 b 626 661 894 499 754 607 b 388 826 496 717 388 763 b 524 929 388 889 435 929 b 756 850 642 929 756 850 l 861 1058 b 506 1167 861 1058 714 1167 z "},"š":{"ha":683,"x_min":0,"x_max":0,"o":"m 129 1167 l 35 1040 l 342 815 l 649 1040 l 554 1167 l 342 1011 z m 393 733 b 82 504 206 733 82 650 b 226 310 82 397 154 347 b 385 213 307 268 385 264 b 308 161 385 165 343 161 b 132 243 229 161 132 243 l 32 75 b 307 -21 32 75 135 -21 b 644 222 453 -21 644 13 b 428 450 644 368 522 421 b 317 518 367 469 317 481 b 393 561 317 551 339 561 b 551 517 468 561 551 517 l 632 678 b 393 733 632 678 531 733 z "},"Ţ":{"ha":981,"x_min":0,"x_max":0,"o":"m 490 -56 b 615 -181 560 -56 615 -111 b 435 -487 615 -310 522 -415 l 379 -444 b 461 -292 379 -444 444 -382 b 368 -181 408 -279 368 -236 b 490 -56 368 -111 424 -56 z m 88 917 l 360 917 l 360 0 l 621 0 l 621 917 l 893 917 l 893 1146 l 88 1146 z "},"ţ":{"ha":661,"x_min":0,"x_max":0,"o":"m 316 -56 b 441 -181 385 -56 441 -111 b 260 -487 441 -310 348 -415 l 205 -444 b 287 -292 205 -444 270 -382 b 194 -181 234 -279 194 -236 b 316 -56 194 -111 249 -56 z m 170 713 l 67 713 l 67 525 l 170 525 l 170 251 b 413 -21 170 125 217 -21 b 594 24 515 -21 594 24 l 533 222 b 472 200 533 222 503 200 b 416 299 433 200 416 232 l 416 525 l 566 525 l 566 713 l 416 713 l 416 978 l 170 978 z "},"Ť":{"ha":1281,"x_min":0,"x_max":0,"o":"m 1063 1303 b 1188 1178 1133 1303 1188 1247 b 1008 871 1188 1049 1095 943 l 952 914 b 1034 1067 952 914 1017 976 b 941 1178 981 1079 941 1122 b 1063 1303 941 1247 997 1303 z m 92 917 l 365 917 l 365 0 l 626 0 l 626 917 l 898 917 l 898 1146 l 92 1146 z "},"ť":{"ha":606,"x_min":0,"x_max":0,"o":"m 661 1144 b 539 1019 594 1144 539 1089 b 632 908 539 964 579 921 b 550 756 615 818 550 756 l 606 713 b 786 1019 693 785 786 890 b 661 1144 786 1089 731 1144 z m 125 713 l 22 713 l 22 525 l 125 525 l 125 251 b 368 -21 125 125 172 -21 b 549 24 469 -21 549 24 l 488 222 b 426 200 488 222 458 200 b 371 299 388 200 371 232 l 371 525 l 521 525 l 521 713 l 371 713 l 371 978 l 125 978 z "},"Ŧ":{"ha":975,"x_min":0,"x_max":0,"o":"m 85 917 l 357 917 l 357 715 l 181 715 l 181 469 l 357 469 l 357 0 l 618 0 l 618 469 l 807 469 l 807 715 l 618 715 l 618 917 l 890 917 l 890 1146 l 85 1146 z "},"ŧ":{"ha":674,"x_min":0,"x_max":0,"o":"m 176 758 l 74 758 l 74 571 l 176 571 l 176 486 l 75 486 l 75 328 l 176 328 l 176 251 b 419 -21 176 125 224 -21 b 600 24 521 -21 600 24 l 539 222 b 478 200 539 222 510 200 b 422 299 439 200 422 232 l 422 328 l 572 328 l 572 486 l 422 486 l 422 571 l 572 571 l 572 758 l 422 758 l 422 978 l 176 978 z "},"Ũ":{"ha":1100,"x_min":0,"x_max":0,"o":"m 538 1294 b 682 1257 538 1294 628 1257 b 871 1496 835 1257 871 1496 l 731 1496 b 668 1432 731 1496 713 1432 b 563 1458 618 1432 563 1458 b 418 1496 563 1458 472 1496 b 229 1257 265 1496 229 1257 l 369 1257 b 432 1321 369 1257 388 1321 b 538 1294 482 1321 538 1294 z m 736 1146 l 997 1146 l 997 407 b 550 -21 997 124 842 -21 b 103 407 258 -21 103 124 l 103 1146 l 364 1146 l 364 483 b 550 236 364 292 422 236 b 736 483 678 236 736 292 z "},"ũ":{"ha":976,"x_min":0,"x_max":0,"o":"m 478 878 b 623 840 478 878 569 840 b 812 1079 776 840 812 1079 l 672 1079 b 609 1015 672 1079 653 1015 b 503 1042 559 1015 503 1042 b 359 1079 503 1042 413 1079 b 170 840 206 1079 170 840 l 310 840 b 373 904 310 840 328 904 b 478 878 423 904 478 878 z m 102 713 l 348 713 l 348 374 b 488 179 348 233 385 179 b 628 374 591 179 628 233 l 628 713 l 874 713 l 874 314 b 488 -21 874 75 755 -21 b 102 314 222 -21 102 75 z "},"Ū":{"ha":1033,"x_min":0,"x_max":0,"o":"m 233 1481 l 233 1314 l 800 1314 l 800 1481 z m 703 1146 l 964 1146 l 964 407 b 517 -21 964 124 808 -21 b 69 407 225 -21 69 124 l 69 1146 l 331 1146 l 331 483 b 517 236 331 292 389 236 b 703 483 644 236 703 292 z "},"ū":{"ha":911,"x_min":0,"x_max":0,"o":"m 172 1047 l 172 881 l 739 881 l 739 1047 z m 69 713 l 315 713 l 315 374 b 456 179 315 233 353 179 b 596 374 558 179 596 233 l 596 713 l 842 713 l 842 314 b 456 -21 842 75 722 -21 b 69 314 189 -21 69 75 z "},"Ŭ":{"ha":1100,"x_min":0,"x_max":0,"o":"m 696 1533 b 550 1390 696 1533 681 1390 b 404 1533 419 1390 404 1533 l 229 1490 b 550 1239 246 1342 371 1239 b 871 1490 729 1239 854 1342 z m 736 1146 l 997 1146 l 997 407 b 550 -21 997 124 842 -21 b 103 407 258 -21 103 124 l 103 1146 l 364 1146 l 364 483 b 550 236 364 292 422 236 b 736 483 678 236 736 292 z "},"ŭ":{"ha":975,"x_min":0,"x_max":0,"o":"m 632 1094 b 486 951 632 1094 617 951 b 340 1094 356 951 340 1094 l 165 1051 b 486 800 182 903 307 800 b 807 1051 665 800 790 903 z m 101 713 l 347 713 l 347 374 b 488 179 347 233 385 179 b 628 374 590 179 628 233 l 628 713 l 874 713 l 874 314 b 488 -21 874 75 754 -21 b 101 314 221 -21 101 75 z "},"Ů":{"ha":1033,"x_min":0,"x_max":0,"o":"m 293 1451 b 517 1253 293 1335 383 1253 b 740 1451 647 1253 740 1335 b 517 1649 740 1567 643 1649 b 293 1451 392 1649 293 1567 z m 432 1451 b 517 1538 432 1499 471 1538 b 601 1451 564 1538 601 1499 b 517 1363 601 1403 565 1363 b 432 1451 467 1363 432 1403 z m 964 1146 l 703 1146 l 703 483 b 517 236 703 292 644 236 b 331 483 389 236 331 292 l 331 1146 l 69 1146 l 69 407 b 517 -21 69 124 225 -21 b 964 407 808 -21 964 124 z "},"ů":{"ha":911,"x_min":0,"x_max":0,"o":"m 232 1018 b 456 819 232 901 322 819 b 679 1018 586 819 679 901 b 456 1215 679 1133 582 1215 b 232 1018 331 1215 232 1133 z m 371 1018 b 456 1104 371 1065 410 1104 b 540 1018 503 1104 540 1065 b 456 929 540 969 504 929 b 371 1018 406 929 371 969 z m 315 713 l 69 713 l 69 314 b 456 -21 69 75 189 -21 b 842 314 722 -21 842 75 l 842 713 l 596 713 l 596 374 b 456 179 596 233 558 179 b 315 374 353 179 315 233 z "},"Ű":{"ha":1033,"x_min":0,"x_max":0,"o":"m 229 1356 l 307 1249 l 583 1483 l 469 1628 z m 522 1356 l 600 1249 l 876 1483 l 763 1628 z m 703 1146 l 964 1146 l 964 407 b 517 -21 964 124 808 -21 b 69 407 225 -21 69 124 l 69 1146 l 331 1146 l 331 483 b 517 236 331 292 389 236 b 703 483 644 236 703 292 z "},"ű":{"ha":911,"x_min":0,"x_max":0,"o":"m 168 922 l 246 815 l 522 1050 l 408 1194 z m 461 922 l 539 815 l 815 1050 l 701 1194 z m 69 713 l 315 713 l 315 374 b 456 179 315 233 353 179 b 596 374 558 179 596 233 l 596 713 l 842 713 l 842 314 b 456 -21 842 75 722 -21 b 69 314 189 -21 69 75 z "},"Ų":{"ha":1033,"x_min":0,"x_max":0,"o":"m 368 -219 b 543 -382 368 -340 471 -382 b 733 -282 671 -382 733 -282 l 633 -207 b 563 -249 633 -207 606 -249 b 511 -194 539 -249 511 -229 b 579 -18 511 -122 556 -50 b 964 407 831 1 964 144 l 964 1146 l 703 1146 l 703 483 b 517 236 703 292 644 236 b 331 483 389 236 331 292 l 331 1146 l 69 1146 l 69 407 b 464 -18 69 140 206 -1 b 368 -219 422 -71 368 -150 z "},"ų":{"ha":911,"x_min":0,"x_max":0,"o":"m 307 -219 b 482 -382 307 -340 410 -382 b 672 -282 610 -382 672 -282 l 572 -207 b 501 -249 572 -207 544 -249 b 450 -194 478 -249 450 -229 b 517 -19 450 -124 493 -53 b 842 314 740 -4 842 94 l 842 713 l 596 713 l 596 374 b 456 179 596 233 558 179 b 315 374 353 179 315 233 l 315 713 l 69 713 l 69 314 b 403 -19 69 92 172 -7 b 307 -219 360 -71 307 -150 z "},"Ŵ":{"ha":1757,"x_min":0,"x_max":0,"o":"m 565 1307 l 660 1181 l 872 1336 l 1085 1181 l 1179 1307 l 872 1532 z m 1063 0 l 1351 0 l 1678 1146 l 1389 1146 l 1193 360 l 1186 360 l 978 1146 l 781 1146 l 572 360 l 565 360 l 369 1146 l 79 1146 l 406 0 l 696 0 l 879 643 z "},"ŵ":{"ha":1589,"x_min":0,"x_max":0,"o":"m 475 901 l 569 775 l 782 931 l 994 775 l 1089 901 l 782 1126 z m 631 0 l 794 368 l 958 0 l 1125 0 l 1507 713 l 1224 713 l 1050 328 l 879 713 l 710 713 l 539 328 l 365 713 l 82 713 l 464 0 z "},"Ŷ":{"ha":1265,"x_min":0,"x_max":0,"o":"m 330 1336 l 424 1210 l 637 1365 l 849 1210 l 944 1336 l 637 1561 z m 80 1146 l 502 514 l 502 0 l 763 0 l 763 514 l 1185 1146 l 872 1146 l 633 779 l 394 1146 z "},"ŷ":{"ha":1103,"x_min":0,"x_max":0,"o":"m 244 919 l 338 793 l 551 949 l 763 793 l 858 919 l 551 1144 z m 735 713 l 566 347 l 367 713 l 84 713 l 422 111 l 176 -361 l 459 -361 l 1019 713 z "},"Ÿ":{"ha":1022,"x_min":0,"x_max":0,"o":"m 346 1532 b 218 1404 275 1532 218 1475 b 346 1276 218 1333 275 1276 b 474 1404 417 1276 474 1333 b 346 1532 474 1475 417 1532 z m 675 1532 b 547 1404 604 1532 547 1475 b 675 1276 547 1333 604 1276 b 803 1404 746 1276 803 1333 b 675 1532 803 1475 746 1532 z m -42 1146 l 381 514 l 381 0 l 642 0 l 642 514 l 1064 1146 l 750 1146 l 511 779 l 272 1146 z "},"Ź":{"ha":1068,"x_min":0,"x_max":0,"o":"m 329 1356 l 407 1249 l 738 1440 l 611 1600 z m 1046 1146 l 103 1146 l 103 917 l 589 917 l 22 0 l 1008 0 l 1008 229 l 478 229 z "},"ź":{"ha":779,"x_min":0,"x_max":0,"o":"m 264 922 l 342 815 l 672 1007 l 546 1167 z m 772 713 l 65 713 l 65 525 l 360 525 l 7 0 l 744 0 l 744 188 l 419 188 z "},"Ż":{"ha":1068,"x_min":0,"x_max":0,"o":"m 533 1532 b 406 1404 463 1532 406 1475 b 533 1276 406 1333 463 1276 b 661 1404 604 1276 661 1333 b 533 1532 661 1475 604 1532 z m 1046 1146 l 103 1146 l 103 917 l 589 917 l 22 0 l 1008 0 l 1008 229 l 478 229 z "},"ż":{"ha":779,"x_min":0,"x_max":0,"o":"m 389 1099 b 261 971 318 1099 261 1042 b 389 843 261 900 318 843 b 517 971 460 843 517 900 b 389 1099 517 1042 460 1099 z m 772 713 l 65 713 l 65 525 l 360 525 l 7 0 l 744 0 l 744 188 l 419 188 z "},"Ž":{"ha":1068,"x_min":0,"x_max":0,"o":"m 321 1600 l 226 1474 l 533 1249 l 840 1474 l 746 1600 l 533 1444 z m 1046 1146 l 103 1146 l 103 917 l 589 917 l 22 0 l 1008 0 l 1008 229 l 478 229 z "},"ž":{"ha":779,"x_min":0,"x_max":0,"o":"m 178 1167 l 83 1040 l 390 815 l 697 1040 l 603 1167 l 390 1011 z m 772 713 l 65 713 l 65 525 l 360 525 l 7 0 l 744 0 l 744 188 l 419 188 z "},"ſ":{"ha":893,"x_min":0,"x_max":0,"o":"m 256 1028 l 256 838 l 71 838 l 71 650 l 256 650 l 256 0 l 501 0 l 501 1028 l 822 1028 l 822 1194 l 501 1194 l 256 1194 z "},"ƀ":{"ha":949,"x_min":0,"x_max":0,"o":"m 917 356 b 563 733 917 564 771 733 b 329 644 467 733 388 701 l 329 1194 l 83 1194 l 83 0 l 326 0 l 326 81 l 329 81 b 563 -21 382 22 465 -21 b 917 356 771 -21 917 147 z m 656 356 b 489 189 656 258 589 189 b 324 356 393 189 324 258 b 489 524 324 454 397 524 b 656 356 582 524 656 454 z "},"Ɓ":{"ha":1046,"x_min":0,"x_max":0,"o":"m 169 1146 l 67 882 l 169 708 l 169 0 l 604 0 b 979 319 842 0 979 131 b 735 608 979 504 878 583 b 878 854 832 658 878 749 b 525 1146 878 1072 722 1146 z m 431 697 l 431 944 l 451 944 b 625 828 565 944 625 910 b 451 697 625 732 564 697 z m 431 201 l 431 472 l 513 472 b 704 329 636 472 704 435 b 513 201 704 239 636 201 z "},"Ƃ":{"ha":1010,"x_min":0,"x_max":0,"o":"m 100 0 l 100 1028 l 100 1146 l 100 1194 l 636 1194 l 636 1028 l 361 1028 l 361 721 l 518 721 b 910 353 742 721 910 589 b 518 0 910 115 742 0 z m 361 513 l 361 208 l 435 208 b 635 361 538 208 635 243 b 435 513 635 478 538 513 z "},"ƃ":{"ha":1032,"x_min":0,"x_max":0,"o":"m 933 356 b 578 -21 933 147 787 -21 b 345 81 481 -21 398 22 l 342 81 l 342 0 l 99 0 l 99 1028 l 99 1194 l 345 1194 l 635 1194 l 635 1028 l 345 1028 l 345 644 b 578 733 403 701 483 733 b 933 356 787 733 933 564 z m 672 356 b 505 524 672 454 598 524 b 340 356 413 524 340 454 b 505 189 340 258 409 189 b 672 356 605 189 672 258 z "},"Ƅ":{"ha":1050,"x_min":0,"x_max":0,"o":"m 173 0 l 173 708 l 67 882 l 173 1146 l 434 1146 l 434 721 l 591 721 b 983 353 815 721 983 589 b 591 0 983 115 815 0 z m 434 513 l 434 208 l 508 208 b 708 361 610 208 708 243 b 508 513 708 478 610 513 z "},"ƅ":{"ha":1072,"x_min":0,"x_max":0,"o":"m 1006 356 b 651 -21 1006 147 860 -21 b 418 81 554 -21 471 22 l 415 81 l 415 0 l 172 0 l 172 710 l 67 881 l 172 1194 l 418 1194 l 418 644 b 651 733 476 701 556 733 b 1006 356 860 733 1006 564 z m 744 356 b 578 524 744 454 671 524 b 413 356 486 524 413 454 b 578 189 413 258 482 189 b 744 356 678 189 744 258 z "},"Ɔ":{"ha":1139,"x_min":0,"x_max":0,"o":"m 407 910 b 785 572 669 910 785 726 b 407 236 785 419 669 236 b 182 307 274 236 182 307 l 71 85 b 447 -21 71 85 199 -21 b 1068 575 772 -21 1068 246 b 447 1167 1068 903 771 1167 b 71 1061 199 1167 71 1061 l 182 839 b 407 910 182 839 274 910 z "},"Ɖ":{"ha":1078,"x_min":0,"x_max":0,"o":"m 136 679 l 22 679 l 22 467 l 136 467 l 136 0 l 468 0 b 1046 574 783 0 1046 239 b 468 1146 1046 907 782 1146 l 136 1146 z m 397 679 l 397 913 l 438 913 b 764 572 632 913 764 764 b 438 233 763 381 631 233 l 397 233 l 397 467 l 549 467 l 549 679 z "},"Ɗ":{"ha":1176,"x_min":0,"x_max":0,"o":"m 200 1146 l 67 854 l 200 681 l 200 0 l 532 0 b 1110 574 847 0 1110 239 b 532 1146 1110 907 846 1146 z m 461 233 l 461 913 l 501 913 b 828 572 696 913 828 764 b 501 233 826 381 694 233 z "},"Ƌ":{"ha":1011,"x_min":0,"x_max":0,"o":"m 910 0 l 910 1028 l 910 1146 l 910 1194 l 374 1194 l 374 1028 l 649 1028 l 649 721 l 492 721 b 101 353 269 721 101 589 b 492 0 101 115 269 0 z m 649 513 l 649 208 l 576 208 b 376 361 473 208 376 243 b 576 513 376 478 473 513 z "},"ƌ":{"ha":1035,"x_min":0,"x_max":0,"o":"m 101 356 b 455 -21 101 147 247 -21 b 688 81 552 -21 635 22 l 691 81 l 691 0 l 934 0 l 934 1028 l 934 1194 l 688 1194 l 398 1194 l 398 1028 l 688 1028 l 688 644 b 455 733 630 701 551 733 b 101 356 247 733 101 564 z m 362 356 b 528 524 362 454 435 524 b 694 356 620 524 694 454 b 528 189 694 258 624 189 b 362 356 428 189 362 258 z "},"ƍ":{"ha":1032,"x_min":0,"x_max":0,"o":"m 256 -331 b 420 -380 386 -361 416 -375 b 474 -371 425 -378 438 -374 b 933 67 717 -351 933 -172 l 933 554 l 683 735 b 453 819 624 789 548 819 b 99 442 245 819 99 650 b 453 65 99 233 245 65 b 687 137 551 65 634 79 l 687 85 b 517 -156 687 -42 616 -139 b 291 -134 412 -174 456 -169 z m 360 442 b 527 610 360 540 434 610 b 692 442 619 610 692 540 b 527 275 692 344 623 275 b 360 442 427 275 360 344 z m 420 -380 b 420 -380 424 -383 415 -382 z "},"Ǝ":{"ha":861,"x_min":0,"x_max":0,"o":"m 103 1146 l 758 1146 l 758 0 l 103 0 l 103 229 l 497 229 l 497 460 l 119 460 l 119 689 l 497 689 l 497 917 l 103 917 z "},"Ə":{"ha":1161,"x_min":0,"x_max":0,"o":"m 99 490 b 97 449 97 480 97 461 b 574 -23 97 136 304 -23 b 1064 449 844 -23 1064 188 b 574 919 1064 707 844 919 b 113 687 377 919 213 855 l 335 576 b 552 674 410 655 453 674 b 745 490 630 674 745 628 z m 736 320 b 566 176 731 239 672 176 b 397 320 476 176 411 227 z "},"Ɛ":{"ha":1010,"x_min":0,"x_max":0,"o":"m 672 815 b 501 957 672 815 645 957 b 359 831 427 957 359 904 b 497 686 359 747 427 686 l 553 686 l 553 515 b 503 524 553 515 531 524 b 338 356 412 524 338 454 b 503 204 338 258 408 204 b 691 379 676 204 691 379 l 933 261 b 502 -21 933 261 855 -21 b 77 356 256 -21 77 136 b 223 618 77 476 134 564 b 122 833 160 667 122 739 b 498 1167 122 1028 280 1167 b 877 915 819 1167 877 915 z "},"ƒ":{"ha":947,"x_min":0,"x_max":0,"o":"m 599 411 b 71 -210 633 173 167 -182 l 106 11 b 346 411 203 24 361 284 l 244 411 l 301 619 l 379 619 b 876 1049 379 762 676 1067 l 842 828 b 632 619 812 892 618 715 l 832 619 l 775 411 z "},"Ɣ":{"ha":1356,"x_min":0,"x_max":0,"o":"m 826 167 l 516 167 l 671 390 z m 1279 0 l 832 617 l 1207 1146 l 882 1146 l 671 833 l 460 1146 l 149 1146 l 510 617 l 76 0 z "},"ƕ":{"ha":1500,"x_min":0,"x_max":0,"o":"m 103 0 l 349 0 l 349 403 b 495 542 349 474 422 542 b 623 403 574 542 623 474 l 623 399 l 624 129 b 1010 -206 624 -110 744 -206 b 1397 129 1277 -206 1398 -110 l 1397 733 l 1151 733 l 1151 189 b 1010 -6 1152 49 1113 -6 b 870 189 908 -6 870 49 l 870 344 l 869 345 l 869 469 b 556 733 869 668 687 733 b 352 638 478 733 408 693 l 349 638 l 349 1194 l 103 1194 z "},"Ɩ":{"ha":549,"x_min":0,"x_max":0,"o":"m 76 1400 l 322 1400 l 322 265 b 367 201 322 240 344 225 b 473 157 380 189 462 172 b 404 0 473 157 444 30 b 206 4 287 0 233 -6 b 79 206 112 40 84 80 l 78 206 l 78 231 b 78 276 78 245 78 260 l 78 278 z "},"Ɨ":{"ha":883,"x_min":0,"x_max":0,"o":"m 572 486 l 779 486 l 779 647 l 572 647 l 572 1146 l 311 1146 l 311 647 l 104 647 l 104 486 l 311 486 l 311 0 l 572 0 z "},"ƚ":{"ha":678,"x_min":0,"x_max":0,"o":"m 217 486 l 217 0 l 463 0 l 463 486 l 576 486 l 576 647 l 463 647 l 463 1194 l 217 1194 l 217 647 l 101 647 l 101 486 z "},"ƛ":{"ha":1167,"x_min":0,"x_max":0,"o":"m 813 3 l 644 368 l 445 3 l 162 3 l 499 604 l 450 698 l 156 543 l 70 706 l 365 862 l 253 1076 l 537 1076 l 587 979 l 862 1124 l 948 961 l 673 816 l 1097 3 z "},"Ɯ":{"ha":1450,"x_min":0,"x_max":0,"o":"m 351 1146 l 90 1146 l 193 0 l 471 0 l 725 661 l 979 0 l 1257 0 l 1360 1146 l 1099 1146 l 1044 467 l 1038 467 l 803 1139 l 647 1139 l 413 467 l 406 467 z "},"ƞ":{"ha":971,"x_min":0,"x_max":0,"o":"m 103 0 l 349 0 l 349 403 b 494 542 349 474 421 542 b 622 165 574 542 622 236 l 622 -237 l 868 -237 l 868 469 b 556 733 868 668 686 733 b 351 638 478 733 407 693 l 349 638 l 349 713 l 103 713 z "},"Ɵ":{"ha":1350,"x_min":0,"x_max":0,"o":"m 966 638 l 384 638 b 676 915 405 785 500 915 b 966 638 853 915 945 785 z m 385 504 l 965 504 b 676 232 944 359 856 232 b 385 504 491 232 405 359 z m 98 574 b 676 -21 98 239 337 -21 b 1252 574 1005 -21 1252 239 b 676 1167 1252 908 994 1167 b 98 574 360 1167 98 908 z "},"Ƨ":{"ha":1004,"x_min":0,"x_max":0,"o":"m 460 1167 b 833 817 644 1167 833 1031 b 615 522 833 697 753 590 b 357 333 479 454 357 417 b 522 221 357 226 465 221 b 803 350 650 221 803 350 l 933 131 b 503 -21 933 131 771 -21 b 71 349 279 -21 71 75 b 339 661 71 499 211 607 b 578 826 469 717 578 763 b 442 929 578 889 531 929 b 210 850 324 929 210 850 l 104 1058 b 460 1167 104 1058 251 1167 z "},"ƨ":{"ha":760,"x_min":0,"x_max":0,"o":"m 325 733 b 636 504 513 733 636 650 b 492 310 636 397 564 347 b 333 213 411 268 333 264 b 410 161 333 165 375 161 b 586 243 489 161 586 243 l 686 75 b 411 -21 686 75 583 -21 b 74 222 265 -21 74 13 b 290 450 74 368 196 421 b 401 518 351 469 401 481 b 325 561 401 551 379 561 b 167 517 250 561 167 517 l 86 678 b 325 733 86 678 188 733 z "},"Ʃ":{"ha":893,"x_min":0,"x_max":0,"o":"m 790 909 l 790 1144 l 103 1052 l 103 802 l 322 573 l 103 344 l 103 94 l 790 2 l 790 237 l 383 285 l 383 292 l 608 503 l 608 643 l 383 854 l 383 860 z "},"Ʊ":{"ha":1433,"x_min":0,"x_max":0,"o":"m 992 664 b 705 286 992 401 836 286 b 419 664 575 286 419 401 b 556 908 419 797 556 908 l 554 909 l 560 909 l 560 1072 l 102 1072 l 101 909 l 247 909 b 201 624 224 846 201 751 b 707 3 201 299 428 3 b 1210 624 986 3 1210 300 b 1164 909 1210 751 1187 846 l 1333 909 l 1333 1072 l 874 1072 l 873 910 l 872 910 b 992 664 872 910 992 797 z "},"Ʋ":{"ha":1097,"x_min":0,"x_max":0,"o":"m 836 938 l 575 938 l 727 483 b 541 236 787 305 669 236 b 355 483 413 236 355 292 l 355 1146 l 94 1146 l 94 407 b 541 -21 94 124 250 -21 b 988 407 833 -21 1065 139 z "},"Ƴ":{"ha":1492,"x_min":0,"x_max":0,"o":"m 86 1146 l 508 514 l 508 0 l 769 0 l 769 514 l 1059 947 l 1287 947 l 1406 1146 l 1192 1146 l 878 1146 l 639 779 l 400 1146 z "},"ƴ":{"ha":1275,"x_min":0,"x_max":0,"o":"m 921 531 l 1100 528 l 1194 713 l 732 713 l 563 347 l 364 713 l 81 713 l 418 111 l 172 -361 l 456 -361 z "},"Ƶ":{"ha":1165,"x_min":0,"x_max":0,"o":"m 686 486 l 926 486 l 926 647 l 785 647 l 1094 1146 l 151 1146 l 151 917 l 638 917 l 471 647 l 251 647 l 251 486 l 371 486 l 71 0 l 1057 0 l 1057 229 l 526 229 z "},"ƶ":{"ha":907,"x_min":0,"x_max":0,"o":"m 557 297 l 709 297 l 709 417 l 638 417 l 836 713 l 129 713 l 129 525 l 424 525 l 351 417 l 202 417 l 202 297 l 270 297 l 71 0 l 808 0 l 808 188 l 483 188 z "},"Ʒ":{"ha":1008,"x_min":0,"x_max":0,"o":"m 338 888 b 508 957 338 888 364 957 b 650 831 582 957 650 904 b 513 686 650 747 582 686 l 456 686 l 456 515 b 506 524 456 515 478 524 b 671 356 597 524 671 454 b 506 204 671 258 601 204 b 318 379 333 204 318 379 l 76 261 b 507 -21 76 261 154 -21 b 932 356 753 -21 932 136 b 786 618 932 476 875 564 b 888 833 849 667 888 739 b 511 1167 888 1221 729 1167 l 132 1167 z "},"Ƹ":{"ha":1010,"x_min":0,"x_max":0,"o":"m 672 888 b 501 957 672 888 645 957 b 359 831 427 957 359 904 b 497 686 359 747 427 686 l 553 686 l 553 515 b 503 524 553 515 531 524 b 338 356 412 524 338 454 b 503 204 338 258 408 204 b 691 379 676 204 691 379 l 933 261 b 502 -21 933 261 855 -21 b 77 356 256 -21 77 136 b 223 618 77 476 134 564 b 122 833 160 667 122 739 b 498 1167 122 1221 280 1167 l 877 1167 z "},"ƹ":{"ha":885,"x_min":0,"x_max":0,"o":"m 584 774 b 439 833 584 774 562 833 b 318 725 376 833 318 788 b 435 602 318 654 376 602 l 484 602 l 484 457 b 441 464 484 457 465 464 b 301 321 363 464 301 405 b 441 193 301 239 360 193 b 601 342 588 193 601 342 l 806 241 b 440 2 806 241 740 2 b 79 321 231 2 79 135 b 203 545 79 424 127 499 b 117 728 150 586 117 647 b 436 1011 117 1057 251 1011 l 759 1011 z "},"ƻ":{"ha":1079,"x_min":0,"x_max":0,"o":"m 521 946 b 683 764 674 946 683 806 b 563 529 683 703 634 618 l 160 529 l 160 368 l 420 368 b 93 65 263 205 93 65 l 93 0 l 986 0 l 986 229 l 561 229 b 734 368 561 229 644 284 l 978 368 l 978 529 l 877 529 b 965 764 929 602 965 683 b 521 1167 965 908 914 1167 b 99 833 210 1167 99 833 l 317 728 b 521 946 317 728 396 946 z "},"Ƽ":{"ha":974,"x_min":0,"x_max":0,"o":"m 70 228 b 478 -21 113 111 234 -21 b 903 356 724 -21 903 136 b 476 758 903 674 692 757 b 444 757 465 758 453 757 l 469 917 l 897 917 l 897 1146 l 245 1146 l 149 529 b 345 565 184 544 249 565 b 642 364 494 565 642 515 b 478 197 642 267 573 197 b 277 328 359 197 298 257 z "},"ƽ":{"ha":850,"x_min":0,"x_max":0,"o":"m 71 189 b 418 -22 107 90 210 -22 b 779 298 627 -22 779 111 b 416 640 779 568 600 639 b 388 639 406 640 397 639 l 410 775 l 717 775 l 717 969 l 220 969 l 138 445 b 305 476 168 458 223 476 b 557 305 431 476 557 433 b 418 163 557 222 498 163 b 247 274 316 163 264 214 z "},"ƾ":{"ha":932,"x_min":0,"x_max":0,"o":"m 288 363 b 452 219 303 303 352 219 b 565 333 515 219 565 267 b 401 490 565 432 485 436 b 337 599 354 521 340 557 l 196 599 l 196 724 l 335 724 l 335 831 l 565 831 l 565 724 l 733 724 l 733 599 l 638 599 b 848 333 759 542 848 461 b 453 1 848 138 662 1 b 84 264 144 1 84 257 z "},"ƿ":{"ha":849,"x_min":0,"x_max":0,"o":"m 257 361 l 257 979 l 84 977 l 84 3 l 257 3 z m 257 361 l 764 671 l 257 979 l 257 837 l 532 671 l 257 502 z "},"ǀ":{"ha":399,"x_min":0,"x_max":0,"o":"m 104 0 l 294 0 l 294 1194 l 104 1194 z "},"ǁ":{"ha":718,"x_min":0,"x_max":0,"o":"m 424 0 l 614 0 l 614 1194 l 424 1194 z m 104 0 l 294 0 l 294 1194 l 104 1194 z "},"ǂ":{"ha":711,"x_min":0,"x_max":0,"o":"m 260 618 l 260 532 l 102 532 l 102 371 l 260 371 l 260 0 l 450 0 l 450 371 l 609 371 l 609 532 l 450 532 l 450 618 l 609 618 l 609 779 l 450 779 l 450 1194 l 260 1194 l 260 779 l 102 779 l 102 618 z "},"ǃ":{"ha":499,"x_min":0,"x_max":0,"o":"m 160 375 l 339 375 l 372 1194 l 126 1194 z m 249 297 b 90 138 161 297 90 226 b 249 -21 90 50 161 -21 b 408 138 338 -21 408 50 b 249 297 408 226 338 297 z "},"Ǆ":{"ha":1926,"x_min":0,"x_max":0,"o":"m 1194 1554 l 1099 1428 l 1406 1203 l 1713 1428 l 1619 1554 l 1406 1399 z m 1842 1146 l 899 1146 l 899 917 l 1385 917 l 818 0 l 1804 0 l 1804 229 l 1274 229 z m 85 1146 l 85 0 l 417 0 b 994 574 732 0 994 239 b 417 1146 994 907 731 1146 z m 346 233 l 346 913 l 386 913 b 713 572 581 913 713 764 b 386 233 711 381 579 233 z "},"ǅ":{"ha":1724,"x_min":0,"x_max":0,"o":"m 1083 1126 l 988 1000 l 1295 775 l 1602 1000 l 1508 1126 l 1295 971 z m 86 1146 l 86 0 l 418 0 b 994 525 718 0 970 216 l 1225 525 l 872 0 l 1610 0 l 1610 188 l 1285 188 l 1637 713 l 980 713 b 418 1146 918 971 686 1146 z m 347 233 l 347 913 l 388 913 b 714 572 582 913 714 764 b 388 233 713 381 581 233 z "},"ǆ":{"ha":1656,"x_min":0,"x_max":0,"o":"m 904 525 l 1151 525 l 904 157 z m 1066 1121 l 971 994 l 1278 769 l 1585 994 l 1491 1121 l 1278 965 z m 70 356 b 425 -21 70 147 216 -21 b 658 81 522 -21 605 22 l 661 81 l 661 0 l 798 0 l 904 0 l 1536 0 l 1536 188 l 1211 188 l 1564 713 l 904 713 l 904 1194 l 658 1194 l 658 644 b 425 733 600 701 520 733 b 70 356 216 733 70 564 z m 332 356 b 498 524 332 454 405 524 b 664 356 590 524 664 454 b 498 189 664 258 594 189 b 332 356 398 189 332 258 z "},"Ǉ":{"ha":1513,"x_min":0,"x_max":0,"o":"m 1409 1146 l 1148 1146 l 1148 390 b 1016 229 1148 275 1091 229 b 867 307 949 229 867 307 l 784 89 b 1052 -21 784 89 888 -21 b 1409 324 1281 -21 1409 99 z m 365 1146 l 103 1146 l 103 0 l 759 0 l 759 229 l 365 229 z "},"ǈ":{"ha":1157,"x_min":0,"x_max":0,"o":"m 915 1153 b 769 1007 835 1153 769 1088 b 915 861 769 926 835 861 b 1061 1007 996 861 1061 926 b 915 1153 1061 1088 996 1153 z m 789 713 l 1035 713 l 1035 -110 b 778 -382 1035 -236 974 -382 b 582 -337 661 -382 617 -353 l 658 -139 b 721 -160 658 -139 690 -160 b 789 -62 763 -160 789 -129 z m 357 1146 l 96 1146 l 96 0 l 751 0 l 751 229 l 357 229 z "},"ǉ":{"ha":775,"x_min":0,"x_max":0,"o":"m 533 1153 b 388 1007 453 1153 388 1088 b 533 861 388 926 453 861 b 679 1007 614 861 679 926 b 533 1153 679 1088 614 1153 z m 407 713 l 653 713 l 653 -110 b 396 -382 653 -236 592 -382 b 200 -337 279 -382 235 -353 l 276 -139 b 339 -160 276 -139 308 -160 b 407 -62 381 -160 407 -129 z m 96 0 l 342 0 l 342 1194 l 96 1194 z "},"Ǌ":{"ha":1836,"x_min":0,"x_max":0,"o":"m 1733 1146 l 1472 1146 l 1472 390 b 1340 229 1472 275 1415 229 b 1191 307 1273 229 1191 307 l 1108 89 b 1376 -21 1108 89 1212 -21 b 1733 324 1605 -21 1733 99 z m 365 711 l 367 711 l 823 0 l 1084 0 l 1084 1146 l 823 1146 l 823 435 l 820 435 l 365 1146 l 103 1146 l 103 0 l 365 0 z "},"ǋ":{"ha":1507,"x_min":0,"x_max":0,"o":"m 1265 1153 b 1119 1007 1184 1153 1119 1088 b 1265 861 1119 926 1184 861 b 1410 1007 1345 861 1410 926 b 1265 1153 1410 1088 1345 1153 z m 1138 713 l 1384 713 l 1384 -110 b 1127 -382 1384 -236 1323 -382 b 931 -337 1010 -382 966 -353 l 1008 -139 b 1070 -160 1008 -139 1040 -160 b 1138 -62 1112 -160 1138 -129 z m 358 711 l 360 711 l 816 0 l 1077 0 l 1077 1146 l 816 1146 l 816 435 l 813 435 l 358 1146 l 97 1146 l 97 0 l 358 0 z "},"ǌ":{"ha":1292,"x_min":0,"x_max":0,"o":"m 1052 1153 b 906 1007 972 1153 906 1088 b 1052 861 906 926 972 861 b 1198 1007 1133 861 1198 926 b 1052 1153 1198 1088 1133 1153 z m 926 713 l 1172 713 l 1172 -110 b 915 -382 1172 -236 1110 -382 b 719 -337 798 -382 753 -353 l 795 -139 b 858 -160 795 -139 827 -160 b 926 -62 899 -160 926 -129 z m 94 0 l 340 0 l 340 403 b 485 542 340 474 412 542 b 613 403 565 542 613 474 l 613 0 l 859 0 l 859 469 b 547 733 859 668 677 733 b 342 638 469 733 398 693 l 340 638 l 340 713 l 94 713 z "},"Ǎ":{"ha":1310,"x_min":0,"x_max":0,"o":"m 962 1474 l 867 1600 l 655 1444 l 442 1600 l 348 1474 l 655 1249 z m 776 1146 l 534 1146 l 72 0 l 352 0 l 437 229 l 873 229 l 958 0 l 1238 0 z m 784 458 l 526 458 l 653 792 l 656 792 z "},"ǎ":{"ha":1029,"x_min":0,"x_max":0,"o":"m 847 1040 l 752 1167 l 540 1011 l 327 1167 l 233 1040 l 540 815 z m 98 356 b 452 733 98 564 244 733 b 685 644 548 733 627 701 l 685 713 l 931 713 l 931 0 l 688 0 l 688 81 l 685 81 b 452 -21 633 22 549 -21 b 98 356 244 -21 98 147 z m 359 356 b 526 189 359 258 426 189 b 691 356 622 189 691 258 b 526 524 691 454 617 524 b 359 356 433 524 359 454 z "},"Ǐ":{"ha":767,"x_min":0,"x_max":0,"o":"m 171 1593 l 76 1467 l 383 1242 l 690 1467 l 596 1593 l 383 1438 z m 504 1146 l 243 1146 l 243 0 l 504 0 z "},"ǐ":{"ha":779,"x_min":0,"x_max":0,"o":"m 260 713 l 506 713 l 506 0 l 260 0 z m 177 1153 l 83 1026 l 390 801 l 697 1026 l 602 1153 l 390 997 z "},"Ǒ":{"ha":1335,"x_min":0,"x_max":0,"o":"m 981 1474 l 887 1600 l 674 1444 l 462 1600 l 367 1474 l 674 1249 z m 90 574 b 668 -21 90 239 329 -21 b 1244 574 997 -21 1244 239 b 668 1167 1244 908 986 1167 b 90 574 353 1167 90 908 z m 372 574 b 668 915 372 744 467 915 b 963 574 871 915 963 744 b 668 232 963 403 876 232 b 372 574 454 232 372 403 z "},"ǒ":{"ha":1033,"x_min":0,"x_max":0,"o":"m 832 1040 l 738 1167 l 525 1011 l 313 1167 l 218 1040 l 525 815 z m 90 356 b 519 -21 90 136 262 -21 b 944 356 765 -21 944 136 b 519 733 944 578 755 733 b 90 356 278 733 90 578 z m 351 356 b 517 524 351 454 424 524 b 683 356 609 524 683 454 b 517 189 683 258 613 189 b 351 356 417 189 351 258 z "},"Ǔ":{"ha":1100,"x_min":0,"x_max":0,"o":"m 861 1375 l 767 1501 l 554 1346 l 342 1501 l 247 1375 l 554 1150 z m 997 1146 l 736 1146 l 736 483 b 550 236 736 292 678 236 b 364 483 422 236 364 292 l 364 1146 l 103 1146 l 103 407 b 550 -21 103 124 258 -21 b 997 407 842 -21 997 124 z "},"ǔ":{"ha":975,"x_min":0,"x_max":0,"o":"m 796 979 l 701 1106 l 489 950 l 276 1106 l 182 979 l 489 754 z m 347 713 l 101 713 l 101 314 b 488 -21 101 75 221 -21 b 874 314 754 -21 874 75 l 874 713 l 628 713 l 628 374 b 488 179 628 233 590 179 b 347 374 385 179 347 233 z "},"ǝ":{"ha":969,"x_min":0,"x_max":0,"o":"m 99 390 b 98 357 98 382 98 367 b 480 -21 98 107 263 -21 b 872 357 695 -21 872 149 b 480 733 872 564 695 733 b 110 547 322 733 191 682 l 288 458 b 462 538 348 522 383 538 b 616 390 524 538 616 500 z m 609 254 b 473 139 605 189 558 139 b 338 254 401 139 349 179 z "},"Ǣ":{"ha":1467,"x_min":0,"x_max":0,"o":"m 460 229 l 728 229 l 728 0 l 1384 0 l 1384 229 l 990 229 l 990 460 l 1367 460 l 1367 689 l 990 689 l 990 917 l 1384 917 l 1384 1146 l 606 1146 l 83 0 l 363 0 z m 728 458 l 552 458 l 726 878 l 728 878 z m 605 1444 l 605 1278 l 1172 1278 l 1172 1444 z "},"ǣ":{"ha":1407,"x_min":0,"x_max":0,"o":"m 204 496 b 397 538 204 496 269 538 b 553 415 468 538 553 493 l 553 364 b 335 418 521 386 453 418 b 81 189 174 418 81 317 b 344 -21 81 60 196 -21 b 649 110 563 -21 649 110 b 944 -21 721 29 826 -21 b 1314 165 1103 -21 1233 31 l 1136 254 b 963 175 1076 190 1042 175 b 808 322 900 175 808 213 l 1325 322 b 1326 356 1326 331 1326 346 b 944 733 1326 606 1161 733 b 692 644 849 733 760 700 b 397 733 606 713 483 733 b 126 664 215 733 126 664 z m 815 458 b 951 574 819 524 867 574 b 1086 458 1024 574 1075 533 z m 325 210 b 435 288 325 260 369 288 b 553 210 500 288 553 251 b 435 126 553 168 500 126 b 325 210 369 126 325 160 z m 394 1024 l 394 857 l 961 857 l 961 1024 z "},"Ǥ":{"ha":1299,"x_min":0,"x_max":0,"o":"m 1123 265 l 1219 265 l 1219 403 l 1167 403 l 1167 642 l 638 642 l 638 440 l 901 440 b 898 403 901 427 900 415 l 658 403 l 658 265 l 808 265 b 653 219 764 235 708 219 b 361 572 492 219 361 378 b 653 931 361 771 492 931 b 908 783 754 931 842 890 l 1079 971 b 638 1167 979 1092 839 1167 b 79 572 315 1167 79 901 b 638 -21 79 244 329 -21 b 1123 265 826 -21 1027 66 z "},"ǥ":{"ha":1050,"x_min":0,"x_max":0,"o":"m 90 -175 b 484 -382 165 -349 336 -382 b 890 -126 688 -382 845 -295 l 980 -126 l 980 -26 l 904 -26 b 904 -19 904 -24 904 -22 l 904 713 l 658 713 l 658 649 l 654 649 b 425 733 595 703 519 733 b 70 356 216 733 70 564 b 425 -21 70 147 216 -21 b 658 51 522 -21 605 -7 l 658 -1 b 657 -26 658 -10 657 -18 l 418 -26 l 418 -126 l 604 -126 b 484 -168 568 -157 521 -168 b 291 -76 377 -168 318 -119 z m 332 356 b 498 524 332 454 405 524 b 664 356 590 524 664 454 b 498 189 664 258 594 189 b 332 356 398 189 332 258 z "},"Ǧ":{"ha":1286,"x_min":0,"x_max":0,"o":"m 1187 642 l 658 642 l 658 440 l 922 440 b 673 219 922 300 798 219 b 381 572 512 219 381 378 b 673 931 381 771 512 931 b 928 783 774 931 862 890 l 1099 971 b 658 1167 999 1092 859 1167 b 99 572 335 1167 99 901 b 658 -21 99 244 349 -21 b 1187 393 883 -21 1124 103 z m 969 1453 l 874 1579 l 662 1424 l 449 1579 l 355 1453 l 662 1228 z "},"ǧ":{"ha":1032,"x_min":0,"x_max":0,"o":"m 119 -175 b 513 -382 194 -349 365 -382 b 933 -19 756 -382 933 -258 l 933 713 l 687 713 l 687 649 l 683 649 b 453 733 624 703 548 733 b 99 356 245 733 99 564 b 453 -21 99 147 245 -21 b 687 51 551 -21 634 -7 l 687 -1 b 513 -168 687 -128 581 -168 b 320 -76 406 -168 347 -119 z m 360 356 b 527 524 360 454 434 524 b 692 356 619 524 692 454 b 527 189 692 258 623 189 b 360 356 427 189 360 258 z m 866 1019 l 772 1146 l 559 990 l 347 1146 l 252 1019 l 559 794 z "},"Ǩ":{"ha":1194,"x_min":0,"x_max":0,"o":"m 1119 0 l 585 603 l 1047 1146 l 730 1146 l 337 678 l 337 1146 l 76 1146 l 76 0 l 337 0 l 337 486 l 759 0 z m 852 1371 l 758 1497 l 545 1342 l 333 1497 l 238 1371 l 545 1146 z "},"ǩ":{"ha":1001,"x_min":0,"x_max":0,"o":"m 891 713 l 572 713 l 323 464 l 323 1194 l 77 1194 l 77 0 l 323 0 l 323 285 l 608 0 l 924 0 l 552 372 z m 799 1371 l 705 1497 l 492 1342 l 280 1497 l 185 1371 l 492 1146 z "},"Ǫ":{"ha":1336,"x_min":0,"x_max":0,"o":"m 373 574 b 669 915 373 744 467 915 b 963 574 872 915 963 744 b 669 232 963 403 877 232 b 373 574 455 232 373 403 z m 91 574 b 563 -12 91 275 281 36 b 444 -240 522 -59 444 -160 b 619 -403 444 -361 547 -403 b 809 -303 747 -403 809 -303 l 709 -228 b 638 -269 709 -228 681 -269 b 587 -215 615 -269 587 -250 b 669 -21 587 -118 669 -21 b 1245 574 998 -21 1245 239 b 669 1167 1245 908 987 1167 b 91 574 353 1167 91 908 z "},"ǫ":{"ha":1036,"x_min":0,"x_max":0,"o":"m 352 356 b 519 524 352 454 426 524 b 684 356 610 524 684 454 b 519 189 684 258 615 189 b 352 356 419 189 352 258 z m 91 356 b 415 -11 91 168 217 25 b 295 -240 374 -59 295 -159 b 470 -403 295 -361 398 -403 b 660 -303 598 -403 660 -303 l 560 -228 b 490 -269 560 -228 533 -269 b 438 -215 466 -269 438 -250 b 520 -21 438 -118 520 -21 b 945 356 766 -21 945 136 b 520 733 945 578 756 733 b 91 356 280 733 91 578 z "},"Ǭ":{"ha":1335,"x_min":0,"x_max":0,"o":"m 373 1442 l 373 1275 l 940 1275 l 940 1442 z m 372 574 b 668 915 372 744 467 915 b 963 574 871 915 963 744 b 668 232 963 403 876 232 b 372 574 454 232 372 403 z m 90 574 b 562 -12 90 275 281 36 b 443 -240 521 -59 443 -160 b 618 -403 443 -361 546 -403 b 808 -303 746 -403 808 -303 l 708 -228 b 638 -269 708 -228 681 -269 b 586 -215 614 -269 586 -250 b 668 -21 586 -118 668 -21 b 1244 574 997 -21 1244 239 b 668 1167 1244 908 986 1167 b 90 574 353 1167 90 908 z "},"ǭ":{"ha":1032,"x_min":0,"x_max":0,"o":"m 228 1004 l 228 838 l 795 838 l 795 1004 z m 350 356 b 517 524 350 454 424 524 b 682 356 608 524 682 454 b 517 189 682 258 613 189 b 350 356 417 189 350 258 z m 89 356 b 413 -11 89 168 215 25 b 293 -240 372 -59 293 -159 b 468 -403 293 -361 396 -403 b 658 -303 596 -403 658 -303 l 558 -228 b 488 -269 558 -228 531 -269 b 436 -215 464 -269 436 -250 b 518 -21 436 -118 518 -21 b 943 356 764 -21 943 136 b 518 733 943 578 754 733 b 89 356 278 733 89 578 z "},"Ǯ":{"ha":1000,"x_min":0,"x_max":0,"o":"m 333 888 b 504 957 333 888 360 957 b 646 831 578 957 646 904 b 508 686 646 747 578 686 l 451 686 l 451 515 b 501 524 451 515 474 524 b 667 356 593 524 667 454 b 501 204 667 258 597 204 b 314 379 329 204 314 379 l 72 261 b 503 -21 72 261 150 -21 b 928 356 749 -21 928 136 b 782 618 928 476 871 564 b 883 833 844 667 883 739 b 507 1167 883 1221 725 1167 l 128 1167 z m 819 1451 l 725 1578 l 513 1422 l 300 1578 l 206 1451 l 513 1226 z "},"ǯ":{"ha":876,"x_min":0,"x_max":0,"o":"m 297 774 b 442 833 297 774 319 833 b 562 725 504 833 562 788 b 445 602 562 654 504 602 l 397 602 l 397 457 b 439 464 397 457 416 464 b 580 321 517 464 580 405 b 439 193 580 239 521 193 b 280 342 293 193 280 342 l 75 241 b 441 2 75 241 141 2 b 802 321 650 2 802 135 b 678 545 802 424 753 499 b 764 728 731 586 764 647 b 444 1011 764 1057 629 1011 l 122 1011 z m 760 1301 l 665 1428 l 453 1272 l 240 1428 l 146 1301 l 453 1076 z "},"ǰ":{"ha":776,"x_min":0,"x_max":0,"o":"m 187 1178 l 93 1051 l 399 826 l 706 1051 l 612 1178 l 399 1022 z m 277 713 l 523 713 l 523 -110 b 266 -382 523 -236 462 -382 b 70 -337 149 -382 105 -353 l 146 -139 b 209 -160 146 -139 178 -160 b 277 -62 251 -160 277 -129 z "},"Ǳ":{"ha":1933,"x_min":0,"x_max":0,"o":"m 1845 1146 l 902 1146 l 902 917 l 1388 917 l 822 0 l 1808 0 l 1808 229 l 1277 229 z m 88 1146 l 88 0 l 420 0 b 998 574 735 0 998 239 b 420 1146 998 907 734 1146 z m 349 233 l 349 913 l 390 913 b 716 572 584 913 716 764 b 390 233 715 381 583 233 z "},"ǲ":{"ha":1733,"x_min":0,"x_max":0,"o":"m 91 1146 l 91 0 l 423 0 b 999 525 723 0 975 216 l 1230 525 l 877 0 l 1615 0 l 1615 188 l 1290 188 l 1642 713 l 985 713 b 423 1146 923 971 691 1146 z m 352 233 l 352 913 l 392 913 b 719 572 587 913 719 764 b 392 233 717 381 585 233 z "},"ǳ":{"ha":1633,"x_min":0,"x_max":0,"o":"m 903 525 l 1151 525 l 903 157 z m 70 356 b 424 -21 70 147 216 -21 b 658 81 522 -21 605 22 l 660 81 l 660 0 l 798 0 l 903 0 l 1535 0 l 1535 188 l 1210 188 l 1563 713 l 903 713 l 903 1194 l 658 1194 l 658 644 b 424 733 599 701 520 733 b 70 356 216 733 70 564 z m 331 356 b 498 524 331 454 405 524 b 663 356 590 524 663 454 b 498 189 663 258 594 189 b 331 356 398 189 331 258 z "},"Ǵ":{"ha":1285,"x_min":0,"x_max":0,"o":"m 1186 642 l 657 642 l 657 440 l 921 440 b 672 219 921 300 797 219 b 381 572 511 219 381 378 b 672 931 381 771 511 931 b 928 783 774 931 861 890 l 1099 971 b 657 1167 999 1092 858 1167 b 99 572 335 1167 99 901 b 657 -21 99 244 349 -21 b 1186 393 882 -21 1124 103 z m 503 1304 l 581 1197 l 911 1389 l 785 1549 z "},"ǵ":{"ha":1029,"x_min":0,"x_max":0,"o":"m 117 -175 b 512 -382 192 -349 363 -382 b 931 -19 755 -382 931 -258 l 931 713 l 685 713 l 685 649 l 681 649 b 452 733 623 703 547 733 b 98 356 244 733 98 564 b 452 -21 98 147 244 -21 b 685 51 549 -21 633 -7 l 685 -1 b 512 -168 685 -128 580 -168 b 319 -76 405 -168 345 -119 z m 359 356 b 526 524 359 454 433 524 b 691 356 617 524 691 454 b 526 189 691 258 622 189 b 359 356 426 189 359 258 z m 376 928 l 453 821 l 784 1013 l 658 1172 z "},"Ƕ":{"ha":1732,"x_min":0,"x_max":0,"o":"m 365 460 l 733 460 l 733 13 b 1181 -344 733 -271 889 -344 b 1628 69 1472 -344 1628 -214 l 1628 749 l 1367 749 l 1367 174 b 1181 -87 1367 -18 1308 -87 b 996 125 1064 -87 1005 -30 l 996 1146 l 735 1146 l 735 749 l 733 749 l 733 689 l 365 689 l 365 1146 l 104 1146 l 104 0 l 365 0 z "},"Ƿ":{"ha":968,"x_min":0,"x_max":0,"o":"m 287 421 l 287 1149 l 84 1146 l 84 0 l 287 0 z m 287 421 l 884 786 l 287 1149 l 287 982 l 610 786 l 287 587 z "},"Ǹ":{"ha":1189,"x_min":0,"x_max":0,"o":"m 799 1356 l 721 1249 l 390 1440 l 517 1600 z m 365 711 l 368 711 l 824 0 l 1085 0 l 1085 1146 l 824 1146 l 824 435 l 821 435 l 365 1146 l 104 1146 l 104 0 l 365 0 z "},"ǹ":{"ha":971,"x_min":0,"x_max":0,"o":"m 738 922 l 660 815 l 329 1007 l 456 1167 z m 349 0 l 103 0 l 103 713 l 349 713 l 349 638 l 351 638 b 556 733 407 693 478 733 b 868 469 686 733 868 668 l 868 0 l 622 0 l 622 403 b 494 542 622 474 574 542 b 349 403 421 542 349 474 z "},"Ǽ":{"ha":1464,"x_min":0,"x_max":0,"o":"m 459 229 l 727 229 l 727 0 l 1383 0 l 1383 229 l 988 229 l 988 460 l 1366 460 l 1366 689 l 988 689 l 988 917 l 1383 917 l 1383 1146 l 605 1146 l 81 0 l 362 0 z m 727 458 l 551 458 l 724 878 l 727 878 z m 688 1315 l 766 1208 l 1097 1400 l 970 1560 z "},"ǽ":{"ha":1397,"x_min":0,"x_max":0,"o":"m 199 496 b 392 538 199 496 265 538 b 548 415 463 538 548 493 l 548 364 b 330 418 516 386 448 418 b 76 189 169 418 76 317 b 340 -21 76 60 191 -21 b 644 110 558 -21 644 110 b 940 -21 716 29 822 -21 b 1309 165 1098 -21 1228 31 l 1131 254 b 958 175 1072 190 1037 175 b 803 322 895 175 803 213 l 1320 322 b 1322 356 1322 331 1322 346 b 940 733 1322 606 1156 733 b 687 644 844 733 755 700 b 392 733 601 713 478 733 b 122 664 210 733 122 664 z m 810 458 b 947 574 815 524 862 574 b 1081 458 1019 574 1070 533 z m 320 210 b 430 288 320 260 365 288 b 548 210 495 288 548 251 b 430 126 548 168 495 126 b 320 210 365 126 320 160 z m 606 857 l 684 750 l 1015 942 l 888 1101 z "},"Ǿ":{"ha":1322,"x_min":0,"x_max":0,"o":"m 145 82 l 301 -37 l 372 53 b 662 -21 455 6 553 -21 b 1238 574 991 -21 1238 239 b 1097 964 1238 725 1184 861 l 1177 1065 l 1022 1185 l 947 1090 b 662 1167 862 1139 765 1167 b 84 574 347 1167 84 908 b 222 178 84 419 134 282 z m 366 574 b 662 915 366 744 460 915 b 785 889 709 915 751 906 l 398 400 b 366 574 376 453 366 514 z m 956 574 b 662 232 956 403 870 232 b 534 257 612 232 570 240 l 922 744 b 956 574 945 692 956 632 z m 583 1315 l 660 1208 l 991 1400 l 865 1560 z "},"ǿ":{"ha":1069,"x_min":0,"x_max":0,"o":"m 1003 672 l 941 747 l 816 646 b 537 733 741 701 644 733 b 108 356 297 733 108 578 b 181 132 108 269 134 193 l 66 39 l 128 -36 l 252 64 b 537 -21 324 10 423 -21 b 962 356 783 -21 962 136 b 885 576 962 440 934 517 z m 369 356 b 535 524 369 454 442 524 b 630 494 570 524 603 513 l 378 292 b 369 356 372 311 369 332 z m 535 189 b 440 215 498 189 466 199 l 690 418 b 701 356 697 399 701 378 b 535 189 701 258 631 189 z m 459 904 l 537 797 l 867 989 l 741 1149 z "},"Ȁ":{"ha":1317,"x_min":0,"x_max":0,"o":"m 628 1289 l 550 1182 l 274 1417 l 388 1561 z m 921 1289 l 843 1182 l 567 1417 l 681 1561 z m 788 458 l 529 458 l 657 792 l 660 792 z m 779 1146 l 538 1146 l 75 0 l 356 0 l 440 229 l 876 229 l 961 0 l 1242 0 z "},"ȁ":{"ha":1031,"x_min":0,"x_max":0,"o":"m 525 932 l 447 825 l 171 1060 l 285 1204 z m 818 932 l 740 825 l 464 1060 l 578 1204 z m 360 356 b 526 524 360 454 433 524 b 692 356 618 524 692 454 b 526 189 692 258 622 189 b 360 356 426 189 360 258 z m 99 356 b 453 -21 99 147 244 -21 b 686 81 550 -21 633 22 l 689 81 l 689 0 l 932 0 l 932 713 l 686 713 l 686 644 b 453 733 628 701 549 733 b 99 356 244 733 99 564 z "},"Ȃ":{"ha":1317,"x_min":0,"x_max":0,"o":"m 514 1215 b 660 1358 514 1215 529 1358 b 806 1215 790 1358 806 1215 l 981 1258 b 660 1510 964 1407 839 1510 b 339 1258 481 1510 356 1407 z m 788 458 l 529 458 l 657 792 l 660 792 z m 779 1146 l 538 1146 l 75 0 l 356 0 l 440 229 l 876 229 l 961 0 l 1242 0 z "},"ȃ":{"ha":1031,"x_min":0,"x_max":0,"o":"m 393 825 b 539 968 393 825 408 968 b 685 825 669 968 685 825 l 860 868 b 539 1119 843 1017 718 1119 b 218 868 360 1119 235 1017 z m 360 356 b 526 524 360 454 433 524 b 692 356 618 524 692 454 b 526 189 692 258 622 189 b 360 356 426 189 360 258 z m 99 356 b 453 -21 99 147 244 -21 b 686 81 550 -21 633 22 l 689 81 l 689 0 l 932 0 l 932 713 l 686 713 l 686 644 b 453 733 628 701 549 733 b 99 356 244 733 99 564 z "},"Ȅ":{"ha":846,"x_min":0,"x_max":0,"o":"m 750 1146 l 94 1146 l 94 0 l 750 0 l 750 229 l 356 229 l 356 460 l 733 460 l 733 689 l 356 689 l 356 917 l 750 917 z m 458 1313 l 381 1206 l 104 1440 l 218 1585 z m 751 1313 l 674 1206 l 397 1440 l 511 1585 z "},"ȅ":{"ha":949,"x_min":0,"x_max":0,"o":"m 860 322 b 861 356 861 331 861 346 b 479 733 861 606 696 733 b 88 356 264 733 88 564 b 479 -21 88 149 264 -21 b 849 165 638 -21 768 31 l 671 254 b 497 175 611 190 576 175 b 343 322 435 175 343 213 z m 350 458 b 486 574 354 524 401 574 b 621 458 558 574 610 533 z m 511 875 l 433 768 l 157 1003 l 271 1147 z m 804 875 l 726 768 l 450 1003 l 564 1147 z "},"Ȇ":{"ha":849,"x_min":0,"x_max":0,"o":"m 752 1146 l 97 1146 l 97 0 l 752 0 l 752 229 l 358 229 l 358 460 l 735 460 l 735 689 l 358 689 l 358 917 l 752 917 z m 278 1225 b 424 1368 278 1225 294 1368 b 570 1225 555 1368 570 1225 l 745 1268 b 424 1519 728 1417 603 1519 b 103 1268 245 1519 120 1417 z "},"ȇ":{"ha":949,"x_min":0,"x_max":0,"o":"m 860 322 b 861 356 861 331 861 346 b 479 733 861 606 696 733 b 88 356 264 733 88 564 b 479 -21 88 149 264 -21 b 849 165 638 -21 768 31 l 671 254 b 497 175 611 190 576 175 b 343 322 435 175 343 213 z m 350 458 b 486 574 354 524 401 574 b 621 458 558 574 610 533 z m 333 788 b 479 931 333 788 349 931 b 625 788 610 931 625 788 l 800 831 b 479 1082 783 979 658 1082 b 158 831 300 1082 175 979 z "},"Ȉ":{"ha":792,"x_min":0,"x_max":0,"o":"m 538 1146 l 276 1146 l 276 0 l 538 0 z m 426 1294 l 349 1188 l 72 1422 l 186 1567 z m 719 1294 l 642 1188 l 365 1422 l 479 1567 z "},"ȉ":{"ha":794,"x_min":0,"x_max":0,"o":"m 292 713 l 538 713 l 538 0 l 292 0 z m 428 896 l 350 789 l 74 1024 l 188 1168 z m 721 896 l 643 789 l 367 1024 l 481 1168 z "},"Ȋ":{"ha":803,"x_min":0,"x_max":0,"o":"m 528 1146 l 267 1146 l 267 0 l 528 0 z m 256 1218 b 401 1361 256 1218 271 1361 b 547 1218 532 1361 547 1218 l 722 1261 b 401 1513 706 1410 581 1513 b 81 1261 222 1513 97 1410 z "},"ȋ":{"ha":810,"x_min":0,"x_max":0,"o":"m 275 713 l 521 713 l 521 0 l 275 0 z m 259 771 b 405 914 259 771 274 914 b 551 771 535 914 551 771 l 726 814 b 405 1065 709 963 584 1065 b 84 814 226 1065 101 963 z "},"Ȍ":{"ha":1335,"x_min":0,"x_max":0,"o":"m 90 574 b 668 -21 90 239 329 -21 b 1244 574 997 -21 1244 239 b 668 1167 1244 908 986 1167 b 90 574 353 1167 90 908 z m 372 574 b 668 915 372 744 467 915 b 963 574 871 915 963 744 b 668 232 963 403 876 232 b 372 574 454 232 372 403 z m 598 1289 l 520 1182 l 244 1417 l 358 1561 z m 891 1289 l 813 1182 l 537 1417 l 651 1561 z "},"ȍ":{"ha":1032,"x_min":0,"x_max":0,"o":"m 89 356 b 518 -21 89 136 261 -21 b 943 356 764 -21 943 136 b 518 733 943 578 754 733 b 89 356 278 733 89 578 z m 350 356 b 517 524 350 454 424 524 b 682 356 608 524 682 454 b 517 189 682 258 613 189 b 350 356 417 189 350 258 z m 526 932 l 449 825 l 172 1060 l 286 1204 z m 819 932 l 742 825 l 465 1060 l 579 1204 z "},"Ȏ":{"ha":1335,"x_min":0,"x_max":0,"o":"m 90 574 b 668 -21 90 239 329 -21 b 1244 574 997 -21 1244 239 b 668 1167 1244 908 986 1167 b 90 574 353 1167 90 908 z m 372 574 b 668 915 372 744 467 915 b 963 574 871 915 963 744 b 668 232 963 403 876 232 b 372 574 454 232 372 403 z m 517 1215 b 663 1358 517 1215 533 1358 b 809 1215 794 1358 809 1215 l 984 1258 b 663 1510 967 1407 842 1510 b 342 1258 484 1510 359 1407 z "},"ȏ":{"ha":1033,"x_min":0,"x_max":0,"o":"m 90 356 b 519 -21 90 136 262 -21 b 944 356 765 -21 944 136 b 519 733 944 578 755 733 b 90 356 278 733 90 578 z m 351 356 b 517 524 351 454 424 524 b 683 356 609 524 683 454 b 517 189 683 258 613 189 b 351 356 417 189 351 258 z m 374 825 b 520 968 374 825 390 968 b 666 825 651 968 666 825 l 841 868 b 520 1119 824 1017 699 1119 b 199 868 341 1119 216 1017 z "},"Ȑ":{"ha":1089,"x_min":0,"x_max":0,"o":"m 73 1146 l 73 0 l 334 0 l 334 453 l 684 0 l 1016 0 l 622 474 b 856 806 762 518 856 633 b 483 1146 856 1031 695 1146 z m 334 638 l 334 938 l 365 938 b 581 788 463 938 581 931 b 365 638 581 644 463 638 z m 474 1289 l 397 1182 l 120 1417 l 234 1561 z m 767 1289 l 690 1182 l 413 1417 l 527 1561 z "},"ȑ":{"ha":801,"x_min":0,"x_max":0,"o":"m 85 0 l 331 0 l 331 375 b 477 519 331 393 349 519 b 605 481 559 519 605 481 l 708 689 b 552 733 708 689 644 733 b 334 610 412 733 334 610 l 331 610 l 331 713 l 85 713 z m 431 932 l 353 825 l 77 1060 l 191 1204 z m 724 932 l 647 825 l 370 1060 l 484 1204 z "},"Ȓ":{"ha":1090,"x_min":0,"x_max":0,"o":"m 74 1146 l 74 0 l 335 0 l 335 453 l 685 0 l 1017 0 l 622 474 b 857 806 763 518 857 633 b 483 1146 857 1031 696 1146 z m 335 638 l 335 938 l 365 938 b 582 788 464 938 582 931 b 365 638 582 644 464 638 z m 307 1215 b 453 1358 307 1215 322 1358 b 599 1215 583 1358 599 1215 l 774 1258 b 453 1510 757 1407 632 1510 b 132 1258 274 1510 149 1407 z "},"ȓ":{"ha":819,"x_min":0,"x_max":0,"o":"m 90 0 l 336 0 l 336 375 b 482 519 336 393 354 519 b 610 481 564 519 610 481 l 713 689 b 557 733 713 689 649 733 b 339 610 417 733 339 610 l 336 610 l 336 713 l 90 713 z m 264 825 b 410 968 264 825 279 968 b 556 825 540 968 556 825 l 731 868 b 410 1119 714 1017 589 1119 b 89 868 231 1119 106 1017 z "},"Ȕ":{"ha":1100,"x_min":0,"x_max":0,"o":"m 997 1146 l 736 1146 l 736 483 b 550 236 736 292 678 236 b 364 483 422 236 364 292 l 364 1146 l 103 1146 l 103 407 b 550 -21 103 124 258 -21 b 997 407 842 -21 997 124 z m 495 1289 l 417 1182 l 141 1417 l 255 1561 z m 788 1289 l 710 1182 l 434 1417 l 548 1561 z "},"ȕ":{"ha":969,"x_min":0,"x_max":0,"o":"m 344 713 l 99 713 l 99 314 b 485 -21 99 75 218 -21 b 871 314 751 -21 871 75 l 871 713 l 625 713 l 625 374 b 485 179 625 233 588 179 b 344 374 382 179 344 233 z m 474 932 l 396 825 l 119 1060 l 233 1204 z m 767 932 l 689 825 l 413 1060 l 526 1204 z "},"Ȗ":{"ha":1100,"x_min":0,"x_max":0,"o":"m 997 1146 l 736 1146 l 736 483 b 550 236 736 292 678 236 b 364 483 422 236 364 292 l 364 1146 l 103 1146 l 103 407 b 550 -21 103 124 258 -21 b 997 407 842 -21 997 124 z m 406 1215 b 552 1358 406 1215 422 1358 b 698 1215 683 1358 698 1215 l 873 1258 b 552 1510 856 1407 731 1510 b 231 1258 373 1510 248 1407 z "},"ȗ":{"ha":969,"x_min":0,"x_max":0,"o":"m 344 713 l 99 713 l 99 314 b 485 -21 99 75 218 -21 b 871 314 751 -21 871 75 l 871 713 l 625 713 l 625 374 b 485 179 625 233 588 179 b 344 374 382 179 344 233 z m 339 825 b 485 968 339 825 354 968 b 631 825 615 968 631 825 l 806 868 b 485 1119 789 1017 664 1119 b 164 868 306 1119 181 1017 z "},"Ș":{"ha":933,"x_min":0,"x_max":0,"o":"m 506 1167 b 132 817 321 1167 132 1031 b 350 522 132 697 213 590 b 608 333 486 454 608 417 b 443 221 608 226 500 221 b 163 350 315 221 163 350 l 32 131 b 463 -21 32 131 194 -21 b 894 349 686 -21 894 75 b 626 661 894 499 754 607 b 388 826 496 717 388 763 b 524 929 388 889 435 929 b 756 850 642 929 756 850 l 861 1058 b 506 1167 861 1058 714 1167 z m 465 -56 b 590 -181 535 -56 590 -111 b 410 -487 590 -310 497 -415 l 354 -444 b 436 -292 354 -444 419 -382 b 343 -181 383 -279 343 -236 b 465 -56 343 -111 399 -56 z "},"ș":{"ha":683,"x_min":0,"x_max":0,"o":"m 393 733 b 82 504 206 733 82 650 b 226 310 82 397 154 347 b 385 213 307 268 385 264 b 308 161 385 165 343 161 b 132 243 229 161 132 243 l 32 75 b 307 -21 32 75 135 -21 b 644 222 453 -21 644 13 b 428 450 644 368 522 421 b 317 518 367 469 317 481 b 393 561 317 551 339 561 b 551 517 468 561 551 517 l 632 678 b 393 733 632 678 531 733 z m 340 -56 b 465 -181 410 -56 465 -111 b 285 -487 465 -310 372 -415 l 229 -444 b 311 -292 229 -444 294 -382 b 218 -181 258 -279 218 -236 b 340 -56 218 -111 274 -56 z "},"Ț":{"ha":828,"x_min":0,"x_max":0,"o":"m 11 917 l 283 917 l 283 0 l 544 0 l 544 917 l 817 917 l 817 1146 l 11 1146 z m 413 -56 b 538 -181 482 -56 538 -111 b 357 -487 538 -310 444 -415 l 301 -444 b 383 -292 301 -444 367 -382 b 290 -181 331 -279 290 -236 b 413 -56 290 -111 346 -56 z "},"ț":{"ha":549,"x_min":0,"x_max":0,"o":"m 125 713 l 22 713 l 22 525 l 125 525 l 125 251 b 368 -21 125 125 172 -21 b 549 24 469 -21 549 24 l 488 222 b 426 200 488 222 458 200 b 371 299 388 200 371 232 l 371 525 l 521 525 l 521 713 l 371 713 l 371 978 l 125 978 z m 272 -56 b 150 -181 206 -56 150 -111 b 243 -292 150 -236 190 -279 b 161 -444 226 -382 161 -444 l 217 -487 b 397 -181 304 -415 397 -310 b 272 -56 397 -111 342 -56 z "},"Ȝ":{"ha":1001,"x_min":0,"x_max":0,"o":"m 339 815 b 509 957 339 815 365 957 b 651 831 583 957 651 904 b 514 686 651 747 583 686 l 457 656 l 457 485 b 507 524 457 485 479 524 b 672 356 598 524 672 454 b 460 115 672 258 595 147 b 277 76 292 76 277 76 l 68 -94 b 508 -83 68 -94 165 -164 b 933 356 747 -27 933 136 b 787 618 933 476 876 564 b 889 833 850 667 889 739 b 512 1167 889 1028 730 1167 b 133 915 191 1167 133 915 z "},"ȝ":{"ha":872,"x_min":0,"x_max":0,"o":"m 298 771 b 444 892 298 771 321 892 b 564 784 506 892 564 847 b 447 662 564 713 506 662 l 399 636 l 399 490 b 441 523 399 490 418 523 b 582 381 519 523 582 464 b 401 176 582 298 516 203 b 246 143 259 143 246 143 l 69 -2 b 442 7 69 -2 151 -61 b 804 381 646 55 804 194 b 680 604 804 483 755 558 b 766 787 733 645 766 706 b 446 1070 766 952 631 1070 b 124 856 173 1070 124 856 z "},"Ȟ":{"ha":1101,"x_min":0,"x_max":0,"o":"m 366 460 l 735 460 l 735 0 l 997 0 l 997 1146 l 735 1146 l 735 689 l 366 689 l 366 1146 l 105 1146 l 105 0 l 366 0 z m 862 1347 l 767 1474 l 555 1318 l 342 1474 l 248 1347 l 555 1122 z "},"ȟ":{"ha":972,"x_min":0,"x_max":0,"o":"m 103 0 l 349 0 l 349 403 b 495 542 349 474 422 542 b 623 403 574 542 623 474 l 623 0 l 869 0 l 869 469 b 556 733 869 668 687 733 b 352 638 478 733 408 693 l 349 638 l 349 1194 l 103 1194 z m 837 1347 l 742 1474 l 530 1318 l 317 1474 l 223 1347 l 530 1122 z "},"Ƞ":{"ha":1189,"x_min":0,"x_max":0,"o":"m 365 711 l 368 711 l 824 -179 l 1085 -179 l 1085 1146 l 824 1146 l 824 435 l 821 435 l 365 1146 l 104 1146 l 104 0 l 365 0 z "},"Ȧ":{"ha":1314,"x_min":0,"x_max":0,"o":"m 665 1532 b 537 1404 594 1532 537 1475 b 665 1276 537 1333 594 1276 b 792 1404 735 1276 792 1333 b 665 1532 792 1475 735 1532 z m 778 1146 l 536 1146 l 74 0 l 354 0 l 439 229 l 875 229 l 960 0 l 1240 0 z m 786 458 l 528 458 l 656 792 l 658 792 z "},"ȧ":{"ha":1029,"x_min":0,"x_max":0,"o":"m 525 1081 b 397 953 454 1081 397 1024 b 525 825 397 882 454 825 b 653 953 596 825 653 882 b 525 1081 653 1024 596 1081 z m 98 356 b 452 733 98 564 244 733 b 685 644 548 733 627 701 l 685 713 l 931 713 l 931 0 l 688 0 l 688 81 l 685 81 b 452 -21 633 22 549 -21 b 98 356 244 -21 98 147 z m 359 356 b 526 189 359 258 426 189 b 691 356 622 189 691 258 b 526 524 691 454 617 524 b 359 356 433 524 359 454 z "},"Ȯ":{"ha":1336,"x_min":0,"x_max":0,"o":"m 91 574 b 669 -21 91 239 330 -21 b 1245 574 998 -21 1245 239 b 669 1167 1245 908 987 1167 b 91 574 353 1167 91 908 z m 373 574 b 669 915 373 744 467 915 b 963 574 872 915 963 744 b 669 232 963 403 877 232 b 373 574 455 232 373 403 z m 667 1532 b 539 1404 596 1532 539 1475 b 667 1276 539 1333 596 1276 b 794 1404 738 1276 794 1333 b 667 1532 794 1475 738 1532 z "},"ȯ":{"ha":1036,"x_min":0,"x_max":0,"o":"m 91 356 b 520 -21 91 136 263 -21 b 945 356 766 -21 945 136 b 520 733 945 578 756 733 b 91 356 280 733 91 578 z m 352 356 b 519 524 352 454 426 524 b 684 356 610 524 684 454 b 519 189 684 258 615 189 b 352 356 419 189 352 258 z m 522 1081 b 394 953 451 1081 394 1024 b 522 825 394 882 451 825 b 649 953 592 825 649 882 b 522 1081 649 1024 592 1081 z "},"Ȳ":{"ha":1265,"x_min":0,"x_max":0,"o":"m 80 1146 l 502 514 l 502 0 l 763 0 l 763 514 l 1185 1146 l 872 1146 l 633 779 l 394 1146 z m 348 1419 l 348 1253 l 915 1253 l 915 1419 z "},"ȳ":{"ha":1099,"x_min":0,"x_max":0,"o":"m 733 713 l 564 347 l 365 713 l 82 713 l 419 111 l 174 -361 l 457 -361 l 1017 713 z m 265 975 l 265 808 l 832 808 l 832 975 z "},"ȷ":{"ha":597,"x_min":0,"x_max":0,"o":"m 279 713 l 279 -62 b 211 -160 279 -129 253 -160 b 149 -139 181 -160 149 -139 l 72 -337 b 268 -382 107 -353 151 -382 b 525 -110 464 -382 525 -236 l 525 713 z "},"ȸ":{"ha":1617,"x_min":0,"x_max":0,"o":"m 1256 356 b 1090 189 1256 258 1190 189 b 933 300 1013 189 954 233 l 933 411 b 1090 524 954 479 1016 524 b 1256 356 1183 524 1256 454 z m 99 356 b 453 -21 99 147 245 -21 b 684 78 549 -21 631 21 l 684 0 l 690 0 l 927 0 l 933 0 l 933 78 b 1163 -21 986 21 1068 -21 b 1517 356 1372 -21 1517 147 b 1163 733 1517 564 1372 733 b 933 647 1069 733 991 702 l 933 1194 l 930 1194 l 687 1194 l 684 1194 l 684 647 b 453 733 626 702 548 733 b 99 356 245 733 99 564 z m 360 356 b 527 524 360 454 434 524 b 684 411 600 524 662 479 l 684 300 b 527 189 663 233 603 189 b 360 356 427 189 360 258 z "},"ȹ":{"ha":1619,"x_min":0,"x_max":0,"o":"m 1259 357 b 1092 189 1259 258 1185 189 b 933 312 1016 189 951 238 l 933 403 b 1092 524 951 475 1012 524 b 1259 357 1192 524 1259 454 z m 99 357 b 453 -21 99 149 245 -21 b 687 68 549 -21 628 11 l 687 -361 l 933 -361 l 933 68 b 1166 -21 991 11 1070 -21 b 1520 357 1374 -21 1520 149 b 1166 733 1520 565 1374 733 b 933 632 1069 733 985 690 l 933 713 l 930 713 l 690 713 l 687 713 l 687 632 b 453 733 634 690 551 733 b 99 357 245 733 99 565 z m 360 357 b 527 524 360 454 427 524 b 687 403 607 524 669 475 l 687 312 b 527 189 668 238 604 189 b 360 357 434 189 360 258 z "},"Ⱥ":{"ha":1326,"x_min":0,"x_max":0,"o":"m 743 587 l 608 458 l 534 458 l 662 792 l 665 792 z m 1000 610 l 1217 817 l 1103 931 l 936 771 l 784 1146 l 542 1146 l 80 0 l 360 0 l 601 229 l 881 229 l 966 0 l 1247 0 z "},"Ȼ":{"ha":1218,"x_min":0,"x_max":0,"o":"m 749 236 b 512 304 649 236 571 263 l 1148 727 l 1056 859 l 406 427 b 372 574 383 474 372 525 b 749 910 372 726 487 910 b 974 839 883 910 974 839 l 1085 1061 b 709 1167 1085 1061 958 1167 b 88 571 384 1167 88 900 b 176 274 88 462 121 361 l 70 204 l 162 72 l 280 150 b 709 -21 394 44 548 -21 b 1085 85 958 -21 1085 85 l 974 307 b 749 236 974 307 883 236 z "},"ȼ":{"ha":886,"x_min":0,"x_max":0,"o":"m 540 532 b 659 499 613 532 659 499 l 742 667 b 504 733 742 667 662 733 b 109 354 297 733 109 564 b 142 207 109 302 121 252 l 70 172 l 162 40 l 241 78 b 504 -21 313 16 406 -21 b 742 43 662 -21 742 43 l 659 214 b 540 181 659 214 613 181 b 478 193 518 181 497 185 l 816 357 l 724 489 l 374 319 b 370 357 372 331 370 344 b 540 532 370 454 447 532 z "},"Ƚ":{"ha":901,"x_min":0,"x_max":0,"o":"m 437 486 l 545 486 l 545 647 l 437 647 l 437 1146 l 176 1146 l 176 647 l 70 647 l 70 486 l 176 486 l 176 0 l 831 0 l 831 229 l 437 229 z "},"ɀ":{"ha":907,"x_min":0,"x_max":0,"o":"m 808 -44 l 483 188 l 836 713 l 129 713 l 129 525 l 424 525 l 71 0 l 315 0 l 808 -232 z "},"Ɂ":{"ha":929,"x_min":0,"x_max":0,"o":"m 287 469 b 451 613 302 529 351 613 b 563 499 513 613 563 565 b 399 342 563 400 484 396 b 334 190 337 301 334 251 l 334 1 l 563 1 l 563 117 b 612 222 563 163 565 201 b 847 499 745 279 847 363 b 452 831 847 694 660 831 b 83 568 142 831 83 575 z "},"ɂ":{"ha":817,"x_min":0,"x_max":0,"o":"m 257 398 b 397 519 270 448 312 519 b 492 422 450 519 492 479 b 353 289 492 339 425 335 b 297 160 300 255 297 212 l 297 0 l 492 0 l 492 98 b 533 187 492 137 493 170 b 733 422 647 236 733 307 b 398 704 733 589 575 704 b 84 481 134 704 84 487 z "},"Ƀ":{"ha":1125,"x_min":0,"x_max":0,"o":"m 497 201 l 497 251 l 584 251 l 584 410 l 497 410 l 497 472 l 578 472 b 770 329 702 472 770 435 b 578 201 770 239 702 201 z m 497 697 l 497 944 l 517 944 b 691 828 631 944 691 910 b 517 697 691 732 630 697 z m 235 1146 l 235 410 l 80 410 l 80 251 l 235 251 l 235 0 l 670 0 b 1045 319 908 0 1045 131 b 801 608 1045 504 944 583 b 944 854 898 658 944 749 b 591 1146 944 1072 788 1146 z "},"Ʉ":{"ha":1357,"x_min":0,"x_max":0,"o":"m 497 469 l 869 469 b 683 236 866 289 807 236 b 497 469 558 236 499 289 z m 1130 469 l 1256 469 l 1256 685 l 1130 685 l 1130 1146 l 869 1146 l 869 685 l 497 685 l 497 1146 l 235 1146 l 235 685 l 101 685 l 101 469 l 235 469 l 235 407 b 683 -21 235 124 391 -21 b 1130 407 974 -21 1130 124 z "},"Ʌ":{"ha":1331,"x_min":0,"x_max":0,"o":"m 768 1146 l 563 1146 l 82 0 l 376 0 l 665 753 l 954 0 l 1249 0 z "},"Ɇ":{"ha":879,"x_min":0,"x_max":0,"o":"m 497 917 l 392 689 l 335 689 l 335 917 z m 730 1105 l 806 1253 l 714 1385 l 603 1146 l 74 1146 l 74 0 l 73 -2 l 153 -6 l 156 0 l 730 0 l 730 229 l 335 229 l 335 345 l 395 460 l 713 460 l 713 689 l 514 689 l 632 917 l 730 917 z "},"ɇ":{"ha":956,"x_min":0,"x_max":0,"o":"m 472 458 l 337 458 b 473 574 342 524 389 574 b 544 557 500 574 524 568 z m 373 322 l 337 274 b 330 322 333 288 330 304 z m 568 322 l 847 322 b 848 356 848 331 848 346 b 772 602 848 459 820 541 l 881 750 l 735 819 l 647 698 b 467 733 594 722 532 733 b 75 356 251 733 75 564 b 198 82 75 248 122 151 l 140 3 l 286 -65 l 334 1 b 467 -21 376 -13 420 -21 b 836 165 625 -21 755 31 l 658 254 b 485 175 598 190 564 175 b 462 177 477 175 470 175 z "},"Ɉ":{"ha":872,"x_min":0,"x_max":0,"o":"m 695 558 l 802 558 l 802 729 l 695 729 l 695 1146 l 434 1146 l 434 729 l 327 729 l 327 558 l 434 558 l 434 390 b 302 229 434 275 377 229 b 153 307 235 229 153 307 l 70 89 b 338 -21 70 89 174 -21 b 695 324 567 -21 695 99 z "},"ɉ":{"ha":700,"x_min":0,"x_max":0,"o":"m 285 947 b 403 825 285 881 339 825 b 521 947 467 825 521 881 b 403 1069 521 1014 467 1069 b 285 947 339 1069 285 1014 z m 277 713 l 277 365 l 155 365 l 155 194 l 277 194 l 277 -62 b 209 -160 277 -129 250 -160 b 146 -139 178 -160 146 -139 l 70 -337 b 266 -382 105 -353 149 -382 b 523 -110 461 -382 523 -236 l 523 194 l 630 194 l 630 365 l 523 365 l 523 713 z "},"Ɍ":{"ha":1247,"x_min":0,"x_max":0,"o":"m 495 638 l 495 938 l 526 938 b 742 788 624 938 742 931 b 526 638 742 644 624 638 z m 234 1146 l 234 623 l 70 614 l 70 453 l 234 453 l 234 0 l 495 0 l 495 453 l 845 0 l 1177 0 l 783 474 b 1017 806 923 518 1017 633 b 644 1146 1017 1031 856 1146 z "},"ɍ":{"ha":849,"x_min":0,"x_max":0,"o":"m 161 269 l 161 0 l 407 0 l 407 269 l 504 269 l 504 428 l 419 428 b 553 519 435 469 472 519 b 681 481 635 519 681 481 l 783 689 b 628 733 783 689 719 733 b 410 610 488 733 410 610 l 407 610 l 407 713 l 161 713 l 161 428 l 65 428 l 65 269 z "},"Ɏ":{"ha":1308,"x_min":0,"x_max":0,"o":"m 108 1146 l 172 1050 l 76 1050 l 76 871 l 292 871 l 531 514 l 531 0 l 792 0 l 792 514 l 1030 871 l 1232 871 l 1232 1050 l 1150 1050 l 1214 1146 l 900 1146 l 838 1050 l 485 1050 l 422 1146 z m 601 871 l 721 871 l 661 779 z "},"ɏ":{"ha":1324,"x_min":0,"x_max":0,"o":"m 858 713 l 726 428 l 644 428 l 490 713 l 206 713 l 366 428 l 84 428 l 84 249 l 467 249 l 544 111 l 298 -361 l 581 -361 l 899 249 l 1240 249 l 1240 428 l 993 428 l 1141 713 z "},"ɐ":{"ha":1032,"x_min":0,"x_max":0,"o":"m 933 357 b 578 733 933 565 787 733 b 345 632 481 733 398 690 l 342 632 l 342 713 l 99 713 l 99 0 l 345 0 l 345 68 b 578 -21 403 11 483 -21 b 933 357 787 -21 933 149 z m 672 357 b 505 189 672 258 598 189 b 340 357 413 189 340 258 b 505 524 340 454 409 524 b 672 357 605 524 672 454 z "},"ɑ":{"ha":1032,"x_min":0,"x_max":0,"o":"m 99 356 b 453 -21 99 147 245 -21 b 687 81 551 -21 634 22 l 690 81 l 690 0 l 933 0 l 933 713 l 687 713 l 687 644 b 453 733 628 701 549 733 b 99 356 245 733 99 564 z m 360 356 b 527 524 360 454 434 524 b 692 356 619 524 692 454 b 527 189 692 258 623 189 b 360 356 427 189 360 258 z "},"ɒ":{"ha":1031,"x_min":0,"x_max":0,"o":"m 932 356 b 578 -21 932 147 786 -21 b 344 81 481 -21 397 22 l 342 81 l 342 0 l 99 0 l 99 713 l 344 713 l 344 644 b 578 733 403 701 482 733 b 932 356 786 733 932 564 z m 671 356 b 504 524 671 454 597 524 b 339 356 413 524 339 454 b 504 189 339 258 408 189 b 671 356 604 189 671 258 z "},"ɓ":{"ha":1028,"x_min":0,"x_max":0,"o":"m 670 356 b 503 189 670 258 603 189 b 338 356 407 189 338 258 b 503 524 338 454 411 524 b 670 356 596 524 670 454 z m 931 356 b 576 733 931 564 785 733 b 343 644 481 733 401 701 l 343 992 b 553 953 451 1030 534 1002 l 707 1057 b 461 1194 644 1150 557 1183 l 215 1194 b 97 1014 95 1182 97 1105 l 97 0 l 340 0 l 340 81 l 343 81 b 576 -21 396 22 479 -21 b 931 356 785 -21 931 147 z "},"ɔ":{"ha":774,"x_min":0,"x_max":0,"o":"m 273 181 b 153 214 199 181 153 214 l 70 46 b 309 -21 70 46 151 -21 b 703 358 516 -21 703 149 b 309 733 703 567 515 733 b 70 669 151 733 70 669 l 153 499 b 273 532 153 499 199 532 b 442 356 366 532 442 454 b 273 181 442 258 366 181 z "},"ɘ":{"ha":968,"x_min":0,"x_max":0,"o":"m 99 322 b 97 356 97 331 97 346 b 479 733 97 606 263 733 b 871 356 694 733 871 564 b 479 -21 871 149 694 -21 b 110 165 321 -21 190 31 l 288 254 b 461 175 347 190 382 175 b 615 322 524 175 615 213 z m 608 458 b 472 574 604 524 557 574 b 338 458 400 574 349 533 z "},"ə":{"ha":969,"x_min":0,"x_max":0,"o":"m 99 390 b 98 357 98 382 98 367 b 480 -21 98 107 263 -21 b 872 357 695 -21 872 149 b 480 733 872 564 695 733 b 110 547 322 733 191 682 l 288 458 b 462 538 348 522 383 538 b 616 390 524 538 616 500 z m 609 254 b 473 139 605 189 558 139 b 338 254 401 139 349 179 z "},"ɛ":{"ha":903,"x_min":0,"x_max":0,"o":"m 593 711 b 448 831 593 711 571 831 b 327 724 385 831 327 786 b 444 601 327 653 385 601 l 493 601 l 493 456 b 450 463 493 456 474 463 b 310 320 372 463 310 404 b 450 191 310 237 369 191 b 610 340 597 191 610 340 l 815 240 b 449 0 815 240 749 0 b 88 320 240 0 88 134 b 212 543 88 423 136 497 b 126 726 159 585 126 646 b 445 1010 126 891 260 1010 b 768 796 718 1010 768 796 z "},"ɜ":{"ha":901,"x_min":0,"x_max":0,"o":"m 309 711 b 454 831 309 711 331 831 b 575 724 517 831 575 786 b 458 601 575 653 517 601 l 409 601 l 409 456 b 452 463 409 456 428 463 b 592 320 530 463 592 404 b 452 191 592 237 533 191 b 292 340 305 191 292 340 l 87 240 b 453 0 87 240 153 0 b 814 320 662 0 814 134 b 690 543 814 423 766 497 b 777 726 743 585 777 646 b 457 1010 777 891 642 1010 b 134 796 184 1010 134 796 z "},"ɟ":{"ha":817,"x_min":0,"x_max":0,"o":"m 300 713 l 300 442 l 107 442 l 107 238 l 300 238 l 300 -62 b 232 -160 300 -129 274 -160 b 169 -139 201 -160 169 -139 l 93 -337 b 289 -382 128 -353 172 -382 b 546 -110 485 -382 546 -236 l 546 238 l 724 238 l 724 442 l 546 442 l 546 713 z "},"ɡ":{"ha":1029,"x_min":0,"x_max":0,"o":"m 117 -175 b 512 -382 192 -349 363 -382 b 931 -19 755 -382 931 -258 l 931 713 l 685 713 l 685 649 l 681 649 b 452 733 623 703 547 733 b 98 356 244 733 98 564 b 452 -21 98 147 244 -21 b 685 51 549 -21 633 -7 l 685 -1 b 512 -168 685 -128 580 -168 b 319 -76 405 -168 345 -119 z m 359 356 b 526 524 359 454 433 524 b 691 356 617 524 691 454 b 526 189 691 258 622 189 b 359 356 426 189 359 258 z "},"ɢ":{"ha":1124,"x_min":0,"x_max":0,"o":"m 1024 566 l 574 566 l 574 395 l 799 395 b 587 207 799 276 693 207 b 339 507 450 207 339 342 b 587 812 339 676 450 812 b 804 686 673 812 748 777 l 950 846 b 574 1012 865 949 745 1012 b 100 507 300 1012 100 787 b 574 3 100 228 312 3 b 1024 355 765 3 971 108 z "},"ɥ":{"ha":972,"x_min":0,"x_max":0,"o":"m 869 1194 l 623 1194 l 623 792 b 477 653 623 721 551 653 b 349 792 398 653 349 721 l 349 1194 l 103 1194 l 103 725 b 416 461 103 526 285 461 b 620 557 494 461 565 501 l 623 557 l 623 0 l 869 0 z "},"ɨ":{"ha":678,"x_min":0,"x_max":0,"o":"m 100 554 l 100 396 l 578 396 l 578 554 z m 218 0 l 468 0 l 468 731 l 218 731 z m 228 958 b 346 836 228 892 282 836 b 464 958 410 836 464 892 b 346 1081 464 1025 410 1081 b 228 958 282 1081 228 1025 z "},"ɩ":{"ha":557,"x_min":0,"x_max":0,"o":"m 80 1046 l 326 1046 l 326 265 b 371 201 326 240 348 225 b 477 157 384 189 466 172 b 408 0 477 157 448 30 b 210 4 291 0 237 -6 b 83 206 117 40 88 80 l 83 206 l 83 231 b 83 276 82 245 82 260 l 83 278 z "},"ɪ":{"ha":431,"x_min":0,"x_max":0,"o":"m 326 977 l 104 977 l 104 3 l 326 3 z "},"ɫ":{"ha":939,"x_min":0,"x_max":0,"o":"m 739 763 b 622 654 739 763 703 654 b 590 660 612 654 601 657 l 590 1194 l 344 1194 l 344 771 b 317 772 336 772 326 772 b 71 582 161 772 71 582 l 200 469 b 317 578 200 469 236 578 b 344 573 326 578 335 576 l 344 0 l 590 0 l 590 461 b 622 460 600 460 611 460 b 868 650 778 460 868 650 z "},"ɭ":{"ha":699,"x_min":0,"x_max":0,"o":"m 78 1400 l 324 1400 l 324 265 b 369 201 324 240 346 225 b 621 157 382 189 610 172 b 551 0 621 157 591 30 b 208 4 435 0 235 -6 b 81 206 114 40 86 80 l 81 206 l 81 231 b 81 276 80 245 80 260 l 81 278 z "},"ɮ":{"ha":1069,"x_min":0,"x_max":0,"o":"m 96 0 l 341 0 l 341 97 b 613 2 397 46 483 2 b 974 321 822 2 974 135 b 850 545 974 424 925 499 b 936 728 903 586 936 647 b 616 1011 936 1057 801 1011 l 341 1011 l 341 1194 l 96 1194 z m 341 946 l 469 774 b 614 833 469 774 491 833 b 734 725 676 833 734 788 b 617 602 734 654 676 602 l 569 602 l 569 457 b 611 464 569 457 588 464 b 752 321 689 464 752 405 b 611 193 752 239 693 193 b 452 342 465 193 452 342 l 341 288 z "},"ɯ":{"ha":1422,"x_min":0,"x_max":0,"o":"m 1319 733 l 1073 733 l 1073 317 b 959 197 1073 260 1041 197 b 834 331 872 197 834 260 l 834 733 l 588 733 l 588 308 b 474 197 585 254 552 197 b 349 331 387 197 349 260 l 349 733 l 103 733 l 103 264 b 381 0 103 65 251 0 b 617 131 459 0 542 40 b 866 0 667 35 772 0 b 1070 96 944 0 1015 40 l 1073 96 l 1073 21 l 1319 21 z "},"ɰ":{"ha":1422,"x_min":0,"x_max":0,"o":"m 1319 733 l 1073 733 l 1073 317 b 959 197 1073 260 1041 197 b 834 331 872 197 834 260 l 834 733 l 588 733 l 588 308 b 474 197 585 254 552 197 b 349 331 387 197 349 260 l 349 733 l 103 733 l 103 264 b 381 0 103 65 251 0 b 617 131 459 0 542 40 b 866 0 667 35 772 0 b 1070 96 944 0 1015 40 l 1073 96 l 1073 -236 l 1319 -236 z "},"ɴ":{"ha":1042,"x_min":0,"x_max":0,"o":"m 326 607 l 328 607 l 716 3 l 938 3 l 938 977 l 716 977 l 716 372 l 713 372 l 326 977 l 104 977 l 104 3 l 326 3 z "},"ɵ":{"ha":1172,"x_min":0,"x_max":0,"o":"m 833 563 l 339 563 b 587 799 357 688 437 799 b 833 563 737 799 816 688 z m 339 449 l 833 449 b 587 218 815 326 740 218 b 339 449 430 218 356 326 z m 96 508 b 587 3 96 224 299 3 b 1077 508 866 3 1077 224 b 587 1012 1077 793 857 1012 b 96 508 319 1012 96 793 z "},"ɶ":{"ha":1290,"x_min":0,"x_max":0,"o":"m 862 780 l 1197 780 l 1197 975 l 580 975 b 89 487 312 975 89 772 b 580 1 89 203 312 1 l 1197 1 l 1197 196 l 862 196 l 862 392 l 1183 392 l 1183 587 l 862 587 z m 640 777 l 640 199 l 606 199 b 329 489 441 199 329 326 b 606 777 329 650 441 777 z "},"ɷ":{"ha":1497,"x_min":0,"x_max":0,"o":"m 197 1022 l 197 1021 l 99 314 b 485 -21 67 78 219 -21 b 750 36 600 -21 687 -3 b 1012 -19 812 -2 899 -19 b 1398 315 1278 -19 1430 79 l 1301 1021 l 1301 1022 b 197 1022 927 1110 559 1108 z m 407 891 b 1091 888 635 914 863 911 l 1152 375 b 1012 181 1169 235 1115 181 b 872 375 909 181 872 235 l 872 667 l 626 667 l 626 374 b 485 179 626 233 588 179 b 345 374 383 179 328 233 z "},"ɸ":{"ha":1175,"x_min":0,"x_max":0,"o":"m 696 304 l 696 841 b 838 573 793 794 838 684 b 696 304 838 462 795 350 z m 474 307 b 337 573 376 354 337 464 b 474 837 337 681 381 788 z m 474 1063 b 97 573 259 1011 97 816 b 474 80 97 328 248 130 l 474 -92 l 696 -92 l 696 79 b 1078 573 920 127 1078 326 b 696 1065 1078 819 914 1016 l 696 1231 l 474 1231 z "},"ɹ":{"ha":807,"x_min":0,"x_max":0,"o":"m 708 733 l 463 733 l 463 358 b 317 214 463 340 444 214 b 189 253 235 214 189 253 l 86 44 b 242 0 86 44 150 0 b 460 124 382 0 460 124 l 463 124 l 463 21 l 708 21 z "},"ɺ":{"ha":799,"x_min":0,"x_max":0,"o":"m 710 1042 l 465 1042 l 465 358 b 319 214 465 340 447 214 b 191 253 237 214 191 253 l 88 44 b 244 0 88 44 152 0 b 462 124 384 0 462 124 l 465 124 l 465 21 l 710 21 z "},"ɼ":{"ha":799,"x_min":0,"x_max":0,"o":"m 88 0 l 334 0 l 334 683 b 480 828 334 701 352 828 b 608 789 562 828 608 789 l 710 997 b 555 1042 710 997 647 1042 b 337 918 415 1042 337 918 l 334 918 l 334 1021 l 88 1021 z "},"ʀ":{"ha":968,"x_min":0,"x_max":0,"o":"m 83 977 l 83 3 l 305 3 l 305 387 l 603 3 l 885 3 l 550 405 b 749 687 669 443 749 541 b 431 977 749 879 612 977 z m 305 544 l 305 799 l 331 799 b 515 672 415 799 515 794 b 331 544 515 550 415 544 z "},"ʁ":{"ha":975,"x_min":0,"x_max":0,"o":"m 888 3 l 888 977 l 666 977 l 666 592 l 369 977 l 87 977 l 422 574 b 222 292 303 536 222 438 b 540 3 222 101 359 3 z m 666 435 l 666 180 l 640 180 b 456 307 557 180 456 186 b 640 435 456 429 557 435 z "},"ʇ":{"ha":693,"x_min":0,"x_max":0,"o":"m 507 244 l 610 244 l 610 432 l 507 432 l 507 706 b 264 978 507 832 460 978 b 83 933 163 978 83 933 l 144 735 b 206 757 144 735 174 757 b 261 658 244 757 261 725 l 261 432 l 111 432 l 111 244 l 261 244 l 261 -21 l 507 -21 z "},"ʈ":{"ha":685,"x_min":0,"x_max":0,"o":"m 182 901 l 79 901 l 79 714 l 182 714 l 182 251 b 425 -21 182 125 229 -21 b 606 24 526 -21 606 24 l 544 222 b 483 200 544 222 515 200 b 428 299 444 200 428 232 l 428 714 l 578 714 l 578 901 l 428 901 l 428 1167 l 182 1167 z "},"ʉ":{"ha":1143,"x_min":0,"x_max":0,"o":"m 100 524 l 100 389 l 1043 389 l 1043 524 z m 433 713 l 188 713 l 188 314 b 574 -21 188 75 307 -21 b 960 314 840 -21 960 75 l 960 713 l 714 713 l 714 374 b 574 179 714 233 676 179 b 433 374 471 179 433 233 z "},"ʊ":{"ha":1250,"x_min":0,"x_max":0,"o":"m 859 563 b 615 242 859 340 726 242 b 372 563 505 242 372 340 b 488 771 372 676 488 771 l 486 771 l 492 771 l 492 909 l 102 909 l 101 771 l 226 771 b 187 529 206 718 187 637 b 617 1 187 253 379 1 b 1045 529 854 1 1045 254 b 1005 771 1045 637 1025 718 l 1149 771 l 1149 909 l 759 909 l 758 772 l 757 772 b 859 563 757 772 859 676 z "},"ʋ":{"ha":961,"x_min":0,"x_max":0,"o":"m 725 816 l 503 816 l 632 430 b 474 220 683 278 583 220 b 316 430 366 220 316 267 l 316 993 l 94 993 l 94 365 b 474 1 94 124 226 1 b 854 365 722 1 920 137 z "},"ʌ":{"ha":1101,"x_min":0,"x_max":0,"o":"m 724 0 l 1016 0 l 634 713 l 467 713 l 85 0 l 377 0 l 551 388 z "},"ʍ":{"ha":1596,"x_min":0,"x_max":0,"o":"m 962 713 l 798 344 l 634 713 l 467 713 l 85 0 l 369 0 l 542 385 l 713 0 l 883 0 l 1053 385 l 1227 0 l 1510 0 l 1128 713 z "},"ʎ":{"ha":1097,"x_min":0,"x_max":0,"o":"m 365 0 l 534 365 l 733 0 l 1016 0 l 678 601 l 924 1074 l 641 1074 l 81 0 z "},"ʏ":{"ha":1111,"x_min":0,"x_max":0,"o":"m 86 977 l 445 439 l 445 3 l 667 3 l 667 439 l 1025 977 l 759 977 l 556 665 l 352 977 z "},"ʒ":{"ha":885,"x_min":0,"x_max":0,"o":"m 301 774 b 446 833 301 774 323 833 b 566 725 508 833 566 788 b 449 602 566 654 508 602 l 401 602 l 401 457 b 444 464 401 457 420 464 b 584 321 521 464 584 405 b 444 193 584 239 525 193 b 284 342 297 193 284 342 l 79 241 b 445 2 79 241 145 2 b 806 321 654 2 806 135 b 682 545 806 424 758 499 b 768 728 735 586 768 647 b 448 1011 768 1057 634 1011 l 126 1011 z "},"ʔ":{"ha":929,"x_min":0,"x_max":0,"o":"m 287 469 b 451 613 302 529 351 613 b 563 499 513 613 563 565 b 399 342 563 400 484 396 b 334 190 337 301 334 251 l 334 1 l 563 1 l 563 117 b 612 222 563 163 565 201 b 847 499 745 279 847 363 b 452 831 847 694 660 831 b 83 568 142 831 83 575 z "},"ʕ":{"ha":935,"x_min":0,"x_max":0,"o":"m 645 469 b 481 613 630 529 581 613 b 369 499 419 613 369 565 b 533 342 369 400 448 396 b 598 190 595 301 598 251 l 598 1 l 369 1 l 369 117 b 320 222 369 163 367 201 b 85 499 187 279 85 363 b 480 831 85 694 272 831 b 849 568 790 831 849 575 z "},"ʖ":{"ha":911,"x_min":0,"x_max":0,"o":"m 278 363 b 442 219 293 303 342 219 b 554 333 504 219 554 267 b 390 490 554 432 475 436 b 325 642 328 531 325 581 l 325 831 l 554 831 l 554 715 b 603 610 554 669 556 631 b 838 333 736 553 838 469 b 443 1 838 138 651 1 b 74 264 133 1 74 257 z "},"ʗ":{"ha":888,"x_min":0,"x_max":0,"o":"m 566 202 b 282 574 369 202 282 404 b 566 943 282 742 369 943 b 734 865 666 943 734 865 l 818 1110 b 535 1226 818 1110 722 1226 b 70 571 292 1226 70 933 b 535 -80 70 210 293 -80 b 818 36 722 -80 818 36 l 734 280 b 566 202 734 280 666 202 z "},"ʘ":{"ha":1350,"x_min":0,"x_max":0,"o":"m 676 719 b 530 574 595 719 530 654 b 676 428 530 493 595 428 b 822 574 756 428 822 493 b 676 719 822 654 756 719 z m 98 574 b 676 -21 98 239 337 -21 b 1252 574 1005 -21 1252 239 b 676 1167 1252 908 994 1167 b 98 574 360 1167 98 908 z m 380 574 b 676 915 380 744 474 915 b 970 574 878 915 970 744 b 676 232 970 403 884 232 b 380 574 462 232 380 403 z "},"ʙ":{"ha":882,"x_min":0,"x_max":0,"o":"m 97 977 l 97 3 l 466 3 b 785 274 668 3 785 114 b 577 520 785 431 699 498 b 699 729 660 562 699 639 b 399 977 699 914 567 977 z m 319 595 l 319 805 l 336 805 b 484 706 433 805 484 776 b 336 595 484 625 432 595 z m 319 174 l 319 404 l 388 404 b 551 282 494 404 551 372 b 388 174 551 206 494 174 z "},"ʜ":{"ha":967,"x_min":0,"x_max":0,"o":"m 326 393 l 640 393 l 640 3 l 862 3 l 862 977 l 640 977 l 640 588 l 326 588 l 326 977 l 104 977 l 104 3 l 326 3 z "},"ʝ":{"ha":1060,"x_min":0,"x_max":0,"o":"m 447 947 b 565 825 447 881 501 825 b 683 947 629 825 683 881 b 565 1069 683 1014 629 1069 b 447 947 501 1069 447 1014 z m 438 713 l 438 178 l 239 178 l 123 178 b 232 -337 100 70 40 -154 b 427 -382 266 -353 311 -382 b 684 -110 623 -382 684 -236 l 684 28 l 964 28 l 964 178 l 684 178 l 684 713 z m 438 28 l 438 -62 b 370 -160 438 -129 412 -160 b 308 -139 340 -160 308 -139 b 249 28 265 -88 253 -31 z "},"ʞ":{"ha":1007,"x_min":0,"x_max":0,"o":"m 113 482 l 433 482 l 681 731 l 681 0 l 927 0 l 927 1194 l 681 1194 l 681 910 l 397 1194 l 80 1194 l 452 822 z "},"ʟ":{"ha":740,"x_min":0,"x_max":0,"o":"m 313 977 l 92 977 l 92 3 l 649 3 l 649 197 l 313 197 z "},"ʡ":{"ha":933,"x_min":0,"x_max":0,"o":"m 289 469 b 453 613 304 529 353 613 b 565 499 515 613 565 565 b 401 342 565 400 486 396 b 337 233 354 311 341 275 l 197 233 l 197 108 l 336 108 l 336 1 l 565 1 l 565 108 l 734 108 l 734 233 l 639 233 b 849 499 760 290 849 371 b 454 831 849 694 663 831 b 85 568 144 831 85 575 z "},"ʢ":{"ha":935,"x_min":0,"x_max":0,"o":"m 645 469 b 481 613 630 529 581 613 b 369 499 419 613 369 565 b 533 342 369 400 448 396 b 597 233 580 311 593 275 l 738 233 l 738 108 l 598 108 l 598 1 l 369 1 l 369 108 l 200 108 l 200 233 l 295 233 b 85 499 174 290 85 371 b 480 831 85 694 272 831 b 849 568 790 831 849 575 z "},"ʣ":{"ha":1633,"x_min":0,"x_max":0,"o":"m 903 525 l 1151 525 l 903 157 z m 70 356 b 424 -21 70 147 216 -21 b 658 81 522 -21 605 22 l 660 81 l 660 0 l 798 0 l 903 0 l 1535 0 l 1535 188 l 1210 188 l 1563 713 l 903 713 l 903 1194 l 658 1194 l 658 644 b 424 733 599 701 520 733 b 70 356 216 733 70 564 z m 331 356 b 498 524 331 454 405 524 b 663 356 590 524 663 454 b 498 189 663 258 594 189 b 331 356 398 189 331 258 z "},"ʤ":{"ha":1557,"x_min":0,"x_max":0,"o":"m 357 356 b 523 524 357 454 430 524 b 689 356 615 524 689 454 b 523 189 689 258 619 189 b 357 356 423 189 357 258 z m 96 356 b 450 -21 96 147 241 -21 b 683 81 547 -21 630 22 l 686 81 l 686 0 l 929 0 l 929 33 b 1100 2 975 14 1031 2 b 1461 321 1309 2 1461 135 b 1337 545 1461 424 1413 499 b 1424 728 1390 586 1424 647 b 1104 1011 1424 1057 1289 1011 l 929 1011 l 929 1194 l 683 1194 l 683 644 b 450 733 625 701 546 733 b 96 356 241 733 96 564 z m 929 810 l 956 774 b 1101 833 956 774 978 833 b 1222 725 1164 833 1222 788 b 1105 602 1222 654 1164 602 l 1056 602 l 1056 457 b 1099 464 1056 457 1075 464 b 1239 321 1177 464 1239 405 b 1099 193 1239 239 1180 193 b 940 342 953 193 940 342 l 929 336 z "},"ʦ":{"ha":1190,"x_min":0,"x_max":0,"o":"m 182 713 l 79 713 l 79 525 l 182 525 l 182 251 b 425 -21 182 125 229 -21 l 606 -21 l 774 -21 b 1111 222 919 -21 1111 13 b 894 450 1111 368 989 421 b 783 518 833 469 783 481 b 860 561 783 551 806 561 b 1018 517 935 561 1018 517 l 1099 678 b 860 733 1099 678 997 733 b 578 614 726 733 625 691 l 578 713 l 428 713 l 428 978 l 182 978 z m 549 525 b 549 504 549 518 549 511 b 693 310 549 397 621 347 b 851 213 774 268 851 264 b 775 161 851 165 810 161 b 544 222 696 161 544 222 b 483 200 544 222 515 200 b 428 299 444 200 428 232 l 428 525 z "},"ʪ":{"ha":1078,"x_min":0,"x_max":0,"o":"m 97 0 l 337 0 b 644 -1 337 0 472 -1 b 981 242 790 -1 981 32 b 765 469 981 388 859 440 b 653 538 703 489 653 500 b 730 581 653 571 676 581 b 888 536 805 581 888 536 l 969 697 b 730 753 969 697 867 753 b 419 524 542 753 419 669 b 563 329 419 417 491 367 b 722 232 644 288 722 283 b 645 181 722 185 680 181 l 342 181 l 342 1194 l 97 1194 z "},"ʫ":{"ha":1097,"x_min":0,"x_max":0,"o":"m 86 1400 l 332 1400 l 332 713 l 1011 713 l 658 188 l 983 188 l 983 0 l 414 0 b 217 4 298 0 243 -6 b 90 206 123 40 95 80 l 89 206 l 89 231 b 89 276 89 245 89 260 l 89 278 z m 380 200 l 598 525 l 332 525 l 332 265 b 378 201 333 240 355 225 b 380 200 378 201 379 200 z "},"ʬ":{"ha":1390,"x_min":0,"x_max":0,"o":"m 556 604 l 695 917 l 834 604 l 976 604 l 1301 1210 l 1060 1210 l 912 883 l 767 1210 l 623 1210 l 478 883 l 330 1210 l 90 1210 l 414 604 z m 556 2 l 695 315 l 834 2 l 976 2 l 1301 608 l 1060 608 l 912 281 l 767 608 l 623 608 l 478 281 l 330 608 l 90 608 l 414 2 z "},"ʭ":{"ha":1401,"x_min":0,"x_max":0,"o":"m 1297 1044 l 104 1044 l 104 597 l 267 597 l 267 832 l 1135 832 l 1135 597 l 1297 597 z m 1297 447 l 104 447 l 104 0 l 267 0 l 267 235 l 1135 235 l 1135 0 l 1297 0 z "},"ʹ":{"ha":436,"x_min":0,"x_max":0,"o":"m 174 1201 l 371 1172 l 191 710 l 65 736 z "},"ʺ":{"ha":697,"x_min":0,"x_max":0,"o":"m 435 1201 l 632 1172 l 452 710 l 326 736 z m 174 1201 l 371 1172 l 191 710 l 65 736 z "},"ʼ":{"ha":381,"x_min":0,"x_max":0,"o":"m 98 1194 l 126 807 l 255 807 l 282 1194 z "},"˂":{"ha":794,"x_min":0,"x_max":0,"o":"m 718 207 l 589 106 l 76 453 l 589 800 l 718 699 l 354 453 z "},"˃":{"ha":794,"x_min":0,"x_max":0,"o":"m 76 207 l 206 106 l 718 453 l 206 800 l 76 699 l 440 453 z "},"˄":{"ha":853,"x_min":0,"x_max":0,"o":"m 181 535 l 79 664 l 426 1176 l 774 664 l 672 535 l 426 899 z "},"˅":{"ha":842,"x_min":0,"x_max":0,"o":"m 667 1176 l 768 1047 l 421 535 l 74 1047 l 175 1176 l 421 813 z "},"ˆ":{"ha":808,"x_min":0,"x_max":0,"o":"m 97 942 l 192 815 l 404 971 l 617 815 l 711 942 l 404 1167 z "},"ˇ":{"ha":808,"x_min":0,"x_max":0,"o":"m 192 1167 l 97 1040 l 404 815 l 711 1040 l 617 1167 l 404 1011 z "},"ˉ":{"ha":781,"x_min":0,"x_max":0,"o":"m 107 1481 l 107 1314 l 674 1314 l 674 1481 z "},"ˊ":{"ha":572,"x_min":0,"x_max":0,"o":"m 82 1356 l 160 1249 l 490 1440 l 364 1600 z "},"ˋ":{"ha":572,"x_min":0,"x_max":0,"o":"m 208 1600 l 82 1440 l 413 1249 l 490 1356 z "},"ˍ":{"ha":775,"x_min":0,"x_max":0,"o":"m 104 -86 l 104 -253 l 671 -253 l 671 -86 z "},"˘":{"ha":836,"x_min":0,"x_max":0,"o":"m 564 1167 b 418 1024 564 1167 549 1024 b 272 1167 288 1024 272 1167 l 97 1124 b 418 872 114 975 239 872 b 739 1124 597 872 722 975 z "},"˙":{"ha":450,"x_min":0,"x_max":0,"o":"m 225 1099 b 97 971 154 1099 97 1042 b 225 843 97 900 154 843 b 353 971 296 843 353 900 b 225 1099 353 1042 296 1099 z "},"˚":{"ha":642,"x_min":0,"x_max":0,"o":"m 97 1018 b 321 819 97 901 188 819 b 544 1018 451 819 544 901 b 321 1215 544 1133 447 1215 b 97 1018 196 1215 97 1133 z m 236 1018 b 321 1104 236 1065 275 1104 b 406 1018 368 1104 406 1065 b 321 929 406 969 369 929 b 236 1018 271 929 236 969 z "},"˛":{"ha":560,"x_min":0,"x_max":0,"o":"m 97 -219 b 272 -382 97 -340 200 -382 b 463 -282 400 -382 463 -282 l 363 -207 b 292 -249 363 -207 335 -249 b 240 -194 268 -249 240 -229 b 322 0 240 -97 322 0 l 242 36 b 97 -219 242 36 97 -110 z "},"˜":{"ha":836,"x_min":0,"x_max":0,"o":"m 406 892 b 550 854 406 892 496 854 b 739 1093 703 854 739 1093 l 599 1093 b 536 1029 599 1093 581 1029 b 431 1056 486 1029 431 1056 b 286 1093 431 1056 340 1093 b 97 854 133 1093 97 854 l 238 854 b 300 918 238 854 256 918 b 406 892 350 918 406 892 z "},"˝":{"ha":842,"x_min":0,"x_max":0,"o":"m 133 922 l 211 815 l 488 1050 l 374 1194 z m 426 922 l 504 815 l 781 1050 l 667 1194 z "},"˭":{"ha":921,"x_min":0,"x_max":0,"o":"m 104 1376 l 104 1164 l 817 1164 l 817 1376 z m 104 1043 l 104 831 l 817 831 l 817 1043 z "},"ˮ":{"ha":621,"x_min":0,"x_max":0,"o":"m 338 1194 l 366 807 l 495 807 l 523 1194 z m 98 1194 l 126 807 l 255 807 l 282 1194 z "},"Ͱ":{"ha":842,"x_min":0,"x_max":0,"o":"m 363 1146 l 101 1146 l 101 0 l 363 0 l 363 460 l 740 460 l 740 689 l 363 689 z "},"ͱ":{"ha":746,"x_min":0,"x_max":0,"o":"m 323 975 l 101 975 l 101 1 l 324 1 l 324 197 l 323 392 l 644 392 l 644 587 l 323 587 l 323 782 z "},"Ͳ":{"ha":1011,"x_min":0,"x_max":0,"o":"m 103 917 l 103 772 l 235 772 l 235 917 l 375 917 l 375 0 l 636 0 l 636 917 l 776 917 l 776 772 l 908 772 l 908 917 l 908 1146 l 103 1146 z "},"ͳ":{"ha":890,"x_min":0,"x_max":0,"o":"m 103 782 l 103 659 l 215 659 l 215 782 l 334 782 l 334 3 l 556 3 l 556 782 l 675 782 l 675 659 l 788 659 l 788 782 l 788 977 l 103 977 z "},"ʹ":{"ha":363,"x_min":0,"x_max":0,"o":"m 87 1017 l 191 993 l 276 1360 l 115 1388 z "},"͵":{"ha":363,"x_min":0,"x_max":0,"o":"m 87 -179 l 191 -203 l 276 164 l 115 192 z "},"Ͷ":{"ha":1189,"x_min":0,"x_max":0,"o":"m 824 711 l 821 711 l 365 0 l 104 0 l 104 1146 l 365 1146 l 365 435 l 368 435 l 824 1146 l 1085 1146 l 1085 0 l 824 0 z "},"ͷ":{"ha":1042,"x_min":0,"x_max":0,"o":"m 716 606 l 713 606 l 326 1 l 104 1 l 104 975 l 326 975 l 326 371 l 328 371 l 716 975 l 938 975 l 938 1 l 716 1 z "},"ͺ":{"ha":436,"x_min":0,"x_max":0,"o":"m 219 230 b 337 110 284 230 337 177 b 248 1 337 55 299 14 b 327 -145 264 -85 327 -145 l 274 -189 b 99 110 188 -118 99 -16 b 219 230 99 177 152 230 z "},"ͻ":{"ha":774,"x_min":0,"x_max":0,"o":"m 273 181 b 153 214 199 181 153 214 l 70 46 b 309 -21 70 46 151 -21 b 703 358 516 -21 703 149 b 309 733 703 567 515 733 b 70 669 151 733 70 669 l 153 499 b 273 532 153 499 199 532 b 442 356 366 532 442 454 b 273 181 442 258 366 181 z "},"ͼ":{"ha":799,"x_min":0,"x_max":0,"o":"m 513 468 b 621 360 573 468 621 420 b 513 251 621 300 573 251 b 404 360 452 251 404 300 b 513 468 404 420 452 468 z m 513 181 b 633 214 587 181 633 214 l 716 46 b 477 -21 716 46 635 -21 b 83 358 270 -21 83 149 b 477 733 83 567 272 733 b 716 669 635 733 716 669 l 633 499 b 513 532 633 499 587 532 b 344 356 420 532 344 454 b 513 181 344 258 420 181 z "},"ͽ":{"ha":797,"x_min":0,"x_max":0,"o":"m 285 468 b 177 360 225 468 177 420 b 285 251 177 300 225 251 b 394 360 346 251 394 300 b 285 468 394 420 346 468 z m 285 181 b 165 214 211 181 165 214 l 82 46 b 321 -21 82 46 163 -21 b 715 358 528 -21 715 149 b 321 733 715 567 526 733 b 82 669 163 733 82 669 l 165 499 b 285 532 165 499 211 532 b 454 356 378 532 454 454 b 285 181 454 258 378 181 z "},";":{"ha":436,"x_min":0,"x_max":0,"o":"m 218 230 b 100 110 153 230 100 177 b 189 1 100 55 138 14 b 110 -145 172 -85 110 -145 l 163 -189 b 338 110 249 -118 338 -16 b 218 230 338 177 285 230 z m 98 536 b 216 414 98 469 152 414 b 334 536 280 414 334 469 b 216 658 334 603 280 658 b 98 536 152 658 98 603 z "},"΄":{"ha":464,"x_min":0,"x_max":0,"o":"m 63 1025 l 178 960 l 400 1271 l 219 1364 z "},"΅":{"ha":751,"x_min":0,"x_max":0,"o":"m 283 1025 l 398 960 l 620 1271 l 439 1364 z m 211 985 b 83 857 140 985 83 928 b 211 729 83 786 140 729 b 339 857 282 729 339 786 b 211 985 339 928 282 985 z m 540 985 b 413 857 469 985 413 928 b 540 729 413 786 469 729 b 668 857 611 729 668 786 b 540 985 668 928 611 985 z "},"Ά":{"ha":1328,"x_min":0,"x_max":0,"o":"m 216 1025 l 331 960 l 553 1271 l 372 1364 z m 785 1146 l 543 1146 l 81 0 l 361 0 l 446 229 l 882 229 l 967 0 l 1247 0 z m 793 458 l 535 458 l 663 792 l 665 792 z "},"·":{"ha":456,"x_min":0,"x_max":0,"o":"m 228 750 b 100 622 157 750 100 693 b 228 494 100 551 157 494 b 356 622 299 494 356 551 b 228 750 356 693 299 750 z "},"Έ":{"ha":1128,"x_min":0,"x_max":0,"o":"m 87 1025 l 202 960 l 424 1271 l 243 1364 z m 1041 1146 l 385 1146 l 385 0 l 1041 0 l 1041 229 l 646 229 l 646 460 l 1024 460 l 1024 689 l 646 689 l 646 917 l 1041 917 z "},"Ή":{"ha":1386,"x_min":0,"x_max":0,"o":"m 87 1025 l 202 960 l 424 1271 l 243 1364 z m 669 460 l 1038 460 l 1038 0 l 1299 0 l 1299 1146 l 1038 1146 l 1038 689 l 669 689 l 669 1146 l 408 1146 l 408 0 l 669 0 z "},"Ί":{"ha":731,"x_min":0,"x_max":0,"o":"m 86 1025 l 200 960 l 423 1271 l 242 1364 z m 645 1146 l 384 1146 l 384 0 l 645 0 z "},"Ό":{"ha":1350,"x_min":0,"x_max":0,"o":"m 68 1025 l 183 960 l 405 1271 l 224 1364 z m 128 574 b 705 -21 128 239 367 -21 b 1282 574 1035 -21 1282 239 b 705 1167 1282 908 1023 1167 b 128 574 390 1167 128 908 z m 410 574 b 705 915 410 744 504 915 b 1000 574 908 915 1000 744 b 705 232 1000 403 914 232 b 410 574 492 232 410 403 z "},"Ύ":{"ha":1524,"x_min":0,"x_max":0,"o":"m 68 1025 l 183 960 l 405 1271 l 224 1364 z m 350 1146 l 772 514 l 772 0 l 1034 0 l 1034 514 l 1456 1146 l 1142 1146 l 903 779 l 664 1146 z "},"Ώ":{"ha":1556,"x_min":0,"x_max":0,"o":"m 271 1025 l 386 960 l 608 1271 l 427 1364 z m 474 410 b 791 837 474 673 646 837 b 1106 410 934 837 1106 673 b 955 166 1106 277 955 166 l 957 165 l 950 165 l 950 3 l 1456 3 l 1457 165 l 1295 165 b 1346 451 1321 228 1346 324 b 788 1072 1346 776 1097 1072 b 234 451 481 1072 234 774 b 285 165 234 324 259 228 l 99 165 l 99 3 l 605 3 l 606 164 l 607 165 b 474 410 607 165 474 277 z "},"ΐ":{"ha":768,"x_min":0,"x_max":0,"o":"m 291 1366 l 406 1300 l 628 1611 l 447 1705 z m 219 1325 b 92 1197 149 1325 92 1268 b 219 1069 92 1126 149 1069 b 347 1197 290 1069 347 1126 b 219 1325 347 1268 290 1325 z m 549 1325 b 421 1197 478 1325 421 1268 b 549 1069 421 1126 478 1069 b 676 1197 619 1069 676 1126 b 549 1325 676 1268 619 1325 z m 252 1046 l 498 1046 l 498 265 b 544 201 498 240 520 225 b 649 157 556 189 638 172 b 580 0 649 157 620 30 b 383 4 463 0 409 -6 b 256 206 289 40 260 80 l 255 206 l 255 231 b 255 276 255 245 255 260 l 255 278 z "},"Α":{"ha":1306,"x_min":0,"x_max":0,"o":"m 774 1146 l 532 1146 l 69 0 l 350 0 l 435 229 l 871 229 l 956 0 l 1236 0 z m 782 458 l 524 458 l 651 792 l 654 792 z "},"Β":{"ha":992,"x_min":0,"x_max":0,"o":"m 91 1146 l 91 0 l 526 0 b 901 319 763 0 901 131 b 656 608 901 504 799 583 b 799 854 753 658 799 749 b 447 1146 799 1072 644 1146 z m 352 697 l 352 944 l 373 944 b 547 828 487 944 547 910 b 373 697 547 732 485 697 z m 352 201 l 352 472 l 434 472 b 626 329 558 472 626 435 b 434 201 626 239 558 201 z "},"Γ":{"ha":846,"x_min":0,"x_max":0,"o":"m 356 917 l 358 0 l 95 0 l 95 1146 l 751 1146 l 751 917 z "},"Δ":{"ha":1306,"x_min":0,"x_max":0,"o":"m 956 3 l 1236 0 l 774 1146 l 532 1146 l 69 0 l 351 3 z m 876 228 l 425 224 l 651 792 l 654 821 z "},"Ε":{"ha":860,"x_min":0,"x_max":0,"o":"m 758 1146 l 102 1146 l 102 0 l 758 0 l 758 229 l 363 229 l 363 460 l 741 460 l 741 689 l 363 689 l 363 917 l 758 917 z "},"Ζ":{"ha":1164,"x_min":0,"x_max":0,"o":"m 1094 1146 l 151 1146 l 219 917 l 637 917 l 70 0 l 1056 0 l 988 229 l 526 229 z "},"Η":{"ha":1099,"x_min":0,"x_max":0,"o":"m 365 460 l 734 460 l 734 0 l 995 0 l 995 1146 l 734 1146 l 734 689 l 365 689 l 365 1146 l 103 1146 l 103 0 l 365 0 z "},"Θ":{"ha":1311,"x_min":0,"x_max":0,"o":"m 470 638 l 470 504 l 853 504 l 853 638 z m 78 574 b 656 -21 78 239 317 -21 b 1233 574 985 -21 1233 239 b 656 1167 1233 908 974 1167 b 78 574 341 1167 78 908 z m 360 574 b 656 915 360 744 455 915 b 951 574 859 915 951 744 b 656 232 951 403 865 232 b 360 574 442 232 360 403 z "},"Ι":{"ha":468,"x_min":0,"x_max":0,"o":"m 365 1146 l 103 1146 l 103 0 l 365 0 z "},"Κ":{"ha":1210,"x_min":0,"x_max":0,"o":"m 1126 0 l 593 603 l 1054 1146 l 738 1146 l 344 678 l 344 1146 l 83 1146 l 83 0 l 344 0 l 344 486 l 767 0 z "},"Λ":{"ha":1307,"x_min":0,"x_max":0,"o":"m 652 792 l 953 0 l 1237 0 l 774 1146 l 533 1146 l 70 0 l 348 -1 l 649 790 z "},"Μ":{"ha":1431,"x_min":0,"x_max":0,"o":"m 1089 0 l 1350 0 l 1247 1146 l 969 1146 l 715 485 l 461 1146 l 183 1146 l 81 0 l 342 0 l 396 679 l 403 679 l 638 7 l 793 7 l 1028 679 l 1035 679 z "},"Ν":{"ha":1188,"x_min":0,"x_max":0,"o":"m 365 711 l 367 711 l 823 0 l 1084 0 l 1084 1146 l 823 1146 l 823 435 l 820 435 l 365 1146 l 103 1146 l 103 0 l 365 0 z "},"Ξ":{"ha":851,"x_min":0,"x_max":0,"o":"m 697 696 l 155 696 l 155 464 l 696 464 z m 754 233 l 97 233 l 97 1 l 753 1 z m 754 1146 l 97 1146 l 97 914 l 753 914 z "},"Ο":{"ha":1311,"x_min":0,"x_max":0,"o":"m 78 574 b 656 -21 78 239 317 -21 b 1233 574 985 -21 1233 239 b 656 1167 1233 908 974 1167 b 78 574 341 1167 78 908 z m 360 574 b 656 915 360 744 455 915 b 951 574 859 915 951 744 b 656 232 951 403 865 232 b 360 574 442 232 360 403 z "},"Π":{"ha":1099,"x_min":0,"x_max":0,"o":"m 365 917 l 734 917 l 734 0 l 995 0 l 995 1146 l 734 1146 l 365 1146 l 103 1146 l 103 0 l 365 0 z "},"Ρ":{"ha":994,"x_min":0,"x_max":0,"o":"m 92 1146 l 92 0 l 353 0 l 353 425 l 510 425 b 902 793 734 425 902 557 b 510 1146 902 1031 734 1146 z m 353 633 l 353 938 l 427 938 b 627 785 530 938 627 903 b 427 633 627 668 530 633 z "},"Σ":{"ha":874,"x_min":0,"x_max":0,"o":"m 781 909 l 781 1144 l 93 1052 l 93 802 l 312 573 l 93 344 l 93 94 l 781 2 l 781 237 l 373 285 l 373 292 l 599 503 l 599 643 l 373 854 l 373 860 z "},"Τ":{"ha":975,"x_min":0,"x_max":0,"o":"m 85 917 l 357 917 l 357 0 l 618 0 l 618 917 l 890 917 l 890 1146 l 85 1146 z "},"Υ":{"ha":1239,"x_min":0,"x_max":0,"o":"m 67 1146 l 489 514 l 489 0 l 750 0 l 750 514 l 1172 1146 l 858 1146 l 619 779 l 381 1146 z "},"Φ":{"ha":1311,"x_min":0,"x_max":0,"o":"m 783 258 l 783 888 b 951 574 898 834 951 704 b 783 258 951 443 900 312 z m 522 260 b 360 574 407 316 360 445 b 522 884 360 700 412 827 z m 522 1151 b 78 574 270 1089 78 859 b 522 -6 78 285 256 53 l 522 -107 l 783 -107 l 783 -8 b 1233 574 1047 49 1233 283 b 783 1153 1233 863 1040 1095 l 783 1246 l 522 1246 z "},"Χ":{"ha":1332,"x_min":0,"x_max":0,"o":"m 1267 0 l 820 617 l 1195 1146 l 870 1146 l 659 833 l 448 1146 l 137 1146 l 498 617 l 65 0 l 388 0 l 659 390 l 930 0 z "},"Ψ":{"ha":1221,"x_min":0,"x_max":0,"o":"m 1126 1146 l 865 1146 l 865 483 b 742 261 865 359 813 292 l 742 1146 l 481 1146 l 481 261 b 356 483 409 293 356 360 l 356 1146 l 94 1146 l 94 407 b 481 -10 94 168 255 28 l 481 -137 l 742 -137 l 742 -11 b 1126 407 967 27 1126 167 z "},"Ω":{"ha":1558,"x_min":0,"x_max":0,"o":"m 476 410 b 792 837 476 673 648 837 b 1107 410 935 837 1107 673 b 956 166 1107 277 956 166 l 959 165 l 951 165 l 951 3 l 1457 3 l 1458 165 l 1297 165 b 1348 451 1322 228 1348 324 b 789 1072 1348 776 1098 1072 b 235 451 482 1072 235 774 b 286 165 235 324 261 228 l 100 165 l 100 3 l 606 3 l 607 164 l 608 165 b 476 410 608 165 476 277 z "},"Ϊ":{"ha":768,"x_min":0,"x_max":0,"o":"m 219 1532 b 92 1404 149 1532 92 1475 b 219 1276 92 1333 149 1276 b 347 1404 290 1276 347 1333 b 219 1532 347 1475 290 1532 z m 549 1532 b 421 1404 478 1532 421 1475 b 549 1276 421 1333 478 1276 b 676 1404 619 1276 676 1333 b 549 1532 676 1475 619 1532 z m 514 1146 l 253 1146 l 253 0 l 514 0 z "},"Ϋ":{"ha":1264,"x_min":0,"x_max":0,"o":"m 467 1532 b 339 1404 396 1532 339 1475 b 467 1276 339 1333 396 1276 b 594 1404 538 1276 594 1333 b 467 1532 594 1475 538 1532 z m 796 1532 b 668 1404 725 1532 668 1475 b 796 1276 668 1333 725 1276 b 924 1404 867 1276 924 1333 b 796 1532 924 1475 867 1532 z m 79 1146 l 501 514 l 501 0 l 763 0 l 763 514 l 1185 1146 l 871 1146 l 632 779 l 393 1146 z "},"ά":{"ha":1060,"x_min":0,"x_max":0,"o":"m 408 876 l 523 811 l 745 1122 l 564 1215 z m 338 356 b 505 524 338 454 412 524 b 670 356 597 524 670 454 b 505 189 670 258 601 189 b 338 356 405 189 338 258 z m 77 356 b 431 -21 77 147 223 -21 b 665 81 528 -21 612 22 l 667 81 l 740 0 l 983 0 l 862 358 l 983 713 l 737 713 l 665 644 b 431 733 606 701 527 733 b 77 356 223 733 77 564 z "},"έ":{"ha":879,"x_min":0,"x_max":0,"o":"m 278 1106 l 393 1040 l 615 1351 l 434 1445 z m 581 711 b 436 831 581 711 559 831 b 316 724 373 831 316 786 b 433 601 316 653 373 601 l 481 601 l 481 456 b 438 463 481 456 462 463 b 298 320 360 463 298 404 b 438 191 298 237 357 191 b 598 340 585 191 598 340 l 803 240 b 437 0 803 240 737 0 b 76 320 228 0 76 134 b 200 543 76 423 124 497 b 114 726 147 585 114 646 b 434 1010 114 891 248 1010 b 756 796 706 1010 756 796 z "},"ή":{"ha":978,"x_min":0,"x_max":0,"o":"m 341 842 l 455 776 l 678 1087 l 497 1181 z m 106 0 l 352 0 l 352 403 b 498 542 352 474 424 542 b 626 165 577 542 626 236 l 626 -237 l 872 -237 l 872 469 b 559 733 872 668 690 733 b 355 638 481 733 410 693 l 352 638 l 352 713 l 106 713 z "},"ί":{"ha":551,"x_min":0,"x_max":0,"o":"m 94 1224 l 208 1159 l 431 1469 l 250 1563 z m 77 1046 l 323 1046 l 323 265 b 369 201 323 240 345 225 b 474 157 381 189 463 172 b 405 0 474 157 445 30 b 208 4 288 0 234 -6 b 81 206 114 40 85 80 l 80 206 l 80 231 b 80 276 80 245 80 260 l 80 278 z "},"ΰ":{"ha":958,"x_min":0,"x_max":0,"o":"m 647 1040 b 519 912 576 1040 519 983 b 647 784 519 841 576 784 b 775 912 718 784 775 841 b 647 1040 775 983 718 1040 z m 318 1040 b 190 912 247 1040 190 983 b 318 784 190 841 247 784 b 446 912 389 784 446 841 b 318 1040 446 983 389 1040 z m 390 1080 l 505 1015 l 727 1326 l 546 1419 z m 339 713 l 93 713 l 93 314 b 479 -21 93 75 213 -21 b 865 314 746 -21 865 75 l 751 713 l 506 713 l 619 374 b 479 179 619 233 582 179 b 339 374 376 179 339 233 z "},"α":{"ha":1044,"x_min":0,"x_max":0,"o":"m 69 356 b 424 -21 69 147 215 -21 b 657 81 521 -21 604 22 l 660 81 l 732 0 l 975 0 l 854 358 l 975 713 l 729 713 l 657 644 b 424 733 599 701 519 733 b 69 356 215 733 69 564 z m 331 356 b 497 524 331 454 404 524 b 663 356 589 524 663 454 b 497 189 663 258 593 189 b 331 356 397 189 331 258 z "},"β":{"ha":946,"x_min":0,"x_max":0,"o":"m 424 -21 b 850 354 671 -21 850 135 b 667 639 850 494 778 588 b 806 875 751 686 806 765 b 447 1215 806 1067 661 1211 b 96 864 261 1215 96 1072 l 96 639 l 96 451 l 96 -186 l 342 -186 l 342 883 b 447 1008 342 965 400 1008 b 574 875 528 1008 574 958 b 424 728 574 788 504 728 l 424 540 b 589 367 529 540 589 469 b 424 204 589 269 519 204 z "},"γ":{"ha":1126,"x_min":0,"x_max":0,"o":"m 772 713 l 603 347 l 404 713 l 121 713 l 71 547 l 266 531 l 458 111 l 213 -361 l 496 -361 l 1056 713 z "},"δ":{"ha":1031,"x_min":0,"x_max":0,"o":"m 775 768 b 611 817 645 798 616 812 b 557 809 607 815 593 812 b 99 371 315 789 99 610 l 99 -117 l 349 -297 b 578 -382 407 -351 483 -382 b 932 -4 786 -382 932 -212 b 578 372 932 204 786 372 b 344 300 481 372 397 358 l 344 353 b 514 594 344 479 416 577 b 740 571 620 612 575 606 z m 671 -4 b 504 -172 671 -103 597 -172 b 339 -4 412 -172 339 -103 b 504 163 339 93 408 163 b 671 -4 604 163 671 93 z m 611 817 b 611 817 608 821 616 820 z "},"ε":{"ha":886,"x_min":0,"x_max":0,"o":"m 585 711 b 440 831 585 711 562 831 b 319 724 377 831 319 786 b 436 601 319 653 377 601 l 484 601 l 484 456 b 442 463 484 456 465 463 b 301 320 364 463 301 404 b 442 191 301 237 360 191 b 601 340 588 191 601 340 l 807 240 b 441 0 807 240 741 0 b 79 320 232 0 79 134 b 203 543 79 423 128 497 b 117 726 150 585 117 646 b 437 1010 117 891 252 1010 b 759 796 710 1010 759 796 z "},"ζ":{"ha":956,"x_min":0,"x_max":0,"o":"m 468 189 b 330 344 338 189 330 308 b 832 938 330 523 832 938 l 832 993 l 72 993 l 72 798 l 434 798 b 90 344 434 798 90 572 b 468 1 90 221 134 1 b 787 90 626 1 730 51 b 817 71 804 87 820 81 b 692 -137 790 -19 672 -44 b 854 -104 705 -201 822 -161 b 846 142 900 -21 887 56 b 824 148 841 151 833 152 l 658 229 b 468 189 658 229 574 189 z "},"η":{"ha":971,"x_min":0,"x_max":0,"o":"m 103 0 l 349 0 l 349 403 b 494 542 349 474 421 542 b 622 165 574 542 622 236 l 622 -237 l 868 -237 l 868 469 b 556 733 868 668 686 733 b 351 638 478 733 407 693 l 349 638 l 349 713 l 103 713 z "},"θ":{"ha":1169,"x_min":0,"x_max":0,"o":"m 832 563 l 338 563 b 585 799 355 688 436 799 b 832 563 736 799 815 688 z m 338 449 l 831 449 b 585 218 814 326 738 218 b 338 449 428 218 355 326 z m 94 508 b 585 3 94 224 297 3 b 1075 508 865 3 1075 224 b 585 1012 1075 793 856 1012 b 94 508 317 1012 94 793 z "},"ι":{"ha":554,"x_min":0,"x_max":0,"o":"m 78 1046 l 324 1046 l 324 265 b 370 201 325 240 347 225 b 476 157 383 189 464 172 b 406 0 476 157 446 30 b 209 4 290 0 235 -6 b 82 206 115 40 87 80 l 81 206 l 81 231 b 81 276 81 245 81 260 l 81 278 z "},"κ":{"ha":1046,"x_min":0,"x_max":0,"o":"m 966 1 l 513 514 l 905 975 l 636 975 l 302 577 l 302 975 l 80 975 l 80 1 l 302 1 l 302 414 l 660 1 z "},"λ":{"ha":1097,"x_min":0,"x_max":0,"o":"m 733 0 l 563 365 l 365 0 l 81 0 l 419 601 l 173 1074 l 456 1074 l 1016 0 z "},"μ":{"ha":972,"x_min":0,"x_max":0,"o":"m 347 713 l 99 713 l 99 -261 l 345 -261 l 345 -9 b 487 -21 387 -17 434 -21 b 873 314 753 -21 873 75 l 873 713 l 627 713 l 627 374 b 487 179 627 233 590 179 b 347 374 384 179 347 233 z "},"ν":{"ha":1081,"x_min":0,"x_max":0,"o":"m 367 713 l 75 713 l 457 0 l 624 0 l 1006 713 l 714 713 l 578 222 z "},"ξ":{"ha":900,"x_min":0,"x_max":0,"o":"m 614 831 b 471 833 614 831 594 833 l 471 831 l 452 831 b 351 724 398 823 351 780 b 468 601 351 653 409 601 l 516 601 l 516 456 b 474 463 516 456 497 463 b 333 320 396 463 333 404 b 474 191 333 237 392 191 b 620 232 620 191 620 232 l 825 132 b 698 35 825 132 802 74 l 649 -146 l 764 -151 l 831 -38 l 825 132 l 701 44 l 698 35 b 473 0 646 15 573 0 b 111 320 264 0 111 134 b 235 543 111 423 160 497 b 149 726 182 585 149 646 b 169 831 149 764 156 799 l 69 831 l 69 1010 l 469 1010 b 791 1008 742 1010 791 1008 z "},"ο":{"ha":1169,"x_min":0,"x_max":0,"o":"m 94 505 b 585 0 94 221 297 0 b 1075 505 865 0 1075 221 b 585 1010 1075 790 856 1010 b 94 505 317 1010 94 790 z m 334 505 b 585 796 334 651 414 796 b 836 505 758 796 836 651 b 585 215 836 360 762 215 b 334 505 404 215 334 360 z "},"π":{"ha":1213,"x_min":0,"x_max":0,"o":"m 453 780 l 767 780 l 767 167 l 835 1 l 1057 1 l 989 167 l 989 779 l 1111 779 l 1111 975 l 989 975 l 989 975 l 767 975 l 453 975 l 231 975 l 231 975 l 101 975 l 101 779 l 231 779 l 231 1 l 453 1 z "},"ρ":{"ha":1175,"x_min":0,"x_max":0,"o":"m 337 505 b 588 796 337 651 417 796 b 838 505 760 796 838 651 b 588 215 838 360 765 215 b 337 505 406 215 337 360 z m 97 505 b 97 488 97 500 97 494 l 97 -361 l 335 -361 l 335 67 b 588 0 407 24 493 0 b 1078 505 868 0 1078 221 b 588 1010 1078 790 858 1010 b 97 505 320 1010 97 790 z "},"ς":{"ha":988,"x_min":0,"x_max":0,"o":"m 632 220 b 311 507 409 220 311 376 b 632 793 311 637 409 793 b 823 732 745 793 823 732 l 918 921 b 598 1011 918 921 809 1011 b 70 504 321 1011 72 784 b 598 2 68 229 345 -46 b 772 25 671 15 727 30 b 499 -304 743 -82 611 -265 l 549 -317 b 912 -46 718 -290 843 -204 b 907 -34 910 -42 909 -38 b 916 -45 912 -40 915 -44 l 823 280 b 632 220 823 280 745 220 z m 916 -45 b 916 -46 916 -46 916 -46 z "},"σ":{"ha":1244,"x_min":0,"x_max":0,"o":"m 310 505 b 561 796 310 650 390 796 l 561 796 l 561 796 l 561 796 b 811 505 733 796 811 651 b 561 215 811 360 738 215 b 310 505 379 215 310 360 z m 561 1010 l 561 1010 b 70 505 293 1009 70 790 b 561 0 70 221 273 0 b 1051 505 841 0 1051 221 b 942 825 1051 628 1010 739 l 1124 839 l 1174 1010 z "},"τ":{"ha":888,"x_min":0,"x_max":0,"o":"m 101 782 l 333 782 l 333 3 l 338 3 b 378 -150 327 -13 347 -121 b 645 -150 434 -201 572 -165 b 726 -87 687 -142 722 -130 b 572 0 735 29 587 -40 b 555 29 567 13 561 22 l 555 782 l 786 782 l 786 977 l 101 977 z m 387 2 b 351 2 376 0 364 0 z "},"υ":{"ha":961,"x_min":0,"x_max":0,"o":"m 725 816 l 503 816 l 632 430 b 474 220 683 278 583 220 b 316 430 366 220 316 267 l 316 993 l 94 993 l 94 365 b 474 1 94 124 226 1 b 854 365 722 1 920 137 z "},"φ":{"ha":1163,"x_min":0,"x_max":0,"o":"m 250 743 b 314 976 222 826 383 988 b 174 950 304 975 209 982 b 99 783 122 903 103 854 b 184 503 93 672 100 576 b 377 376 247 446 309 402 l 377 3 l 599 3 l 599 364 l 732 364 b 1065 677 922 364 1065 476 b 732 977 1065 879 922 977 l 377 977 l 377 550 b 340 582 362 561 350 572 b 250 743 277 653 280 653 z m 599 541 l 599 799 l 661 799 b 831 670 749 799 831 770 b 661 541 831 570 749 541 z "},"χ":{"ha":1204,"x_min":0,"x_max":0,"o":"m 1119 197 l 967 197 l 728 527 l 1046 977 l 770 977 l 591 711 l 411 977 l 147 977 l 147 976 l 115 976 l 115 782 l 280 782 l 454 527 l 85 3 l 360 3 l 591 334 l 821 3 l 823 3 l 1108 3 l 1119 3 z "},"ψ":{"ha":1086,"x_min":0,"x_max":0,"o":"m 982 986 l 760 986 l 760 423 b 655 233 760 317 715 260 l 655 986 l 433 986 l 433 234 b 326 423 372 261 326 318 l 326 986 l 104 986 l 104 358 b 433 3 104 155 241 35 l 433 -105 l 655 -105 l 655 3 b 982 358 846 35 982 154 z "},"ω":{"ha":1507,"x_min":0,"x_max":0,"o":"m 350 764 l 104 764 l 104 314 b 490 -21 104 75 224 -21 b 755 36 605 -21 692 -3 b 1017 -19 817 -2 904 -19 b 1403 315 1283 -19 1403 76 l 1403 764 l 1157 764 l 1157 375 b 1017 181 1157 235 1119 181 b 876 375 914 181 876 235 l 876 667 l 631 667 l 631 374 b 490 179 631 233 593 179 b 350 374 388 179 350 233 z "},"ϊ":{"ha":717,"x_min":0,"x_max":0,"o":"m 194 1353 b 66 1225 123 1353 66 1296 b 194 1097 66 1154 123 1097 b 322 1225 265 1097 322 1154 b 194 1353 322 1296 265 1353 z m 523 1353 b 395 1225 452 1353 395 1296 b 523 1097 395 1154 452 1097 b 651 1225 594 1097 651 1154 b 523 1353 651 1296 594 1353 z m 236 1046 l 482 1046 l 482 265 b 528 201 482 240 504 225 b 633 157 540 189 622 172 b 564 0 633 157 604 30 b 367 4 447 0 393 -6 b 240 206 273 40 244 80 l 239 206 l 239 231 b 239 276 239 245 239 260 l 239 278 z "},"ϋ":{"ha":943,"x_min":0,"x_max":0,"o":"m 266 1313 b 138 1185 195 1313 138 1256 b 266 1057 138 1114 195 1057 b 394 1185 337 1057 394 1114 b 266 1313 394 1256 337 1313 z m 595 1313 b 467 1185 524 1313 467 1256 b 595 1057 467 1114 524 1057 b 723 1185 666 1057 723 1114 b 595 1313 723 1256 666 1313 z m 716 816 l 494 816 l 623 430 b 465 220 674 278 574 220 b 307 430 357 220 307 267 l 307 993 l 85 993 l 85 365 b 465 1 85 124 217 1 b 845 365 713 1 911 137 z "},"ό":{"ha":1151,"x_min":0,"x_max":0,"o":"m 448 1116 l 563 1050 l 785 1361 l 604 1454 z m 85 505 b 576 0 85 221 288 0 b 1066 505 856 0 1066 221 b 576 1010 1066 790 847 1010 b 85 505 308 1010 85 790 z m 325 505 b 576 796 325 651 405 796 b 827 505 749 796 827 651 b 576 215 827 360 753 215 b 325 505 394 215 325 360 z "},"ύ":{"ha":944,"x_min":0,"x_max":0,"o":"m 346 1099 l 461 1033 l 683 1344 l 502 1438 z m 717 816 l 495 816 l 624 430 b 466 220 675 278 575 220 b 308 430 357 220 308 267 l 308 993 l 86 993 l 86 365 b 466 1 86 124 218 1 b 846 365 714 1 911 137 z "},"ώ":{"ha":1507,"x_min":0,"x_max":0,"o":"m 641 878 l 756 813 l 978 1123 l 797 1217 z m 350 764 l 104 764 l 104 314 b 490 -21 104 75 224 -21 b 755 36 605 -21 692 -3 b 1017 -19 817 -2 904 -19 b 1403 315 1283 -19 1403 76 l 1403 764 l 1157 764 l 1157 375 b 1017 181 1157 235 1119 181 b 876 375 914 181 876 235 l 876 667 l 631 667 l 631 374 b 490 179 631 233 593 179 b 350 374 388 179 350 233 z "},"Ϗ":{"ha":1296,"x_min":0,"x_max":0,"o":"m 385 959 b 281 117 413 668 318 397 l 457 0 l 685 409 l 1016 57 b 741 -140 1000 -50 863 -107 l 738 -231 b 1221 0 930 -235 1203 -102 l 843 592 l 1226 1120 l 979 1120 l 550 559 b 660 1120 632 746 633 933 b 178 1146 596 1143 312 1196 l 70 1062 b 385 959 166 1060 347 1040 z "},"ϐ":{"ha":947,"x_min":0,"x_max":0,"o":"m 342 728 l 342 883 b 448 1008 342 965 401 1008 b 574 875 528 1008 574 958 b 342 728 574 788 423 728 z m 342 540 b 590 367 448 540 590 489 b 342 204 590 256 438 204 z m 342 -21 b 851 354 662 -21 851 135 b 667 639 851 494 778 588 b 806 875 752 686 806 765 b 448 1215 806 1067 662 1211 b 97 864 262 1215 97 1072 l 97 639 l 97 451 l 97 -21 z "},"ϑ":{"ha":1178,"x_min":0,"x_max":0,"o":"m 836 563 l 342 563 b 589 799 360 688 440 799 b 836 563 740 799 819 688 z m 342 449 l 836 449 b 589 218 818 326 742 218 b 342 449 432 218 359 326 z m 98 508 b 589 3 98 224 301 3 b 1079 508 869 3 1079 224 b 589 1012 1079 793 860 1012 b 98 508 321 1012 98 793 z "},"ϒ":{"ha":1360,"x_min":0,"x_max":0,"o":"m 1258 1146 l 1205 1146 l 891 1146 l 680 779 l 469 1146 l 155 1146 l 101 1146 l 101 964 l 338 852 l 549 514 l 549 0 l 810 0 l 810 514 l 1021 852 l 1258 964 z "},"ϓ":{"ha":1593,"x_min":0,"x_max":0,"o":"m 98 993 l 226 960 l 360 1318 l 161 1361 z m 1495 1146 l 1441 1146 l 1128 1146 l 916 779 l 705 1146 l 391 1146 l 338 1146 l 338 964 l 575 852 l 786 514 l 786 0 l 1047 0 l 1047 514 l 1258 852 l 1495 964 z "},"ϔ":{"ha":1360,"x_min":0,"x_max":0,"o":"m 506 1492 b 378 1364 435 1492 378 1435 b 506 1236 378 1293 435 1236 b 633 1364 576 1236 633 1293 b 506 1492 633 1435 576 1492 z m 835 1492 b 707 1364 764 1492 707 1435 b 835 1236 707 1293 764 1236 b 963 1364 906 1236 963 1293 b 835 1492 963 1435 906 1492 z m 1258 1146 l 1205 1146 l 891 1146 l 680 779 l 469 1146 l 155 1146 l 101 1146 l 101 964 l 338 852 l 549 514 l 549 0 l 810 0 l 810 514 l 1021 852 l 1258 964 z "},"ϕ":{"ha":1175,"x_min":0,"x_max":0,"o":"m 696 304 l 696 841 b 838 573 793 794 838 684 b 696 304 838 462 795 350 z m 474 307 b 337 573 376 354 337 464 b 474 837 337 681 381 788 z m 474 1063 b 97 573 259 1011 97 816 b 474 80 97 328 248 130 l 474 -92 l 696 -92 l 696 79 b 1078 573 920 127 1078 326 b 696 1065 1078 819 914 1016 l 696 1231 l 474 1231 z "},"ϖ":{"ha":1686,"x_min":0,"x_max":0,"o":"m 101 835 l 101 666 l 197 666 l 197 314 b 583 -21 197 75 316 -21 b 847 36 697 -21 785 -3 b 1109 -19 909 -2 996 -19 b 1495 315 1376 -19 1495 76 l 1495 666 l 1585 666 l 1585 835 z m 442 666 l 1249 666 l 1249 375 b 1109 181 1249 235 1212 181 b 969 375 1006 181 969 235 l 969 547 l 723 547 l 723 374 b 583 179 723 233 685 179 b 442 374 480 179 442 233 z "},"ϗ":{"ha":1146,"x_min":0,"x_max":0,"o":"m 344 833 b 254 101 369 580 286 345 l 407 -1 l 605 355 l 893 49 b 654 -122 879 -44 760 -94 l 651 -201 b 1072 -1 819 -205 1055 -89 l 743 514 l 1075 973 l 861 973 l 488 486 b 583 973 559 648 560 811 b 164 996 528 994 281 1040 l 70 923 b 344 833 154 921 311 903 z "},"Ϙ":{"ha":1350,"x_min":0,"x_max":0,"o":"m 380 574 b 676 915 380 744 474 915 b 970 574 878 915 970 744 b 676 232 970 403 884 232 b 380 574 462 232 380 403 z m 98 574 b 549 -8 98 283 279 48 l 549 -260 l 799 -260 l 799 -8 b 1252 574 1065 47 1252 282 b 676 1167 1252 908 994 1167 b 98 574 360 1167 98 908 z "},"ϙ":{"ha":1178,"x_min":0,"x_max":0,"o":"m 338 496 b 589 786 338 641 418 786 b 840 496 762 786 840 641 b 589 205 840 351 767 205 b 338 496 408 205 338 351 z m 98 496 b 481 1 98 248 252 49 l 481 -212 l 694 -212 l 694 1 b 1079 496 920 49 1079 248 b 589 1000 1079 780 860 1000 b 98 496 321 1000 98 780 z "},"Ϛ":{"ha":993,"x_min":0,"x_max":0,"o":"m 627 255 b 306 585 404 255 306 434 b 627 913 306 734 404 913 b 928 850 740 913 928 850 l 928 1164 b 593 1164 928 1164 804 1164 b 65 582 316 1164 66 904 b 593 4 63 263 340 -37 b 767 30 667 16 721 36 b 494 -226 738 -93 606 -187 l 544 -239 b 907 32 713 -212 838 -127 b 902 43 905 36 903 40 b 911 33 907 38 912 31 l 818 324 b 627 255 818 324 740 255 z m 911 33 b 911 32 911 32 911 32 z "},"ϛ":{"ha":971,"x_min":0,"x_max":0,"o":"m 624 220 b 303 507 401 220 303 376 b 624 793 303 637 402 776 b 836 761 743 801 841 769 l 892 1010 b 590 1011 892 1010 801 1011 b 62 504 314 1011 64 784 b 590 2 61 229 338 -46 b 765 25 664 15 719 30 b 492 -304 735 -82 603 -265 l 542 -317 b 904 -46 711 -290 835 -204 b 899 -34 903 -42 901 -38 b 908 -45 905 -40 908 -44 l 816 280 b 624 220 816 280 738 220 z m 908 -45 b 908 -46 908 -46 908 -46 z "},"Ϝ":{"ha":864,"x_min":0,"x_max":0,"o":"m 763 1146 l 101 1146 l 101 0 l 362 0 l 362 460 l 733 460 l 733 689 l 362 689 l 362 917 l 763 917 z "},"ϝ":{"ha":751,"x_min":0,"x_max":0,"o":"m 657 977 l 228 977 l 144 924 l 94 819 l 94 3 l 316 3 l 316 393 l 631 393 l 631 588 l 316 588 l 316 782 l 657 782 z "},"Ϟ":{"ha":1163,"x_min":0,"x_max":0,"o":"m 71 415 l 662 415 l 441 1 l 713 1 l 1092 685 l 537 685 l 826 1136 l 499 1136 z "},"ϟ":{"ha":971,"x_min":0,"x_max":0,"o":"m 430 999 l 71 412 l 589 412 l 368 1 l 561 1 l 900 588 l 382 588 l 641 999 z "},"Ϣ":{"ha":1422,"x_min":0,"x_max":0,"o":"m 1073 -168 b 201 -247 901 -247 583 -250 l 906 -401 l 1319 -236 l 1319 935 l 1073 935 l 1073 317 b 959 197 1073 260 1041 197 b 834 331 872 197 834 260 l 834 935 l 588 935 l 588 308 b 474 197 585 254 552 197 b 349 331 387 197 349 260 l 349 935 l 103 935 l 103 264 b 381 0 103 65 251 0 b 617 131 459 0 542 40 b 866 0 667 35 772 0 b 1070 96 944 0 1015 40 l 1073 96 z "},"ϣ":{"ha":1422,"x_min":0,"x_max":0,"o":"m 1073 -168 b 201 -247 901 -247 583 -250 l 906 -401 l 1319 -236 l 1319 733 l 1073 733 l 1073 317 b 959 197 1073 260 1041 197 b 834 331 872 197 834 260 l 834 733 l 588 733 l 588 308 b 474 197 585 254 552 197 b 349 331 387 197 349 260 l 349 733 l 103 733 l 103 264 b 381 0 103 65 251 0 b 617 131 459 0 542 40 b 866 0 667 35 772 0 b 1070 96 944 0 1015 40 l 1073 96 z "},"Ϩ":{"ha":997,"x_min":0,"x_max":0,"o":"m 456 1167 b 830 817 641 1167 830 1031 b 612 522 830 697 749 590 b 353 333 476 454 353 417 b 519 221 353 226 462 221 b 799 350 647 221 799 350 l 930 131 b 499 -21 930 131 767 -21 b 67 349 276 -21 67 75 b 335 661 67 499 208 607 b 574 826 466 717 574 763 b 438 929 574 889 527 929 b 317 794 320 929 317 794 l 151 740 b 456 1167 95 740 107 1167 z "},"ϩ":{"ha":869,"x_min":0,"x_max":0,"o":"m 399 1010 b 716 712 556 1010 716 894 b 531 462 716 611 648 520 b 311 301 415 404 311 372 b 452 206 311 210 403 206 b 690 315 560 206 690 315 l 801 129 b 435 0 801 129 663 0 b 68 314 245 0 68 82 b 296 580 68 442 187 534 b 499 720 407 627 499 666 b 383 808 499 773 459 808 b 281 693 283 808 281 693 l 139 647 b 399 1010 92 647 102 1010 z "},"Ϫ":{"ha":1365,"x_min":0,"x_max":0,"o":"m 1284 0 l 837 617 l 1083 964 l 1241 964 l 1241 1146 l 887 1146 l 676 833 l 465 1146 l 122 1146 l 122 964 l 278 964 l 515 617 l 81 0 z m 831 167 l 521 167 l 676 390 z "},"ϫ":{"ha":1193,"x_min":0,"x_max":0,"o":"m 1108 3 l 728 527 l 937 822 l 1071 822 l 1071 977 l 770 977 l 591 711 l 411 977 l 120 977 l 120 822 l 252 822 l 454 527 l 85 3 z m 723 144 l 459 144 l 591 334 z "},"Ϯ":{"ha":1011,"x_min":0,"x_max":0,"o":"m 103 847 l 375 917 l 375 0 l 636 0 l 636 917 l 908 917 l 908 1146 l 636 1146 l 636 1356 l 375 1356 l 375 1146 l 103 1076 z "},"ϯ":{"ha":1011,"x_min":0,"x_max":0,"o":"m 103 847 l 375 917 l 375 -79 l 636 -79 l 636 917 l 908 917 l 908 1146 l 636 1146 l 636 1400 l 375 1400 l 375 1146 l 103 1076 z "},"ϰ":{"ha":1271,"x_min":0,"x_max":0,"o":"m 866 607 l 864 607 l 292 3 l 70 3 l 312 794 l 155 794 l 211 976 l 368 976 l 368 977 l 590 977 l 405 372 l 407 372 l 979 977 l 1201 977 l 959 185 l 1119 185 l 1063 3 l 903 3 l 903 3 l 681 3 z "},"ϱ":{"ha":1164,"x_min":0,"x_max":0,"o":"m 331 505 b 583 796 331 651 411 796 b 833 505 755 796 833 651 b 583 215 833 360 760 215 b 331 505 401 215 331 360 z m 91 505 b 92 488 91 500 92 494 l 92 -361 l 329 -361 l 329 67 b 583 0 402 24 487 0 b 1072 505 862 0 1072 221 b 583 1010 1072 790 853 1010 b 91 505 315 1010 91 790 z "},"ϲ":{"ha":778,"x_min":0,"x_max":0,"o":"m 503 532 b 622 499 576 532 622 499 l 706 667 b 467 733 706 667 625 733 b 72 354 260 733 72 564 b 467 -21 72 146 261 -21 b 706 43 625 -21 706 43 l 622 214 b 503 181 622 214 576 181 b 333 357 410 181 333 258 b 503 532 333 454 410 532 z "},"ϳ":{"ha":617,"x_min":0,"x_max":0,"o":"m 402 1153 b 256 1007 322 1153 256 1088 b 402 861 256 926 322 861 b 548 1007 483 861 548 926 b 402 1153 548 1088 483 1153 z m 276 713 l 522 713 l 522 -110 b 265 -382 522 -236 460 -382 b 69 -337 148 -382 103 -353 l 145 -139 b 208 -160 145 -139 177 -160 b 276 -62 249 -160 276 -129 z "},"ϴ":{"ha":1350,"x_min":0,"x_max":0,"o":"m 966 638 l 384 638 b 676 915 405 785 500 915 b 966 638 853 915 945 785 z m 385 504 l 965 504 b 676 232 944 359 856 232 b 385 504 491 232 405 359 z m 98 574 b 676 -21 98 239 337 -21 b 1252 574 1005 -21 1252 239 b 676 1167 1252 908 994 1167 b 98 574 360 1167 98 908 z "},"ϵ":{"ha":1006,"x_min":0,"x_max":0,"o":"m 641 220 b 343 395 480 220 384 301 l 767 395 l 767 617 l 343 617 b 641 793 384 711 480 793 b 832 732 754 793 832 732 l 927 921 b 607 1011 927 921 818 1011 b 79 504 330 1011 79 784 b 607 2 79 226 332 2 b 927 91 818 2 927 91 l 832 280 b 641 220 832 280 754 220 z "},"϶":{"ha":1006,"x_min":0,"x_max":0,"o":"m 365 220 b 662 395 526 220 621 301 l 239 395 l 239 617 l 662 617 b 365 793 622 711 526 793 b 173 732 251 793 173 732 l 79 921 b 399 1011 79 921 188 1011 b 927 504 675 1011 927 784 b 399 2 927 226 674 2 b 79 91 188 2 79 91 l 173 280 b 365 220 173 280 251 220 z "},"Ϸ":{"ha":1006,"x_min":0,"x_max":0,"o":"m 359 1146 l 98 1146 l 98 0 l 359 0 l 359 213 l 516 213 b 908 581 740 213 908 344 b 516 933 908 818 740 933 l 359 933 z m 359 421 l 359 725 l 433 725 b 626 572 535 725 626 689 b 433 421 626 457 535 421 z "},"ϸ":{"ha":888,"x_min":0,"x_max":0,"o":"m 322 977 l 100 977 l 100 3 l 322 3 l 322 183 l 455 183 b 788 496 645 183 788 295 b 455 796 788 698 645 796 l 322 796 z m 322 360 l 322 619 l 384 619 b 548 489 471 619 548 588 b 384 360 548 391 471 360 z "},"Ϲ":{"ha":1138,"x_min":0,"x_max":0,"o":"m 731 236 b 353 574 469 236 353 419 b 731 910 353 726 469 910 b 956 839 865 910 956 839 l 1067 1061 b 691 1167 1067 1061 940 1167 b 70 571 366 1167 70 900 b 691 -21 70 243 367 -21 b 1067 85 940 -21 1067 85 l 956 307 b 731 236 956 307 865 236 z "},"Ϻ":{"ha":1435,"x_min":0,"x_max":0,"o":"m 1091 0 l 1352 0 l 1249 1146 l 972 1146 l 717 485 l 463 1146 l 185 1146 l 83 0 l 344 0 l 398 679 l 405 679 l 640 7 l 795 7 l 1030 679 l 1037 679 z "},"ϻ":{"ha":1296,"x_min":0,"x_max":0,"o":"m 1004 0 l 1226 0 l 1139 974 l 903 974 l 687 412 l 471 974 l 235 974 l 70 -342 l 291 -342 l 415 577 l 421 577 l 621 6 l 753 6 l 952 577 l 958 577 z "},"ϼ":{"ha":1210,"x_min":0,"x_max":0,"o":"m 158 505 b 158 488 158 500 158 494 l 158 -87 l 71 -87 l 71 -254 l 158 -254 l 158 -361 l 396 -361 l 396 -254 l 662 -254 l 662 -87 l 396 -87 l 396 67 b 649 0 468 24 554 0 b 1139 505 929 0 1139 221 b 649 1010 1139 790 919 1010 b 158 505 381 1010 158 790 z m 398 505 b 649 796 398 651 478 796 b 899 505 821 796 899 651 b 649 215 899 360 826 215 b 398 505 467 215 398 360 z "},"Ͻ":{"ha":1139,"x_min":0,"x_max":0,"o":"m 407 910 b 785 572 669 910 785 726 b 407 236 785 419 669 236 b 182 307 274 236 182 307 l 71 85 b 447 -21 71 85 199 -21 b 1068 575 772 -21 1068 246 b 447 1167 1068 903 771 1167 b 71 1061 199 1167 71 1061 l 182 839 b 407 910 182 839 274 910 z "},"Ͼ":{"ha":1157,"x_min":0,"x_max":0,"o":"m 706 682 b 814 574 766 682 814 634 b 706 465 814 513 766 465 b 597 574 645 465 597 513 b 706 682 597 634 645 682 z m 741 236 b 363 574 478 236 363 419 b 741 910 363 726 478 910 b 966 839 874 910 966 839 l 1077 1061 b 701 1167 1077 1061 949 1167 b 80 571 376 1167 80 900 b 701 -21 80 243 377 -21 b 1077 85 949 -21 1077 85 l 966 307 b 741 236 966 307 874 236 z "},"Ͽ":{"ha":1157,"x_min":0,"x_max":0,"o":"m 451 682 b 343 574 391 682 343 634 b 451 465 343 513 391 465 b 560 574 512 465 560 513 b 451 682 560 634 512 682 z m 416 236 b 794 574 678 236 794 419 b 416 910 794 726 678 910 b 191 839 283 910 191 839 l 80 1061 b 456 1167 80 1061 208 1167 b 1077 571 781 1167 1077 900 b 456 -21 1077 243 780 -21 b 80 85 208 -21 80 85 l 191 307 b 416 236 191 307 283 236 z "},"Ѐ":{"ha":860,"x_min":0,"x_max":0,"o":"m 224 1600 l 98 1440 l 428 1249 l 506 1356 z m 762 1146 l 106 1146 l 106 0 l 762 0 l 762 229 l 367 229 l 367 460 l 745 460 l 745 689 l 367 689 l 367 917 l 762 917 z "},"Ё":{"ha":860,"x_min":0,"x_max":0,"o":"m 256 1532 b 128 1404 185 1532 128 1475 b 256 1276 128 1333 185 1276 b 384 1404 327 1276 384 1333 b 256 1532 384 1475 327 1532 z m 585 1532 b 458 1404 515 1532 458 1475 b 585 1276 458 1333 515 1276 b 713 1404 656 1276 713 1333 b 585 1532 713 1475 656 1532 z m 758 1146 l 102 1146 l 102 0 l 758 0 l 758 229 l 363 229 l 363 460 l 741 460 l 741 689 l 363 689 l 363 917 l 758 917 z "}}}
